<svg width="119" height="235" viewBox="0 0 119 235" fill="none" xmlns="http://www.w3.org/2000/svg">
<path d="M116.215 14.8447C99.2373 12.054 81.8378 19.7412 68.398 29.5748C55.9381 38.8643 45.8762 51.0424 38.5007 64.7692C31.1251 78.496 26.2299 93.7272 24.1841 109.248C21.7899 127.39 22.9081 145.748 26.162 163.704C29.4746 181.887 34.9453 199.565 41.4766 216.823C42.3142 218.945 43.1297 221.169 43.9673 223.291C45.2237 226.473 50.2103 224.85 48.9539 221.668C42.3116 204.925 36.6049 187.843 32.7469 170.189C29.0285 152.889 27.1366 135.119 28.551 117.521C29.6613 102.338 33.4371 87.2976 39.9658 73.4964C46.1997 60.0632 54.9804 47.825 66.2478 38.0632C71.8189 33.2228 77.9784 29.156 84.6011 25.9438C92.0784 22.2685 100.409 19.6395 108.723 19.5951C110.873 19.6265 112.898 19.7387 114.981 20.0792C118.449 20.5019 119.558 15.3483 116.215 14.8447Z" fill="#27272A"/>
<path d="M59.6473 177.488C56.9062 188.222 54.1428 199.059 51.4016 209.793C50.3304 213.768 49.1484 218.259 45.5161 220.605C42.2817 222.605 38.1875 222.587 34.6244 221.604C29.2281 220.119 24.7765 216.25 20.6706 212.778C18.1172 210.611 14.4836 214.466 17.14 216.655C24.903 223.179 34.764 230.477 45.43 226.518C50.5862 224.608 53.5426 220.391 55.27 215.37C57.1671 210.063 58.2839 204.372 59.6878 198.85C61.4609 192.114 63.1087 185.459 64.8818 178.722C65.6138 175.321 60.4602 174.212 59.6473 177.488Z" fill="#27272A"/>
</svg>
