<svg width="173" height="232" viewBox="0 0 173 232" fill="none" xmlns="http://www.w3.org/2000/svg">
<path d="M110.82 1.22253C125.455 10.27 133.525 27.4952 137.2 43.7377C140.494 58.9264 140.082 74.7182 136.627 89.9131C133.172 105.108 126.859 119.808 118.207 132.855C108.096 148.107 95.1944 161.216 80.9471 172.618C66.5056 184.153 50.7694 193.889 34.5085 202.612C32.4834 203.662 30.4074 204.804 28.3824 205.853C25.3448 207.427 22.6508 202.928 25.6884 201.354C41.6945 193.092 57.2171 183.96 71.7219 173.183C85.8892 162.58 98.9877 150.423 109.48 136.225C118.616 124.047 125.648 110.226 129.79 95.5314C133.913 81.3076 135.33 66.3122 133.246 51.5506C132.225 44.2414 130.252 37.1292 127.368 30.3571C124.144 22.6744 119.589 15.2202 113.349 9.72613C111.707 8.33744 110.107 7.09204 108.312 5.98021C105.42 4.02112 107.968 -0.593299 110.82 1.22253Z" fill="#27272A"/>
<path d="M46.6439 161.017C41.6605 170.911 36.6261 180.898 31.6427 190.792C29.8392 194.493 27.7808 198.656 28.9788 202.81C30.1039 206.443 33.203 209.118 36.5351 210.718C41.5793 213.143 47.4778 213.149 52.8542 213.228C56.2029 213.271 56.4104 218.565 52.9694 218.471C42.8309 218.291 30.6015 217.317 25.1599 207.326C22.5266 202.499 23.0671 197.377 25.0622 192.457C27.1179 187.209 30.0139 182.184 32.5821 177.098C35.6697 170.854 38.7986 164.754 41.8862 158.51C43.5684 155.464 48.1828 158.013 46.6439 161.017Z" fill="#27272A"/>
</svg>
