<svg width="265" height="165" viewBox="0 0 265 165" fill="none" xmlns="http://www.w3.org/2000/svg">
<g clip-path="url(#clip0_52_827)">
<path d="M23.5197 108.313C28.2039 115.302 32.6159 122.169 37.7958 129.868C32.428 131.228 28.2689 129.208 25.7417 126.121C18.1599 116.86 10.7016 107.328 4.15807 97.2237C0.39067 91.4607 3.67588 86.396 10.5541 86.0369C22.0341 85.2825 33.5397 85.1925 45.1686 84.831C45.8367 84.8026 46.7026 84.6992 47.0493 85.0172C48.5598 86.0178 49.749 87.3648 51.136 88.6369C49.9743 89.7511 49.1104 91.6514 47.8488 91.9047C43.4703 92.8896 39.1408 93.4065 34.8858 94.1199C32.5604 94.5515 30.3584 94.7117 27.5648 96.8937C30.6347 98.4269 33.7791 100.157 36.8489 101.69C101.659 130.613 176.019 113.674 222.6 59.8478C228.555 52.8727 233.619 45.3365 239.228 38.0433C241.204 35.4968 243.255 33.1468 245.232 30.6003C245.974 30.7683 246.593 31.2079 247.336 31.376C247.412 33.3693 248.108 35.8022 247.17 37.5059C244.38 43.2815 241.59 49.0572 237.984 54.4682C202.315 108.429 134.573 135.668 68.9387 121.888C56.3909 119.227 44.3602 114.348 32.2316 110.405C29.6574 109.583 27.4045 108.414 24.9537 107.32C24.4835 107.274 23.9644 107.695 23.5197 108.313Z" fill="#52525B"/>
</g>
<defs>
<clipPath id="clip0_52_827">
<rect width="251" height="81" fill="white" transform="translate(0.791992 89.0933) rotate(-20.7512)"/>
</clipPath>
</defs>
</svg>
