<svg width="252" height="234" viewBox="0 0 252 234" fill="none" xmlns="http://www.w3.org/2000/svg">
<g opacity="0.4">
<path d="M72.9721 163.068C72.9721 163.459 72.655 163.776 72.2645 163.776C71.8739 163.776 71.5569 163.459 71.5569 163.068C71.5569 162.677 71.8739 162.36 72.2645 162.36C72.655 162.365 72.9721 162.677 72.9721 163.068Z" fill="white"/>
<path d="M130.02 5.91034C130.411 5.91034 130.728 5.59354 130.728 5.20275C130.728 4.81197 130.411 4.49518 130.02 4.49518C129.629 4.49518 129.312 4.81197 129.312 5.20275C129.312 5.59354 129.629 5.91034 130.02 5.91034Z" fill="white"/>
<g opacity="0.7">
<path opacity="0.7" d="M19.5217 107.885L121.01 2.43213" stroke="#969696" stroke-width="2" stroke-miterlimit="10" stroke-linecap="round" stroke-linejoin="round" stroke-dasharray="0.3 0.3"/>
<path opacity="0.7" d="M20.335 116.487L128.201 4.22406" stroke="#969696" stroke-width="2" stroke-miterlimit="10" stroke-linecap="round" stroke-linejoin="round" stroke-dasharray="0.3 0.3"/>
<path opacity="0.7" d="M23.5925 122.474L134.514 6.95331" stroke="#969696" stroke-width="2" stroke-miterlimit="10" stroke-linecap="round" stroke-linejoin="round" stroke-dasharray="0.3 0.3"/>
<path opacity="0.7" d="M28.1782 127.05L141.58 8.88312" stroke="#969696" stroke-width="2" stroke-miterlimit="10" stroke-linecap="round" stroke-linejoin="round" stroke-dasharray="0.3 0.3"/>
<path opacity="0.7" d="M31.7483 132.706L148.707 10.744" stroke="#969696" stroke-width="2" stroke-miterlimit="10" stroke-linecap="round" stroke-linejoin="round" stroke-dasharray="0.3 0.3"/>
<path opacity="0.7" d="M35.9478 137.691L156.27 12.1407" stroke="#969696" stroke-width="2" stroke-miterlimit="10" stroke-linecap="round" stroke-linejoin="round" stroke-dasharray="0.3 0.3"/>
<path opacity="0.7" d="M40.1152 142.713L162.059 15.426" stroke="#969696" stroke-width="2" stroke-miterlimit="10" stroke-linecap="round" stroke-linejoin="round" stroke-dasharray="0.3 0.3"/>
<path opacity="0.7" d="M44.2874 147.726L169.144 17.3328" stroke="#969696" stroke-width="2" stroke-miterlimit="10" stroke-linecap="round" stroke-linejoin="round" stroke-dasharray="0.3 0.3"/>
<path opacity="0.7" d="M48.5879 152.601L174.906 20.6502" stroke="#969696" stroke-width="2" stroke-miterlimit="10" stroke-linecap="round" stroke-linejoin="round" stroke-dasharray="0.3 0.3"/>
<path opacity="0.7" d="M52.3877 158.018L179.703 24.9968" stroke="#969696" stroke-width="2" stroke-miterlimit="10" stroke-linecap="round" stroke-linejoin="round" stroke-dasharray="0.3 0.3"/>
<path opacity="0.7" d="M56.6978 162.884L185.115 28.6863" stroke="#969696" stroke-width="2" stroke-miterlimit="10" stroke-linecap="round" stroke-linejoin="round" stroke-dasharray="0.3 0.3"/>
<path opacity="0.7" d="M61.2693 167.47L190.45 32.4632" stroke="#969696" stroke-width="2" stroke-miterlimit="10" stroke-linecap="round" stroke-linejoin="round" stroke-dasharray="0.3 0.3"/>
<path opacity="0.7" d="M65.1243 172.823L189.738 42.6865" stroke="#969696" stroke-width="2" stroke-miterlimit="10" stroke-linecap="round" stroke-linejoin="round" stroke-dasharray="0.3 0.3"/>
</g>
<g opacity="0.7">
<g opacity="0.7">
<path opacity="0.7" d="M79.3359 167.704L180.829 62.2507" stroke="#969696" stroke-width="2" stroke-miterlimit="10" stroke-linecap="round" stroke-linejoin="round" stroke-dasharray="0.3 0.3"/>
<path opacity="0.7" d="M80.1492 176.305L188.019 64.0427" stroke="#969696" stroke-width="2" stroke-miterlimit="10" stroke-linecap="round" stroke-linejoin="round" stroke-dasharray="0.3 0.3"/>
<path opacity="0.7" d="M83.4114 182.292L194.332 66.772" stroke="#969696" stroke-width="2" stroke-miterlimit="10" stroke-linecap="round" stroke-linejoin="round" stroke-dasharray="0.3 0.3"/>
<path opacity="0.7" d="M87.9922 186.869L201.394 68.6971" stroke="#969696" stroke-width="2" stroke-miterlimit="10" stroke-linecap="round" stroke-linejoin="round" stroke-dasharray="0.3 0.3"/>
<path opacity="0.7" d="M91.5671 192.52L208.521 70.558" stroke="#969696" stroke-width="2" stroke-miterlimit="10" stroke-linecap="round" stroke-linejoin="round" stroke-dasharray="0.3 0.3"/>
<path opacity="0.7" d="M95.7666 197.51L216.084 71.9548" stroke="#969696" stroke-width="2" stroke-miterlimit="10" stroke-linecap="round" stroke-linejoin="round" stroke-dasharray="0.3 0.3"/>
<path opacity="0.7" d="M99.9292 202.532L221.873 75.2446" stroke="#969696" stroke-width="2" stroke-miterlimit="10" stroke-linecap="round" stroke-linejoin="round" stroke-dasharray="0.3 0.3"/>
<path opacity="0.7" d="M104.101 207.545L228.958 77.1514" stroke="#969696" stroke-width="2" stroke-miterlimit="10" stroke-linecap="round" stroke-linejoin="round" stroke-dasharray="0.3 0.3"/>
<path opacity="0.7" d="M108.407 212.42L234.72 80.4688" stroke="#969696" stroke-width="2" stroke-miterlimit="10" stroke-linecap="round" stroke-linejoin="round" stroke-dasharray="0.3 0.3"/>
<path opacity="0.7" d="M112.202 217.832L239.521 84.8108" stroke="#969696" stroke-width="2" stroke-miterlimit="10" stroke-linecap="round" stroke-linejoin="round" stroke-dasharray="0.3 0.3"/>
<path opacity="0.7" d="M116.512 222.703L244.934 88.5049" stroke="#969696" stroke-width="2" stroke-miterlimit="10" stroke-linecap="round" stroke-linejoin="round" stroke-dasharray="0.3 0.3"/>
<path opacity="0.7" d="M121.088 227.284L250.264 92.2819" stroke="#969696" stroke-width="2" stroke-miterlimit="10" stroke-linecap="round" stroke-linejoin="round" stroke-dasharray="0.3 0.3"/>
<path opacity="0.7" d="M124.943 232.641L249.556 102.505" stroke="#969696" stroke-width="2" stroke-miterlimit="10" stroke-linecap="round" stroke-linejoin="round" stroke-dasharray="0.3 0.3"/>
</g>
</g>
<path d="M166.852 46.569C168.123 46.569 169.153 45.5384 169.153 44.267C169.153 42.9957 168.123 41.9651 166.852 41.9651C165.58 41.9651 164.55 42.9957 164.55 44.267C164.55 45.5384 165.58 46.569 166.852 46.569Z" fill="url(#paint0_linear_52_310)"/>
<path d="M166.851 48.2093C169.028 48.2093 170.793 46.4443 170.793 44.267C170.793 42.0898 169.028 40.3248 166.851 40.3248C164.674 40.3248 162.909 42.0898 162.909 44.267C162.909 46.4443 164.674 48.2093 166.851 48.2093Z" stroke="url(#paint1_linear_52_310)" stroke-miterlimit="10"/>
<path d="M116.833 157.711C116.833 159.25 115.583 160.5 114.044 160.5C112.505 160.5 111.255 159.25 111.255 157.711C111.255 156.171 112.505 154.922 114.044 154.922C115.583 154.922 116.833 156.167 116.833 157.711Z" stroke="url(#paint2_linear_52_310)" stroke-miterlimit="10"/>
<path d="M177.971 56.6958C181.006 56.6958 183.466 54.2355 183.466 51.2005C183.466 48.1655 181.006 45.7052 177.971 45.7052C174.936 45.7052 172.475 48.1655 172.475 51.2005C172.475 54.2355 174.936 56.6958 177.971 56.6958Z" fill="url(#paint3_linear_52_310)"/>
<path d="M22.8712 110.757C22.8712 112.163 21.7317 113.303 20.3258 113.303C18.9198 113.303 17.7803 112.163 17.7803 110.757C17.7803 109.351 18.9198 108.212 20.3258 108.212C21.7317 108.212 22.8712 109.351 22.8712 110.757Z" fill="url(#paint4_linear_52_310)"/>
<path d="M150.342 37.9309L154.441 33.0468" stroke="url(#paint5_linear_52_310)" stroke-miterlimit="10"/>
<path d="M151.601 38.9831L158.038 31.3145" stroke="url(#paint6_linear_52_310)" stroke-miterlimit="10"/>
<path d="M150.342 43.0402L156.954 35.1557" stroke="url(#paint7_linear_52_310)" stroke-miterlimit="10"/>
<path d="M25.311 94.7951L29.4049 89.9109" stroke="url(#paint8_linear_52_310)" stroke-miterlimit="10"/>
<path d="M26.5654 95.8519L33.0026 88.1787" stroke="url(#paint9_linear_52_310)" stroke-miterlimit="10"/>
<path d="M25.311 99.9044L31.9182 92.0199" stroke="url(#paint10_linear_52_310)" stroke-miterlimit="10"/>
<path d="M161.939 122.129L167.168 115.889" stroke="url(#paint11_linear_52_310)" stroke-miterlimit="10"/>
<path d="M163.543 123.475L171.763 113.675" stroke="url(#paint12_linear_52_310)" stroke-miterlimit="10"/>
<path d="M161.939 128.654L170.385 118.587" stroke="url(#paint13_linear_52_310)" stroke-miterlimit="10"/>
<g opacity="0.5">
<path opacity="0.5" d="M153.458 13.2067L147.319 20.0483" stroke="url(#paint14_linear_52_310)" stroke-miterlimit="10"/>
<path opacity="0.5" d="M155.218 14.7874L145.578 25.5344" stroke="url(#paint15_linear_52_310)" stroke-miterlimit="10"/>
<path opacity="0.5" d="M160.749 12.1683L150.843 23.2094" stroke="url(#paint16_linear_52_310)" stroke-miterlimit="10"/>
</g>
<path d="M22.8713 119.161L30.6594 109.875" stroke="url(#paint17_linear_52_310)" stroke-miterlimit="10"/>
<path d="M25.2605 121.164L37.4962 106.581" stroke="url(#paint18_linear_52_310)" stroke-miterlimit="10"/>
<path d="M22.8713 128.874L35.4379 113.886" stroke="url(#paint19_linear_52_310)" stroke-miterlimit="10"/>
<path d="M37.4963 99.0223C38.3414 99.0223 39.0264 98.3373 39.0264 97.4922C39.0264 96.6472 38.3414 95.9622 37.4963 95.9622C36.6513 95.9622 35.9663 96.6472 35.9663 97.4922C35.9663 98.3373 36.6513 99.0223 37.4963 99.0223Z" fill="white"/>
<path d="M38.5025 129.618C38.5025 130.464 37.8179 131.149 36.9724 131.149C36.127 131.149 35.4424 130.464 35.4424 129.618C35.4424 128.773 36.127 128.088 36.9724 128.088C37.8179 128.088 38.5025 128.773 38.5025 129.618Z" fill="white"/>
<path d="M30.4894 55.4138C30.4894 55.8044 30.1724 56.1214 29.7818 56.1214C29.3913 56.1214 29.0742 55.8044 29.0742 55.4138C29.0742 55.0233 29.3913 54.7062 29.7818 54.7062C30.1724 54.7108 30.4894 55.0233 30.4894 55.4138Z" fill="white"/>
<path d="M166.162 75.8649C166.553 75.8649 166.87 75.5481 166.87 75.1573C166.87 74.7665 166.553 74.4497 166.162 74.4497C165.771 74.4497 165.455 74.7665 165.455 75.1573C165.455 75.5481 165.771 75.8649 166.162 75.8649Z" fill="white"/>
<path d="M173.178 138.845C173.178 139.235 172.861 139.552 172.471 139.552C172.08 139.552 171.763 139.235 171.763 138.845C171.763 138.454 172.08 138.137 172.471 138.137C172.861 138.142 173.178 138.454 173.178 138.845Z" fill="white"/>
<path d="M22.8714 45.7971C23.7164 45.7971 24.4014 45.1121 24.4014 44.267C24.4014 43.422 23.7164 42.737 22.8714 42.737C22.0263 42.737 21.3413 43.422 21.3413 44.267C21.3413 45.1121 22.0263 45.7971 22.8714 45.7971Z" fill="white"/>
<path d="M64.5315 146.008C64.5315 146.853 63.8469 147.538 63.0015 147.538C62.1561 147.538 61.4714 146.853 61.4714 146.008C61.4714 145.162 62.1561 144.478 63.0015 144.478C63.8469 144.478 64.5315 145.162 64.5315 146.008Z" fill="white"/>
<path d="M163.469 145.084C163.469 145.93 162.785 146.614 161.939 146.614C161.094 146.614 160.409 145.93 160.409 145.084C160.409 144.239 161.094 143.554 161.939 143.554C162.785 143.554 163.469 144.239 163.469 145.084Z" fill="white"/>
<path d="M189.664 99.9044C189.664 100.75 188.979 101.434 188.134 101.434C187.289 101.434 186.604 100.75 186.604 99.9044C186.604 99.059 187.289 98.3744 188.134 98.3744C188.979 98.3698 189.664 99.059 189.664 99.9044Z" fill="white"/>
<path d="M5.75587 78.925C6.60089 78.925 7.28591 78.2399 7.28591 77.3949C7.28591 76.5499 6.60089 75.8649 5.75587 75.8649C4.91085 75.8649 4.22583 76.5499 4.22583 77.3949C4.22583 78.2399 4.91085 78.925 5.75587 78.925Z" fill="white"/>
<path d="M49.0288 147.57L53.256 149.288L55.1582 142.718L49.0288 147.57Z" fill="#FF7E3D"/>
<path d="M37.4963 142.084L40.9332 150.86L54.1246 139.309L37.4963 142.084Z" fill="url(#paint20_linear_52_310)"/>
<path d="M186.397 69.832L184.555 79.0766L169.539 70.0204L186.397 69.832Z" fill="#FF7E3D"/>
<path d="M34.7668 34.6779L29.175 38.5971L35.9017 42.0754L34.7668 34.6779Z" fill="#FF7E3D"/>
<path d="M171.8 85.353L165.445 82.8581L166.263 90.3842L171.8 85.353Z" fill="url(#paint21_linear_52_310)"/>
<path d="M113.571 18.3804C107.391 14.9435 99.7365 12.6829 92.7158 14.6954C87.2664 16.2576 83.1542 20.3285 80.0481 24.914C76.5516 30.0739 74.0888 35.8587 71.479 41.4964C69.88 44.947 68.1386 48.2644 65.8045 51.2877C63.2958 54.5408 60.3092 57.4263 56.9781 59.8247C53.532 62.3013 49.7368 64.2356 45.7118 65.5727C41.1217 67.0981 36.3524 67.9436 31.6428 69.0095C23.9007 70.7693 15.69 73.5032 10.622 80.0185C8.37976 82.8994 7.0473 86.3913 6.98756 90.0533C6.92324 93.8118 8.12706 97.5152 10.0247 100.731C14.3299 108.042 21.8147 112.223 29.6257 114.902C37.9881 117.769 46.8146 119.133 55.0023 122.533C59.0916 124.233 63.0063 126.462 66.2502 129.508C69.4665 132.531 71.9523 136.212 74.1623 140.007C78.3297 147.175 81.6839 154.99 87.6892 160.885C90.4598 163.606 93.7726 165.806 97.5127 166.928C101.271 168.049 105.287 168.049 109.105 167.235C127.048 163.408 135.033 145.328 142.265 130.482C146.309 122.184 150.793 114.107 157.607 107.743C164.187 101.6 172.039 96.9132 178.173 90.2785C183.622 84.388 187.721 76.8435 186.76 68.5868C185.846 60.7391 180.962 53.7964 174.97 48.8847C168.069 43.2286 159.532 39.9204 151.243 36.8787C146.796 35.2476 142.293 33.7267 137.974 31.7694C133.71 29.835 129.611 27.5698 125.563 25.2265C123.629 24.1054 121.708 22.9659 119.779 21.8356C117.729 20.6364 115.602 19.598 113.53 18.4447C113.369 18.3528 113.222 18.6009 113.383 18.6928C115.45 19.8415 117.417 21.1785 119.457 22.3778C121.387 23.5081 123.307 24.6476 125.242 25.7687C129.198 28.0614 133.204 30.2761 137.363 32.1783C145.61 35.9552 154.423 38.3214 162.647 42.1626C170.316 45.7419 177.53 50.548 182.134 57.8168C184.247 61.1526 185.754 64.9202 186.168 68.8625C186.6 72.9748 185.773 77.087 184.017 80.8134C180.342 88.6198 173.491 94.1886 166.824 99.3668C163.286 102.114 159.711 104.839 156.481 107.95C153.357 110.955 150.669 114.35 148.335 117.998C143.575 125.437 140.244 133.653 136.159 141.459C132.171 149.077 127.291 156.704 120.114 161.694C113.484 166.303 104.749 168.775 96.8878 166.073C89.1503 163.413 84.0364 156.369 80.14 149.55C76.0048 142.309 72.5679 134.365 66.2594 128.677C60.029 123.062 51.8366 120.406 43.8877 118.283C35.4886 116.041 26.7173 114.203 19.3106 109.415C12.7769 105.193 7.34595 97.8873 7.60325 89.8052C7.86056 81.6174 14.477 75.8603 21.4793 72.7726C29.883 69.0647 39.3114 68.7384 47.8576 65.4486C55.0161 62.6918 61.3614 57.9409 66.0802 51.9034C70.2706 46.546 72.6323 40.1639 75.5775 34.0989C78.1184 28.8655 80.9993 23.4989 85.3596 19.5382C89.8625 15.4443 95.6426 13.9005 101.634 14.7367C105.765 15.3111 109.693 16.7814 113.346 18.7709C113.594 18.895 113.815 18.5182 113.571 18.3804Z" fill="url(#paint22_linear_52_310)"/>
<g opacity="0.4248">
<path opacity="0.4248" d="M115.96 5.07409C108.894 1.14561 100.136 -1.43662 92.1092 0.86993C85.8834 2.65727 81.183 7.31173 77.6358 12.5497C73.6338 18.4585 70.8173 25.0795 67.8261 31.5305C65.9928 35.4865 63.9987 39.2818 61.3292 42.7462C58.4575 46.4725 55.0344 49.7853 51.2116 52.5283C47.2648 55.3679 42.9136 57.5825 38.3051 59.1126C33.0533 60.8586 27.5902 61.8234 22.2006 63.0502C13.3466 65.0627 3.95036 68.1871 -1.84817 75.6398C-4.40743 78.9296 -5.92368 82.9178 -5.9972 87.099C-6.07071 91.395 -4.6923 95.6222 -2.52819 99.2979C2.39276 107.656 10.9527 112.439 19.8848 115.499C29.4602 118.78 39.564 120.342 48.9372 124.233C53.6284 126.182 58.1175 128.736 61.8346 132.228C65.5196 135.688 68.3683 139.906 70.9 144.257C75.6647 152.459 79.5059 161.405 86.3796 168.15C89.5453 171.26 93.3268 173.774 97.6045 175.056C101.901 176.338 106.486 176.338 110.851 175.409C131.376 171.031 140.51 150.341 148.785 133.354C153.416 123.852 158.549 114.598 166.36 107.311C173.895 100.281 182.882 94.9146 189.903 87.3195C196.134 80.5837 200.82 71.9594 199.717 62.5172C198.67 53.5484 193.083 45.6087 186.232 39.9939C178.338 33.5246 168.57 29.7385 159.091 26.2603C153.995 24.3903 148.836 22.6489 143.887 20.4067C139.007 18.192 134.312 15.6006 129.68 12.9127C127.466 11.6308 125.265 10.3259 123.059 9.03015C120.716 7.65633 118.29 6.44791 115.919 5.12923C115.758 5.03733 115.611 5.28545 115.772 5.37735C118.138 6.69143 120.403 8.2031 122.742 9.57232C124.948 10.868 127.153 12.1683 129.363 13.4549C133.889 16.0784 138.474 18.6147 143.235 20.7926C152.677 25.1162 162.767 27.8225 172.181 32.2197C180.966 36.3228 189.228 41.8272 194.507 50.1529C196.928 53.9757 198.656 58.2993 199.129 62.8205C199.626 67.5393 198.674 72.2488 196.657 76.5265C192.444 85.4678 184.601 91.8453 176.969 97.7771C172.916 100.924 168.827 104.04 165.128 107.601C161.554 111.037 158.48 114.925 155.81 119.097C150.361 127.615 146.547 137.021 141.87 145.957C137.298 154.687 131.711 163.422 123.486 169.138C115.887 174.417 105.87 177.252 96.8601 174.15C87.9923 171.1 82.1249 163.031 77.6588 155.211C72.9262 146.927 68.9932 137.834 61.7749 131.323C54.6485 124.9 45.2752 121.863 36.1823 119.437C26.5656 116.868 16.5169 114.759 8.03966 109.282C0.550275 104.444 -5.67557 96.0633 -5.3861 86.7957C-5.09204 77.4087 2.49384 70.8015 10.5208 67.259C20.1421 63.0135 30.9443 62.6413 40.7311 58.869C48.9143 55.7171 56.1739 50.2769 61.5727 43.3757C66.3696 37.2417 69.0713 29.9407 72.4392 23.0027C75.3523 17.0066 78.6513 10.8634 83.6457 6.32386C88.8148 1.62806 95.4404 -0.140911 102.319 0.82398C107.051 1.48562 111.549 3.16729 115.731 5.45086C115.988 5.58411 116.208 5.20734 115.96 5.07409Z" fill="url(#paint23_linear_52_310)"/>
</g>
<path d="M149.217 108.974C154.629 103.125 161.476 98.9257 167.384 93.6326C172.535 89.0195 177.268 83.1567 178.425 76.1497C179.537 69.3863 176.909 62.7332 172.668 57.5365C167.945 51.7472 161.37 47.9887 154.597 45.0665C147.195 41.8731 139.38 39.6998 132.12 36.1711C124.888 32.6515 118.244 28.0936 111.117 24.3949C105.719 21.5921 99.0885 19.8782 93.0832 21.6105C88.4609 22.9429 84.877 26.2695 82.1294 30.1015C78.9912 34.4757 76.7811 39.4471 74.5435 44.3129C73.2616 47.1065 72.0072 49.9093 70.321 52.4915C68.4325 55.377 66.149 58.0006 63.5621 60.2796C60.911 62.6183 57.9336 64.5848 54.7449 66.1057C51.0737 67.8563 47.1268 68.8809 43.1708 69.7585C35.9755 71.3528 28.4769 72.6394 22.4348 77.1698C19.8939 79.0766 17.6977 81.5026 16.4157 84.4386C15.1338 87.37 14.8765 90.6185 15.5244 93.7429C16.9166 100.442 21.8329 105.836 27.636 109.163C40.7494 116.684 58.1633 115.393 69.4296 126.375C74.8973 131.704 77.8609 138.881 81.6745 145.355C85.0608 151.108 89.4212 156.828 95.7941 159.415C102.296 162.057 109.702 160.679 115.689 157.361C122.163 153.777 126.905 147.859 130.627 141.592C131.564 140.012 132.446 138.404 133.292 136.772C134.165 135.095 134.835 133.34 135.658 131.64C135.736 131.475 135.492 131.328 135.41 131.493C134.596 133.179 133.613 134.792 132.749 136.451C131.881 138.119 130.98 139.773 130.016 141.39C128.118 144.574 125.991 147.63 123.473 150.354C118.616 155.611 112.069 159.562 104.813 160.123C101.326 160.394 97.8065 159.801 94.6684 158.23C91.6037 156.695 89.0215 154.375 86.8344 151.76C82.2259 146.251 79.469 139.552 75.7197 133.483C73.8543 130.464 71.7224 127.578 69.0804 125.194C66.4246 122.795 63.314 120.957 60.0518 119.519C53.3481 116.56 46.1114 115.228 39.1182 113.146C32.1526 111.074 25.0722 108.111 20.3994 102.303C16.1676 97.0419 14.1597 89.7087 17.5782 83.5013C20.8956 77.4776 27.636 74.2705 33.9951 72.5199C41.434 70.4707 49.2312 69.6942 56.1692 66.0965C62.0229 63.064 67.0817 58.5106 70.7207 53.0153C73.8267 48.3287 75.7427 42.9161 78.2606 37.9079C80.4845 33.4924 83.0529 29.0171 86.839 25.7457C90.7629 22.3548 95.7206 21.0729 100.834 21.7161C108.466 22.6718 114.917 27.2252 121.4 31.0112C124.814 33.0054 128.256 34.9627 131.817 36.6903C135.249 38.3582 138.787 39.7136 142.371 41.0139C155.705 45.8706 171.97 51.4807 176.987 66.3216C178.095 69.5931 178.421 73.0942 177.773 76.4943C177.111 79.9587 175.535 83.175 173.509 86.0422C169.181 92.1807 163.006 96.5273 157.198 101.14C154.271 103.465 151.422 105.891 148.909 108.662C148.721 108.873 149.028 109.181 149.217 108.974Z" fill="url(#paint24_linear_52_310)"/>
</g>
<defs>
<linearGradient id="paint0_linear_52_310" x1="164.552" y1="44.2689" x2="169.151" y2="44.2689" gradientUnits="userSpaceOnUse">
<stop offset="0.0277" stop-color="#FFD24D"/>
<stop offset="0.7154" stop-color="#F6BE56"/>
<stop offset="1" stop-color="#F2B45A"/>
</linearGradient>
<linearGradient id="paint1_linear_52_310" x1="162.678" y1="44.2689" x2="171.024" y2="44.2689" gradientUnits="userSpaceOnUse">
<stop offset="0.0277" stop-color="#FFD24D"/>
<stop offset="0.7154" stop-color="#F6BE56"/>
<stop offset="1" stop-color="#F2B45A"/>
</linearGradient>
<linearGradient id="paint2_linear_52_310" x1="111.024" y1="157.709" x2="117.061" y2="157.709" gradientUnits="userSpaceOnUse">
<stop offset="0.0277" stop-color="#FFD24D"/>
<stop offset="0.7154" stop-color="#F6BE56"/>
<stop offset="1" stop-color="#F2B45A"/>
</linearGradient>
<linearGradient id="paint3_linear_52_310" x1="172.473" y1="51.2025" x2="183.467" y2="51.2025" gradientUnits="userSpaceOnUse">
<stop offset="0.0277" stop-color="#FFD24D"/>
<stop offset="0.7154" stop-color="#F6BE56"/>
<stop offset="1" stop-color="#F2B45A"/>
</linearGradient>
<linearGradient id="paint4_linear_52_310" x1="17.7838" y1="110.756" x2="22.871" y2="110.756" gradientUnits="userSpaceOnUse">
<stop offset="0.0277" stop-color="#FFD24D"/>
<stop offset="0.7154" stop-color="#F6BE56"/>
<stop offset="1" stop-color="#F2B45A"/>
</linearGradient>
<linearGradient id="paint5_linear_52_310" x1="149.986" y1="35.6991" x2="154.799" y2="35.2773" gradientUnits="userSpaceOnUse">
<stop offset="0.0277" stop-color="#FFD24D"/>
<stop offset="0.7154" stop-color="#F6BE56"/>
<stop offset="1" stop-color="#F2B45A"/>
</linearGradient>
<linearGradient id="paint6_linear_52_310" x1="151.131" y1="35.4721" x2="158.508" y2="34.8256" gradientUnits="userSpaceOnUse">
<stop offset="0.0277" stop-color="#FFD24D"/>
<stop offset="0.7154" stop-color="#F6BE56"/>
<stop offset="1" stop-color="#F2B45A"/>
</linearGradient>
<linearGradient id="paint7_linear_52_310" x1="149.865" y1="39.4292" x2="157.435" y2="38.7658" gradientUnits="userSpaceOnUse">
<stop offset="0.0277" stop-color="#FFD24D"/>
<stop offset="0.7154" stop-color="#F6BE56"/>
<stop offset="1" stop-color="#F2B45A"/>
</linearGradient>
<linearGradient id="paint8_linear_52_310" x1="25.1329" y1="92.3532" x2="29.581" y2="92.3532" gradientUnits="userSpaceOnUse">
<stop offset="0.0277" stop-color="#FFD24D"/>
<stop offset="0.1674" stop-color="#EBC34D"/>
<stop offset="0.4544" stop-color="#B69D4D"/>
<stop offset="0.8604" stop-color="#625F4E"/>
<stop offset="1" stop-color="#44494E"/>
</linearGradient>
<linearGradient id="paint9_linear_52_310" x1="26.3907" y1="92.0138" x2="33.1779" y2="92.0138" gradientUnits="userSpaceOnUse">
<stop offset="0.0277" stop-color="#FFD24D"/>
<stop offset="0.1674" stop-color="#EBC34D"/>
<stop offset="0.4544" stop-color="#B69D4D"/>
<stop offset="0.8604" stop-color="#625F4E"/>
<stop offset="1" stop-color="#44494E"/>
</linearGradient>
<linearGradient id="paint10_linear_52_310" x1="25.1329" y1="95.9626" x2="32.0965" y2="95.9626" gradientUnits="userSpaceOnUse">
<stop offset="0.0277" stop-color="#FFD24D"/>
<stop offset="0.1674" stop-color="#EBC34D"/>
<stop offset="0.4544" stop-color="#B69D4D"/>
<stop offset="0.8604" stop-color="#625F4E"/>
<stop offset="1" stop-color="#44494E"/>
</linearGradient>
<linearGradient id="paint11_linear_52_310" x1="161.524" y1="119.275" x2="167.583" y2="118.744" gradientUnits="userSpaceOnUse">
<stop offset="0.0277" stop-color="#FFD24D"/>
<stop offset="0.7154" stop-color="#F6BE56"/>
<stop offset="1" stop-color="#F2B45A"/>
</linearGradient>
<linearGradient id="paint12_linear_52_310" x1="162.987" y1="118.985" x2="172.321" y2="118.167" gradientUnits="userSpaceOnUse">
<stop offset="0.0277" stop-color="#FFD24D"/>
<stop offset="0.7154" stop-color="#F6BE56"/>
<stop offset="1" stop-color="#F2B45A"/>
</linearGradient>
<linearGradient id="paint13_linear_52_310" x1="161.37" y1="124.04" x2="170.95" y2="123.2" gradientUnits="userSpaceOnUse">
<stop offset="0.0277" stop-color="#FFD24D"/>
<stop offset="0.7154" stop-color="#F6BE56"/>
<stop offset="1" stop-color="#F2B45A"/>
</linearGradient>
<linearGradient id="paint14_linear_52_310" x1="150.204" y1="13.2221" x2="150.573" y2="20.0355" gradientUnits="userSpaceOnUse">
<stop offset="0.0277" stop-color="#FFD24D"/>
<stop offset="0.7154" stop-color="#F6BE56"/>
<stop offset="1" stop-color="#F2B45A"/>
</linearGradient>
<linearGradient id="paint15_linear_52_310" x1="150.113" y1="14.9035" x2="150.683" y2="25.4226" gradientUnits="userSpaceOnUse">
<stop offset="0.0277" stop-color="#FFD24D"/>
<stop offset="0.7154" stop-color="#F6BE56"/>
<stop offset="1" stop-color="#F2B45A"/>
</linearGradient>
<linearGradient id="paint16_linear_52_310" x1="155.504" y1="12.291" x2="156.089" y2="23.0894" gradientUnits="userSpaceOnUse">
<stop offset="0.0277" stop-color="#FFD24D"/>
<stop offset="0.7154" stop-color="#F6BE56"/>
<stop offset="1" stop-color="#F2B45A"/>
</linearGradient>
<linearGradient id="paint17_linear_52_310" x1="22.3352" y1="114.906" x2="31.1936" y2="114.13" gradientUnits="userSpaceOnUse">
<stop offset="0.0277" stop-color="#FFD24D"/>
<stop offset="0.1674" stop-color="#EBC34D"/>
<stop offset="0.4544" stop-color="#B69D4D"/>
<stop offset="0.8604" stop-color="#625F4E"/>
<stop offset="1" stop-color="#44494E"/>
</linearGradient>
<linearGradient id="paint18_linear_52_310" x1="24.5126" y1="114.475" x2="38.245" y2="113.271" gradientUnits="userSpaceOnUse">
<stop offset="0.0277" stop-color="#FFD24D"/>
<stop offset="0.1674" stop-color="#EBC34D"/>
<stop offset="0.4544" stop-color="#B69D4D"/>
<stop offset="0.8604" stop-color="#625F4E"/>
<stop offset="1" stop-color="#44494E"/>
</linearGradient>
<linearGradient id="paint19_linear_52_310" x1="22.1056" y1="121.998" x2="36.2054" y2="120.762" gradientUnits="userSpaceOnUse">
<stop offset="0.0277" stop-color="#FFD24D"/>
<stop offset="0.1674" stop-color="#EBC34D"/>
<stop offset="0.4544" stop-color="#B69D4D"/>
<stop offset="0.8604" stop-color="#625F4E"/>
<stop offset="1" stop-color="#44494E"/>
</linearGradient>
<linearGradient id="paint20_linear_52_310" x1="37.4957" y1="145.085" x2="54.1246" y2="145.085" gradientUnits="userSpaceOnUse">
<stop offset="0.0277" stop-color="#FFD24D"/>
<stop offset="0.7154" stop-color="#FFBE56"/>
<stop offset="1" stop-color="#FFB45A"/>
</linearGradient>
<linearGradient id="paint21_linear_52_310" x1="164.671" y1="83.6614" x2="169.209" y2="88.0388" gradientUnits="userSpaceOnUse">
<stop offset="0.0277" stop-color="#FFD24D"/>
<stop offset="0.7154" stop-color="#F6BE56"/>
<stop offset="1" stop-color="#F2B45A"/>
</linearGradient>
<linearGradient id="paint22_linear_52_310" x1="17.1823" y1="121.579" x2="184.561" y2="60.6584" gradientUnits="userSpaceOnUse">
<stop offset="0.0277" stop-color="#FFD24D"/>
<stop offset="0.0356" stop-color="#F7CC4C"/>
<stop offset="0.0797" stop-color="#CEAE4A"/>
<stop offset="0.1292" stop-color="#A89348"/>
<stop offset="0.1831" stop-color="#887B45"/>
<stop offset="0.2427" stop-color="#6C6744"/>
<stop offset="0.3099" stop-color="#565742"/>
<stop offset="0.3884" stop-color="#454B41"/>
<stop offset="0.4856" stop-color="#3A4241"/>
<stop offset="0.6218" stop-color="#333D40"/>
<stop offset="1" stop-color="#313C40"/>
</linearGradient>
<linearGradient id="paint23_linear_52_310" x1="-5.99775" y1="88.0351" x2="199.882" y2="88.0351" gradientUnits="userSpaceOnUse">
<stop stop-color="#5C5A44"/>
<stop offset="0.6103" stop-color="#3F4541"/>
<stop offset="1" stop-color="#313C40"/>
</linearGradient>
<linearGradient id="paint24_linear_52_310" x1="57.736" y1="41.5365" x2="145.356" y2="129.156" gradientUnits="userSpaceOnUse">
<stop stop-color="#313C40"/>
<stop offset="0.251" stop-color="#333E40"/>
<stop offset="0.397" stop-color="#3C4441"/>
<stop offset="0.5161" stop-color="#4A4E42"/>
<stop offset="0.6208" stop-color="#5E5D43"/>
<stop offset="0.716" stop-color="#786F44"/>
<stop offset="0.8042" stop-color="#988746"/>
<stop offset="0.8873" stop-color="#BDA249"/>
<stop offset="0.964" stop-color="#E8C14C"/>
<stop offset="1" stop-color="#FFD24D"/>
</linearGradient>
</defs>
</svg>
