<svg width="259" height="325" viewBox="0 0 259 325" fill="none" xmlns="http://www.w3.org/2000/svg">
<g opacity="0.4">
<path d="M102.042 181.133C101.863 181.481 101.436 181.618 101.089 181.439C100.742 181.26 100.605 180.834 100.783 180.486C100.962 180.139 101.389 180.002 101.736 180.18C102.081 180.363 102.22 180.786 102.042 181.133Z" fill="white"/>
<path d="M224.623 67.437C224.971 67.6156 225.397 67.4787 225.576 67.1311C225.755 66.7835 225.618 66.357 225.27 66.1783C224.923 65.9997 224.496 66.1366 224.317 66.4842C224.139 66.8317 224.276 67.2583 224.623 67.437Z" fill="white"/>
<g opacity="0.7">
<path opacity="0.7" d="M79.7298 107.62L218.2 60.2245" stroke="#969696" stroke-width="2" stroke-miterlimit="10" stroke-linecap="round" stroke-linejoin="round" stroke-dasharray="0.3 0.3"/>
<path opacity="0.7" d="M76.5212 115.642L223.776 65.1055" stroke="#969696" stroke-width="2" stroke-miterlimit="10" stroke-linecap="round" stroke-linejoin="round" stroke-dasharray="0.3 0.3"/>
<path opacity="0.7" d="M76.6814 122.455L228.143 70.4187" stroke="#969696" stroke-width="2" stroke-miterlimit="10" stroke-linecap="round" stroke-linejoin="round" stroke-dasharray="0.3 0.3"/>
<path opacity="0.7" d="M78.6679 128.622L233.546 75.3656" stroke="#969696" stroke-width="2" stroke-miterlimit="10" stroke-linecap="round" stroke-linejoin="round" stroke-dasharray="0.3 0.3"/>
<path opacity="0.7" d="M79.2574 135.284L239.033 80.2784" stroke="#969696" stroke-width="2" stroke-miterlimit="10" stroke-linecap="round" stroke-linejoin="round" stroke-dasharray="0.3 0.3"/>
<path opacity="0.7" d="M80.7136 141.638L245.121 84.978" stroke="#969696" stroke-width="2" stroke-miterlimit="10" stroke-linecap="round" stroke-linejoin="round" stroke-dasharray="0.3 0.3"/>
<path opacity="0.7" d="M82.1242 148.01L248.769 90.5464" stroke="#969696" stroke-width="2" stroke-miterlimit="10" stroke-linecap="round" stroke-linejoin="round" stroke-dasharray="0.3 0.3"/>
<path opacity="0.7" d="M83.5432 154.375L254.198 95.4812" stroke="#969696" stroke-width="2" stroke-miterlimit="10" stroke-linecap="round" stroke-linejoin="round" stroke-dasharray="0.3 0.3"/>
<path opacity="0.7" d="M85.1395 160.677L257.806 101.066" stroke="#969696" stroke-width="2" stroke-miterlimit="10" stroke-linecap="round" stroke-linejoin="round" stroke-dasharray="0.3 0.3"/>
<path opacity="0.7" d="M86.0427 167.232L260.086 107.124" stroke="#969696" stroke-width="2" stroke-miterlimit="10" stroke-linecap="round" stroke-linejoin="round" stroke-dasharray="0.3 0.3"/>
<path opacity="0.7" d="M87.6517 173.53L263.213 112.88" stroke="#969696" stroke-width="2" stroke-miterlimit="10" stroke-linecap="round" stroke-linejoin="round" stroke-dasharray="0.3 0.3"/>
<path opacity="0.7" d="M89.6214 179.698L266.231 118.678" stroke="#969696" stroke-width="2" stroke-miterlimit="10" stroke-linecap="round" stroke-linejoin="round" stroke-dasharray="0.3 0.3"/>
<path opacity="0.7" d="M90.603 186.221L260.924 127.445" stroke="#969696" stroke-width="2" stroke-miterlimit="10" stroke-linecap="round" stroke-linejoin="round" stroke-dasharray="0.3 0.3"/>
</g>
<g opacity="0.7">
<g opacity="0.7">
<path opacity="0.7" d="M105.583 188.166L244.057 140.772" stroke="#969696" stroke-width="2" stroke-miterlimit="10" stroke-linecap="round" stroke-linejoin="round" stroke-dasharray="0.3 0.3"/>
<path opacity="0.7" d="M102.374 196.187L249.633 145.653" stroke="#969696" stroke-width="2" stroke-miterlimit="10" stroke-linecap="round" stroke-linejoin="round" stroke-dasharray="0.3 0.3"/>
<path opacity="0.7" d="M102.538 203.003L254 150.967" stroke="#969696" stroke-width="2" stroke-miterlimit="10" stroke-linecap="round" stroke-linejoin="round" stroke-dasharray="0.3 0.3"/>
<path opacity="0.7" d="M104.521 209.168L259.401 155.907" stroke="#969696" stroke-width="2" stroke-miterlimit="10" stroke-linecap="round" stroke-linejoin="round" stroke-dasharray="0.3 0.3"/>
<path opacity="0.7" d="M105.117 215.828L264.889 160.82" stroke="#969696" stroke-width="2" stroke-miterlimit="10" stroke-linecap="round" stroke-linejoin="round" stroke-dasharray="0.3 0.3"/>
<path opacity="0.7" d="M106.57 222.186L270.976 165.52" stroke="#969696" stroke-width="2" stroke-miterlimit="10" stroke-linecap="round" stroke-linejoin="round" stroke-dasharray="0.3 0.3"/>
<path opacity="0.7" d="M107.977 228.555L274.621 171.092" stroke="#969696" stroke-width="2" stroke-miterlimit="10" stroke-linecap="round" stroke-linejoin="round" stroke-dasharray="0.3 0.3"/>
<path opacity="0.7" d="M109.396 234.921L280.051 176.027" stroke="#969696" stroke-width="2" stroke-miterlimit="10" stroke-linecap="round" stroke-linejoin="round" stroke-dasharray="0.3 0.3"/>
<path opacity="0.7" d="M110.996 241.225L283.659 181.611" stroke="#969696" stroke-width="2" stroke-miterlimit="10" stroke-linecap="round" stroke-linejoin="round" stroke-dasharray="0.3 0.3"/>
<path opacity="0.7" d="M111.897 247.774L285.944 187.668" stroke="#969696" stroke-width="2" stroke-miterlimit="10" stroke-linecap="round" stroke-linejoin="round" stroke-dasharray="0.3 0.3"/>
<path opacity="0.7" d="M113.504 254.076L289.07 193.428" stroke="#969696" stroke-width="2" stroke-miterlimit="10" stroke-linecap="round" stroke-linejoin="round" stroke-dasharray="0.3 0.3"/>
<path opacity="0.7" d="M115.48 260.242L292.084 199.224" stroke="#969696" stroke-width="2" stroke-miterlimit="10" stroke-linecap="round" stroke-linejoin="round" stroke-dasharray="0.3 0.3"/>
<path opacity="0.7" d="M116.46 266.769L286.781 207.993" stroke="#969696" stroke-width="2" stroke-miterlimit="10" stroke-linecap="round" stroke-linejoin="round" stroke-dasharray="0.3 0.3"/>
</g>
</g>
<path d="M238.794 120.436C239.925 121.017 241.313 120.571 241.894 119.441C242.475 118.31 242.03 116.922 240.899 116.341C239.768 115.76 238.38 116.205 237.799 117.336C237.218 118.467 237.664 119.854 238.794 120.436Z" fill="url(#paint0_linear_52_411)"/>
<path d="M238.044 121.894C239.981 122.89 242.357 122.127 243.353 120.19C244.348 118.254 243.585 115.877 241.649 114.882C239.712 113.887 237.335 114.65 236.34 116.586C235.345 118.523 236.108 120.899 238.044 121.894Z" stroke="url(#paint1_linear_52_411)" stroke-miterlimit="10"/>
<path d="M143.501 196.419C142.797 197.788 141.115 198.328 139.746 197.625C138.377 196.921 137.836 195.238 138.54 193.869C139.244 192.5 140.926 191.96 142.295 192.664C143.664 193.367 144.207 195.046 143.501 196.419Z" stroke="url(#paint2_linear_52_411)" stroke-miterlimit="10"/>
<path d="M244.054 134.525C246.753 135.913 250.066 134.849 251.454 132.15C252.841 129.451 251.778 126.138 249.078 124.75C246.379 123.363 243.066 124.426 241.679 127.126C240.291 129.825 241.355 133.138 244.054 134.525Z" fill="url(#paint3_linear_52_411)"/>
<path d="M81.396 111.705C80.7532 112.956 79.2189 113.448 77.9684 112.805C76.7179 112.163 76.2254 110.628 76.8681 109.378C77.5108 108.127 79.0452 107.635 80.2957 108.278C81.5461 108.92 82.0387 110.455 81.396 111.705Z" fill="url(#paint4_linear_52_411)"/>
<path d="M228.06 105.206L233.938 102.736" stroke="url(#paint5_linear_52_411)" stroke-miterlimit="10"/>
<path d="M228.699 106.717L237.93 102.84" stroke="url(#paint6_linear_52_411)" stroke-miterlimit="10"/>
<path d="M225.724 109.75L235.209 105.76" stroke="url(#paint7_linear_52_411)" stroke-miterlimit="10"/>
<path d="M90.8629 98.624L96.7368 96.1515" stroke="url(#paint8_linear_52_411)" stroke-miterlimit="10"/>
<path d="M91.4955 100.137L100.728 96.2555" stroke="url(#paint9_linear_52_411)" stroke-miterlimit="10"/>
<path d="M88.5273 103.168L98.008 99.1761" stroke="url(#paint10_linear_52_411)" stroke-miterlimit="10"/>
<path d="M199.884 185.393L207.387 182.234" stroke="url(#paint11_linear_52_411)" stroke-miterlimit="10"/>
<path d="M200.695 187.323L212.486 182.364" stroke="url(#paint12_linear_52_411)" stroke-miterlimit="10"/>
<path d="M196.901 191.196L209.014 186.103" stroke="url(#paint13_linear_52_411)" stroke-miterlimit="10"/>
<g opacity="0.5">
<path opacity="0.5" d="M242.133 84.6406L233.546 87.9193" stroke="url(#paint14_linear_52_411)" stroke-miterlimit="10"/>
<path opacity="0.5" d="M242.976 86.8509L229.489 92.0025" stroke="url(#paint15_linear_52_411)" stroke-miterlimit="10"/>
<path opacity="0.5" d="M249.093 87.0505L235.235 92.3419" stroke="url(#paint16_linear_52_411)" stroke-miterlimit="10"/>
</g>
<path d="M77.5543 119.179L88.726 114.481" stroke="url(#paint17_linear_52_411)" stroke-miterlimit="10"/>
<path d="M78.7637 122.053L96.3128 114.676" stroke="url(#paint18_linear_52_411)" stroke-miterlimit="10"/>
<path d="M73.1142 127.818L91.1424 120.233" stroke="url(#paint19_linear_52_411)" stroke-miterlimit="10"/>
<path d="M99.7678 107.954C100.519 108.34 101.442 108.044 101.828 107.292C102.214 106.541 101.918 105.619 101.167 105.232C100.415 104.846 99.4928 105.142 99.1065 105.894C98.7202 106.645 99.0163 107.568 99.7678 107.954Z" fill="white"/>
<path d="M86.676 135.626C86.2895 136.378 85.3677 136.674 84.6157 136.287C83.8638 135.901 83.5679 134.979 83.9544 134.227C84.3408 133.475 85.2627 133.179 86.0146 133.566C86.7665 133.952 87.0625 134.874 86.676 135.626Z" fill="white"/>
<path d="M113.471 65.9655C113.293 66.3129 112.866 66.4499 112.519 66.2714C112.171 66.0928 112.034 65.6659 112.213 65.3186C112.391 64.9712 112.818 64.8342 113.165 65.0127C113.511 65.1954 113.65 65.6182 113.471 65.9655Z" fill="white"/>
<path d="M224.789 146.176C225.136 146.355 225.563 146.218 225.742 145.87C225.92 145.523 225.783 145.096 225.436 144.917C225.088 144.739 224.662 144.876 224.483 145.223C224.304 145.571 224.441 145.997 224.789 146.176Z" fill="white"/>
<path d="M202.238 205.397C202.06 205.745 201.633 205.882 201.285 205.703C200.938 205.525 200.801 205.098 200.98 204.75C201.158 204.403 201.585 204.266 201.932 204.445C202.278 204.627 202.417 205.05 202.238 205.397Z" fill="white"/>
<path d="M111.092 53.9299C111.844 54.3162 112.766 54.0201 113.152 53.2686C113.539 52.517 113.242 51.5946 112.491 51.2083C111.739 50.822 110.817 51.1181 110.431 51.8697C110.044 52.6212 110.341 53.5436 111.092 53.9299Z" fill="white"/>
<path d="M102.334 162.101C101.947 162.853 101.026 163.149 100.274 162.763C99.5218 162.376 99.2258 161.454 99.6123 160.703C99.9988 159.951 100.921 159.655 101.673 160.041C102.425 160.428 102.72 161.35 102.334 162.101Z" fill="white"/>
<path d="M190.751 206.509C190.364 207.261 189.443 207.557 188.691 207.17C187.939 206.784 187.643 205.862 188.029 205.11C188.416 204.358 189.338 204.062 190.09 204.448C190.841 204.835 191.137 205.757 190.751 206.509Z" fill="white"/>
<path d="M234.702 178.301C234.315 179.052 233.394 179.348 232.642 178.962C231.89 178.575 231.594 177.654 231.98 176.902C232.367 176.15 233.289 175.854 234.04 176.24C234.795 176.623 235.088 177.549 234.702 178.301Z" fill="white"/>
<path d="M80.7256 75.5696C81.4771 75.9559 82.3996 75.6598 82.7858 74.9082C83.1721 74.1567 82.876 73.2343 82.1245 72.848C81.3729 72.4617 80.4505 72.7578 80.0642 73.5094C79.6779 74.2609 79.974 75.1833 80.7256 75.5696Z" fill="white"/>
<path d="M87.8317 156.404L90.8058 159.865L95.5012 154.891L87.8317 156.404Z" fill="#FF7E3D"/>
<path d="M80.0826 146.253L79.1275 155.629L96.1404 151.386L80.0826 146.253Z" fill="url(#paint20_linear_52_411)"/>
<path d="M245.544 150.061L239.679 157.441L230.464 142.522L245.544 150.061Z" fill="#FF7E3D"/>
<path d="M126.755 49.4785L119.99 50.4081L124.382 56.5766L126.755 49.4785Z" fill="#FF7E3D"/>
<path d="M225.465 157.192L220.954 152.068L218.241 159.136L225.465 157.192Z" fill="url(#paint21_linear_52_411)"/>
<path d="M204.293 71.0082C200.368 65.1264 194.593 59.6165 187.429 58.197C181.868 57.0953 176.35 58.8361 171.491 61.4945C166.022 64.4852 161.188 68.5043 156.289 72.3254C153.29 74.6635 150.224 76.8179 146.766 78.4398C143.048 80.1862 139.073 81.3872 135.014 81.9976C130.817 82.6249 126.557 82.6104 122.366 81.9596C117.586 81.2179 112.958 79.7896 108.282 78.5847C100.592 76.6106 92.0392 75.2887 84.5533 78.7666C81.2421 80.3038 78.4607 82.8004 76.7335 86.0301C74.9582 89.3434 74.3359 93.1875 74.5533 96.9155C75.0406 105.385 79.7861 112.526 85.5087 118.479C91.6355 124.852 98.8618 130.1 104.59 136.867C107.45 140.249 109.913 144.02 111.405 148.212C112.883 152.372 113.412 156.781 113.642 161.167C114.072 169.447 113.483 177.932 116.129 185.92C117.35 189.606 119.29 193.077 122.104 195.784C124.934 198.5 128.506 200.335 132.273 201.357C149.981 206.156 165.348 193.726 178.567 183.828C185.957 178.296 193.638 173.162 202.607 170.617C211.267 168.162 220.393 167.583 228.882 164.486C236.421 161.738 243.515 156.902 246.436 149.119C249.21 141.722 248.04 133.314 244.956 126.207C241.404 118.021 235.324 111.176 229.342 104.682C226.132 101.198 222.822 97.787 219.876 94.0717C216.968 90.4021 214.358 86.5139 211.829 82.5793C210.621 80.6979 209.434 78.8064 208.234 76.919C206.96 74.9156 205.543 73.0195 204.227 71.0465C204.126 70.8913 203.882 71.0448 203.983 71.2C205.297 73.1668 206.434 75.255 207.701 77.2541C208.9 79.1416 210.087 81.0331 211.295 82.9144C213.766 86.7621 216.317 90.5634 219.145 94.1561C224.754 101.285 231.51 107.419 237.069 114.595C242.253 121.284 246.472 128.856 247.244 137.425C247.599 141.358 247.217 145.398 245.783 149.094C244.287 152.948 241.671 156.228 238.407 158.74C231.569 164.002 222.93 165.823 214.634 167.381C210.231 168.208 205.806 168.997 201.511 170.287C197.359 171.531 193.416 173.322 189.672 175.5C182.038 179.94 175.32 185.724 168.118 190.799C161.088 195.752 153.262 200.305 144.598 201.462C136.594 202.53 127.696 200.735 121.939 194.739C116.273 188.835 114.945 180.233 114.596 172.387C114.229 164.057 114.804 155.42 111.793 147.477C108.819 139.635 102.747 133.528 96.6473 128.006C90.2022 122.172 83.2412 116.528 78.8424 108.884C74.9616 102.142 73.471 93.1614 77.3946 86.0908C81.3664 78.9263 89.8828 76.8305 97.5221 77.2854C106.691 77.8293 115.226 81.8493 124.331 82.8301C131.958 83.6507 139.773 82.3259 146.73 79.1134C152.906 76.2641 157.924 71.6676 163.316 67.6197C167.968 64.1267 172.984 60.6707 178.673 59.1414C184.549 57.5587 190.395 58.828 195.342 62.3107C198.753 64.7098 201.575 67.8134 203.914 71.2527C204.078 71.4764 204.447 71.2421 204.293 71.0082Z" fill="url(#paint22_linear_52_411)"/>
<g opacity="0.4248">
<path opacity="0.4248" d="M212.501 60.2659C208.012 53.5415 201.403 47.2414 193.21 45.6234C186.855 44.367 180.547 46.3579 174.998 49.395C168.737 52.8208 163.206 57.4219 157.596 61.7919C154.157 64.4724 150.649 66.9362 146.691 68.7971C142.433 70.7985 137.874 72.1801 133.22 72.8721C128.412 73.5933 123.53 73.5739 118.732 72.828C113.262 71.9801 107.963 70.3409 102.608 68.9681C93.8135 66.7105 84.0283 65.194 75.4642 69.1715C71.6841 70.9276 68.5124 73.7815 66.5356 77.4666C64.5063 81.2539 63.7999 85.6436 64.0443 89.9021C64.6003 99.5851 70.0269 107.752 76.5722 114.557C83.5888 121.852 91.8609 127.86 98.4183 135.607C101.7 139.484 104.525 143.808 106.234 148.613C107.93 153.375 108.536 158.428 108.798 163.456C109.287 172.928 108.613 182.641 111.643 191.782C113.037 195.996 115.251 199.96 118.47 203.055C121.705 206.159 125.783 208.256 130.089 209.426C150.346 214.914 167.928 200.688 183.053 189.363C191.516 183.029 200.311 177.145 210.589 174.235C220.505 171.427 230.951 170.762 240.667 167.217C249.288 164.074 257.399 158.546 260.734 149.644C263.903 141.189 262.563 131.573 259.037 123.447C254.974 114.085 248.016 106.252 241.176 98.8256C237.499 94.833 233.706 90.9254 230.33 86.669C227.002 82.4687 224.01 78.0172 221.12 73.5094C219.736 71.3568 218.375 69.1902 217.006 67.0296C215.55 64.7365 213.945 62.5527 212.439 60.296C212.338 60.1408 212.094 60.2943 212.195 60.4495C213.699 62.7 215.022 65.0799 216.476 67.3668C217.845 69.5274 219.213 71.6921 220.59 73.8467C223.416 78.249 226.335 82.601 229.573 86.714C235.994 94.8758 243.731 101.895 250.094 110.11C256.032 117.775 260.863 126.447 261.753 136.266C262.159 140.772 261.719 145.408 260.073 149.645C258.357 154.069 255.358 157.823 251.609 160.705C243.774 166.731 233.883 168.818 224.383 170.605C219.34 171.552 214.279 172.453 209.362 173.929C204.611 175.352 200.1 177.404 195.819 179.894C187.078 184.979 179.387 191.601 171.141 197.411C163.084 203.085 154.122 208.3 144.194 209.624C135.022 210.845 124.817 208.787 118.222 201.91C111.729 195.143 110.199 185.285 109.802 176.288C109.38 166.756 110.039 156.871 106.595 147.781C103.193 138.81 96.2452 131.824 89.267 125.509C81.8881 118.829 73.9149 112.36 68.879 103.613C64.4298 95.8863 62.7237 85.5864 67.2178 77.4763C71.7705 69.262 81.5377 66.8533 90.2963 67.3721C100.794 67.9945 110.572 72.6016 121.001 73.7205C129.72 74.658 138.663 73.1382 146.62 69.4683C153.69 66.2056 159.43 60.9472 165.598 56.3162C170.929 52.315 176.672 48.3594 183.189 46.6051C189.933 44.7917 196.635 46.2472 202.311 50.2497C206.218 53.0016 209.45 56.5536 212.124 60.496C212.292 60.7321 212.661 60.4978 212.501 60.2659Z" fill="url(#paint23_linear_52_411)"/>
</g>
<path d="M194.582 167.877C202.07 165.149 210.078 164.544 217.753 162.537C224.443 160.789 231.332 157.738 235.565 152.036C239.646 146.529 240.35 139.41 238.954 132.849C237.399 125.541 233.27 119.193 228.582 113.497C223.459 107.274 217.501 101.768 212.657 95.3106C207.834 88.8743 204.009 81.7833 199.361 75.2358C195.841 70.2751 190.728 65.7199 184.595 64.5152C179.874 63.5873 175.166 64.9076 170.971 67.0597C166.18 69.5154 161.942 72.9267 157.727 76.2314C155.31 78.13 152.913 80.0494 150.233 81.5751C147.234 83.2782 144.004 84.5677 140.662 85.412C137.234 86.2801 133.687 86.6681 130.156 86.563C126.091 86.4417 122.112 85.5488 118.192 84.5208C111.064 82.6496 103.807 80.3659 96.3619 81.6331C93.2304 82.1675 90.168 83.3212 87.6857 85.3464C85.2055 87.3676 83.4916 90.1391 82.6395 93.2141C80.8153 99.8087 82.722 106.854 86.3625 112.465C94.5871 125.149 110.665 131.962 115.665 146.879C118.092 154.119 117.447 161.857 117.879 169.358C118.261 176.022 119.524 183.103 124.009 188.317C128.584 193.639 135.802 195.799 142.643 195.585C150.039 195.357 156.962 192.262 163.137 188.389C164.693 187.412 166.213 186.385 167.71 185.321C169.254 184.228 170.653 182.974 172.161 181.838C172.306 181.726 172.157 181.484 172.008 181.593C170.514 182.721 168.902 183.706 167.375 184.787C165.84 185.873 164.283 186.932 162.686 187.93C159.543 189.894 156.254 191.639 152.769 192.912C146.046 195.366 138.417 195.888 131.708 193.07C128.482 191.717 125.623 189.58 123.55 186.748C121.526 183.982 120.29 180.738 119.54 177.413C117.96 170.407 118.57 163.188 118.01 156.076C117.731 152.539 117.154 148.998 115.895 145.669C114.629 142.322 112.703 139.265 110.459 136.495C105.849 130.799 100.022 126.305 94.7537 121.257C89.5058 116.23 84.5633 110.357 83.0622 103.056C81.7035 96.4423 83.27 89.0023 89.1481 85.0442C94.8522 81.2033 102.313 81.4322 108.769 82.7822C116.322 84.3603 123.612 87.2341 131.427 87.206C138.02 87.1848 144.6 85.4477 150.349 82.2237C155.254 79.4754 159.432 75.5373 163.961 72.2341C167.958 69.3236 172.288 66.5174 177.151 65.3386C182.191 64.1165 187.186 65.2427 191.44 68.1526C197.791 72.4914 201.447 79.4902 205.482 85.8212C207.607 89.1554 209.773 92.4694 212.15 95.6338C214.44 98.6862 216.967 101.509 219.561 104.304C229.199 114.719 241.101 127.144 238.779 142.637C238.269 146.053 236.958 149.316 234.828 152.044C232.655 154.823 229.783 156.963 226.671 158.586C220.015 162.067 212.536 163.11 205.261 164.558C201.596 165.288 197.953 166.143 194.451 167.459C194.187 167.56 194.32 167.975 194.582 167.877Z" fill="url(#paint24_linear_52_411)"/>
</g>
<defs>
<linearGradient id="paint0_linear_52_411" x1="237.8" y1="117.339" x2="241.891" y2="119.441" gradientUnits="userSpaceOnUse">
<stop offset="0.0277" stop-color="#FFD24D"/>
<stop offset="0.7154" stop-color="#F6BE56"/>
<stop offset="1" stop-color="#F2B45A"/>
</linearGradient>
<linearGradient id="paint1_linear_52_411" x1="236.134" y1="116.482" x2="243.557" y2="120.297" gradientUnits="userSpaceOnUse">
<stop offset="0.0277" stop-color="#FFD24D"/>
<stop offset="0.7154" stop-color="#F6BE56"/>
<stop offset="1" stop-color="#F2B45A"/>
</linearGradient>
<linearGradient id="paint2_linear_52_411" x1="138.335" y1="193.762" x2="143.704" y2="196.521" gradientUnits="userSpaceOnUse">
<stop offset="0.0277" stop-color="#FFD24D"/>
<stop offset="0.7154" stop-color="#F6BE56"/>
<stop offset="1" stop-color="#F2B45A"/>
</linearGradient>
<linearGradient id="paint3_linear_52_411" x1="241.676" y1="127.127" x2="251.453" y2="132.152" gradientUnits="userSpaceOnUse">
<stop offset="0.0277" stop-color="#FFD24D"/>
<stop offset="0.7154" stop-color="#F6BE56"/>
<stop offset="1" stop-color="#F2B45A"/>
</linearGradient>
<linearGradient id="paint4_linear_52_411" x1="76.8719" y1="109.378" x2="81.3964" y2="111.704" gradientUnits="userSpaceOnUse">
<stop offset="0.0277" stop-color="#FFD24D"/>
<stop offset="0.7154" stop-color="#F6BE56"/>
<stop offset="1" stop-color="#F2B45A"/>
</linearGradient>
<linearGradient id="paint5_linear_52_411" x1="228.763" y1="103.058" x2="233.237" y2="104.883" gradientUnits="userSpaceOnUse">
<stop offset="0.0277" stop-color="#FFD24D"/>
<stop offset="0.7154" stop-color="#F6BE56"/>
<stop offset="1" stop-color="#F2B45A"/>
</linearGradient>
<linearGradient id="paint6_linear_52_411" x1="229.886" y1="103.38" x2="236.742" y2="106.177" gradientUnits="userSpaceOnUse">
<stop offset="0.0277" stop-color="#FFD24D"/>
<stop offset="0.7154" stop-color="#F6BE56"/>
<stop offset="1" stop-color="#F2B45A"/>
</linearGradient>
<linearGradient id="paint7_linear_52_411" x1="226.951" y1="106.32" x2="233.987" y2="109.191" gradientUnits="userSpaceOnUse">
<stop offset="0.0277" stop-color="#FFD24D"/>
<stop offset="0.7154" stop-color="#F6BE56"/>
<stop offset="1" stop-color="#F2B45A"/>
</linearGradient>
<linearGradient id="paint8_linear_52_411" x1="91.8209" y1="96.3707" x2="95.7769" y2="98.4041" gradientUnits="userSpaceOnUse">
<stop offset="0.0277" stop-color="#FFD24D"/>
<stop offset="0.1674" stop-color="#EBC34D"/>
<stop offset="0.4544" stop-color="#B69D4D"/>
<stop offset="0.8604" stop-color="#625F4E"/>
<stop offset="1" stop-color="#44494E"/>
</linearGradient>
<linearGradient id="paint9_linear_52_411" x1="93.0946" y1="96.6439" x2="99.131" y2="99.7465" gradientUnits="userSpaceOnUse">
<stop offset="0.0277" stop-color="#FFD24D"/>
<stop offset="0.1674" stop-color="#EBC34D"/>
<stop offset="0.4544" stop-color="#B69D4D"/>
<stop offset="0.8604" stop-color="#625F4E"/>
<stop offset="1" stop-color="#44494E"/>
</linearGradient>
<linearGradient id="paint10_linear_52_411" x1="90.1708" y1="99.5809" x2="96.3642" y2="102.764" gradientUnits="userSpaceOnUse">
<stop offset="0.0277" stop-color="#FFD24D"/>
<stop offset="0.1674" stop-color="#EBC34D"/>
<stop offset="0.4544" stop-color="#B69D4D"/>
<stop offset="0.8604" stop-color="#625F4E"/>
<stop offset="1" stop-color="#44494E"/>
</linearGradient>
<linearGradient id="paint11_linear_52_411" x1="200.819" y1="182.665" x2="206.451" y2="184.962" gradientUnits="userSpaceOnUse">
<stop offset="0.0277" stop-color="#FFD24D"/>
<stop offset="0.7154" stop-color="#F6BE56"/>
<stop offset="1" stop-color="#F2B45A"/>
</linearGradient>
<linearGradient id="paint12_linear_52_411" x1="202.253" y1="183.076" x2="210.928" y2="186.615" gradientUnits="userSpaceOnUse">
<stop offset="0.0277" stop-color="#FFD24D"/>
<stop offset="0.7154" stop-color="#F6BE56"/>
<stop offset="1" stop-color="#F2B45A"/>
</linearGradient>
<linearGradient id="paint13_linear_52_411" x1="198.504" y1="186.832" x2="207.409" y2="190.465" gradientUnits="userSpaceOnUse">
<stop offset="0.0277" stop-color="#FFD24D"/>
<stop offset="0.7154" stop-color="#F6BE56"/>
<stop offset="1" stop-color="#F2B45A"/>
</linearGradient>
<linearGradient id="paint14_linear_52_411" x1="239.232" y1="83.1667" x2="236.446" y2="89.3953" gradientUnits="userSpaceOnUse">
<stop offset="0.0277" stop-color="#FFD24D"/>
<stop offset="0.7154" stop-color="#F6BE56"/>
<stop offset="1" stop-color="#F2B45A"/>
</linearGradient>
<linearGradient id="paint15_linear_52_411" x1="238.382" y1="84.6204" x2="234.081" y2="94.2366" gradientUnits="userSpaceOnUse">
<stop offset="0.0277" stop-color="#FFD24D"/>
<stop offset="0.7154" stop-color="#F6BE56"/>
<stop offset="1" stop-color="#F2B45A"/>
</linearGradient>
<linearGradient id="paint16_linear_52_411" x1="244.372" y1="84.7618" x2="239.956" y2="94.6333" gradientUnits="userSpaceOnUse">
<stop offset="0.0277" stop-color="#FFD24D"/>
<stop offset="0.7154" stop-color="#F6BE56"/>
<stop offset="1" stop-color="#F2B45A"/>
</linearGradient>
<linearGradient id="paint17_linear_52_411" x1="79.0225" y1="115.15" x2="87.256" y2="118.509" gradientUnits="userSpaceOnUse">
<stop offset="0.0277" stop-color="#FFD24D"/>
<stop offset="0.1674" stop-color="#EBC34D"/>
<stop offset="0.4544" stop-color="#B69D4D"/>
<stop offset="0.8604" stop-color="#625F4E"/>
<stop offset="1" stop-color="#44494E"/>
</linearGradient>
<linearGradient id="paint18_linear_52_411" x1="81.1565" y1="115.762" x2="93.9201" y2="120.969" gradientUnits="userSpaceOnUse">
<stop offset="0.0277" stop-color="#FFD24D"/>
<stop offset="0.1674" stop-color="#EBC34D"/>
<stop offset="0.4544" stop-color="#B69D4D"/>
<stop offset="0.8604" stop-color="#625F4E"/>
<stop offset="1" stop-color="#44494E"/>
</linearGradient>
<linearGradient id="paint19_linear_52_411" x1="75.5767" y1="121.352" x2="88.6818" y2="126.699" gradientUnits="userSpaceOnUse">
<stop offset="0.0277" stop-color="#FFD24D"/>
<stop offset="0.1674" stop-color="#EBC34D"/>
<stop offset="0.4544" stop-color="#B69D4D"/>
<stop offset="0.8604" stop-color="#625F4E"/>
<stop offset="1" stop-color="#44494E"/>
</linearGradient>
<linearGradient id="paint20_linear_52_411" x1="78.7103" y1="148.921" x2="93.5" y2="156.523" gradientUnits="userSpaceOnUse">
<stop offset="0.0277" stop-color="#FFD24D"/>
<stop offset="0.7154" stop-color="#FFBE56"/>
<stop offset="1" stop-color="#FFB45A"/>
</linearGradient>
<linearGradient id="paint21_linear_52_411" x1="219.898" y1="152.428" x2="221.934" y2="158.397" gradientUnits="userSpaceOnUse">
<stop offset="0.0277" stop-color="#FFD24D"/>
<stop offset="0.7154" stop-color="#F6BE56"/>
<stop offset="1" stop-color="#F2B45A"/>
</linearGradient>
<linearGradient id="paint22_linear_52_411" x1="71.3889" y1="118.73" x2="248.104" y2="141.063" gradientUnits="userSpaceOnUse">
<stop offset="0.0277" stop-color="#FFD24D"/>
<stop offset="0.0356" stop-color="#F7CC4C"/>
<stop offset="0.0797" stop-color="#CEAE4A"/>
<stop offset="0.1292" stop-color="#A89348"/>
<stop offset="0.1831" stop-color="#887B45"/>
<stop offset="0.2427" stop-color="#6C6744"/>
<stop offset="0.3099" stop-color="#565742"/>
<stop offset="0.3884" stop-color="#454B41"/>
<stop offset="0.4856" stop-color="#3A4241"/>
<stop offset="0.6218" stop-color="#333D40"/>
<stop offset="1" stop-color="#313C40"/>
</linearGradient>
<linearGradient id="paint23_linear_52_411" x1="66.1072" y1="78.299" x2="249.215" y2="172.415" gradientUnits="userSpaceOnUse">
<stop stop-color="#5C5A44"/>
<stop offset="0.6103" stop-color="#3F4541"/>
<stop offset="1" stop-color="#313C40"/>
</linearGradient>
<linearGradient id="paint24_linear_52_411" x1="144.048" y1="66.0787" x2="181.922" y2="184.062" gradientUnits="userSpaceOnUse">
<stop stop-color="#313C40"/>
<stop offset="0.251" stop-color="#333E40"/>
<stop offset="0.397" stop-color="#3C4441"/>
<stop offset="0.5161" stop-color="#4A4E42"/>
<stop offset="0.6208" stop-color="#5E5D43"/>
<stop offset="0.716" stop-color="#786F44"/>
<stop offset="0.8042" stop-color="#988746"/>
<stop offset="0.8873" stop-color="#BDA249"/>
<stop offset="0.964" stop-color="#E8C14C"/>
<stop offset="1" stop-color="#FFD24D"/>
</linearGradient>
</defs>
</svg>
