<svg width="510" height="304" viewBox="0 0 510 304" fill="none" xmlns="http://www.w3.org/2000/svg">
<g opacity="0.4">
<path d="M156.612 204.386C156.612 205.16 155.984 205.789 155.209 205.789C154.435 205.789 153.806 205.16 153.806 204.386C153.806 203.611 154.435 202.983 155.209 202.983C155.984 202.992 156.612 203.611 156.612 204.386Z" fill="white"/>
<g opacity="0.7">
<path opacity="0.7" d="M50.613 94.9514L251.878 -114.177" stroke="#969696" stroke-width="2" stroke-miterlimit="10" stroke-linecap="round" stroke-linejoin="round" stroke-dasharray="0.3 0.3"/>
<path opacity="0.7" d="M52.2256 112.009L266.138 -110.623" stroke="#969696" stroke-width="2" stroke-miterlimit="10" stroke-linecap="round" stroke-linejoin="round" stroke-dasharray="0.3 0.3"/>
<path opacity="0.7" d="M58.686 123.882L278.657 -105.211" stroke="#969696" stroke-width="2" stroke-miterlimit="10" stroke-linecap="round" stroke-linejoin="round" stroke-dasharray="0.3 0.3"/>
<path opacity="0.7" d="M67.78 132.957L292.672 -101.384" stroke="#969696" stroke-width="2" stroke-miterlimit="10" stroke-linecap="round" stroke-linejoin="round" stroke-dasharray="0.3 0.3"/>
<path opacity="0.7" d="M74.8599 144.174L306.804 -97.6932" stroke="#969696" stroke-width="2" stroke-miterlimit="10" stroke-linecap="round" stroke-linejoin="round" stroke-dasharray="0.3 0.3"/>
<path opacity="0.7" d="M83.188 154.061L321.802 -94.9232" stroke="#969696" stroke-width="2" stroke-miterlimit="10" stroke-linecap="round" stroke-linejoin="round" stroke-dasharray="0.3 0.3"/>
<path opacity="0.7" d="M91.4526 164.02L333.284 -88.4081" stroke="#969696" stroke-width="2" stroke-miterlimit="10" stroke-linecap="round" stroke-linejoin="round" stroke-dasharray="0.3 0.3"/>
<path opacity="0.7" d="M99.7266 173.961L347.334 -84.6268" stroke="#969696" stroke-width="2" stroke-miterlimit="10" stroke-linecap="round" stroke-linejoin="round" stroke-dasharray="0.3 0.3"/>
<path opacity="0.7" d="M108.255 183.629L358.761 -78.0479" stroke="#969696" stroke-width="2" stroke-miterlimit="10" stroke-linecap="round" stroke-linejoin="round" stroke-dasharray="0.3 0.3"/>
<path opacity="0.7" d="M115.791 194.372L368.273 -69.428" stroke="#969696" stroke-width="2" stroke-miterlimit="10" stroke-linecap="round" stroke-linejoin="round" stroke-dasharray="0.3 0.3"/>
<path opacity="0.7" d="M124.338 204.021L379.008 -62.1111" stroke="#969696" stroke-width="2" stroke-miterlimit="10" stroke-linecap="round" stroke-linejoin="round" stroke-dasharray="0.3 0.3"/>
<path opacity="0.7" d="M133.404 213.115L389.586 -54.621" stroke="#969696" stroke-width="2" stroke-miterlimit="10" stroke-linecap="round" stroke-linejoin="round" stroke-dasharray="0.3 0.3"/>
<path opacity="0.7" d="M141.049 223.731L388.174 -34.3469" stroke="#969696" stroke-width="2" stroke-miterlimit="10" stroke-linecap="round" stroke-linejoin="round" stroke-dasharray="0.3 0.3"/>
</g>
<g opacity="0.7">
<g opacity="0.7">
<path opacity="0.7" d="M169.233 213.58L370.506 4.4516" stroke="#969696" stroke-width="2" stroke-miterlimit="10" stroke-linecap="round" stroke-linejoin="round" stroke-dasharray="0.3 0.3"/>
<path opacity="0.7" d="M170.845 230.637L384.767 8.00525" stroke="#969696" stroke-width="2" stroke-miterlimit="10" stroke-linecap="round" stroke-linejoin="round" stroke-dasharray="0.3 0.3"/>
<path opacity="0.7" d="M177.315 242.51L397.286 13.4178" stroke="#969696" stroke-width="2" stroke-miterlimit="10" stroke-linecap="round" stroke-linejoin="round" stroke-dasharray="0.3 0.3"/>
<path opacity="0.7" d="M186.399 251.586L411.291 17.2357" stroke="#969696" stroke-width="2" stroke-miterlimit="10" stroke-linecap="round" stroke-linejoin="round" stroke-dasharray="0.3 0.3"/>
<path opacity="0.7" d="M193.489 262.793L425.424 20.926" stroke="#969696" stroke-width="2" stroke-miterlimit="10" stroke-linecap="round" stroke-linejoin="round" stroke-dasharray="0.3 0.3"/>
<path opacity="0.7" d="M201.817 272.689L440.422 23.696" stroke="#969696" stroke-width="2" stroke-miterlimit="10" stroke-linecap="round" stroke-linejoin="round" stroke-dasharray="0.3 0.3"/>
<path opacity="0.7" d="M210.072 282.648L451.903 30.2201" stroke="#969696" stroke-width="2" stroke-miterlimit="10" stroke-linecap="round" stroke-linejoin="round" stroke-dasharray="0.3 0.3"/>
<path opacity="0.7" d="M218.346 292.589L465.954 34.0016" stroke="#969696" stroke-width="2" stroke-miterlimit="10" stroke-linecap="round" stroke-linejoin="round" stroke-dasharray="0.3 0.3"/>
<path opacity="0.7" d="M226.884 302.257L477.38 40.5804" stroke="#969696" stroke-width="2" stroke-miterlimit="10" stroke-linecap="round" stroke-linejoin="round" stroke-dasharray="0.3 0.3"/>
<path opacity="0.7" d="M234.41 312.991L486.902 49.1912" stroke="#969696" stroke-width="2" stroke-miterlimit="10" stroke-linecap="round" stroke-linejoin="round" stroke-dasharray="0.3 0.3"/>
<path opacity="0.7" d="M242.957 322.65L497.636 56.5172" stroke="#969696" stroke-width="2" stroke-miterlimit="10" stroke-linecap="round" stroke-linejoin="round" stroke-dasharray="0.3 0.3"/>
<path opacity="0.7" d="M252.033 331.734L508.206 64.0074" stroke="#969696" stroke-width="2" stroke-miterlimit="10" stroke-linecap="round" stroke-linejoin="round" stroke-dasharray="0.3 0.3"/>
<path opacity="0.7" d="M259.678 342.359L506.803 84.2814" stroke="#969696" stroke-width="2" stroke-miterlimit="10" stroke-linecap="round" stroke-linejoin="round" stroke-dasharray="0.3 0.3"/>
</g>
</g>
<path d="M243.595 193.761C243.595 196.814 241.116 199.292 238.064 199.292C235.011 199.292 232.533 196.814 232.533 193.761C232.533 190.709 235.011 188.23 238.064 188.23C241.116 188.23 243.595 190.7 243.595 193.761Z" stroke="url(#paint0_linear_52_715)" stroke-miterlimit="10"/>
<path d="M57.2555 100.646C57.2555 103.435 54.9957 105.694 52.2074 105.694C49.4192 105.694 47.1594 103.435 47.1594 100.646C47.1594 97.8581 49.4192 95.5983 52.2074 95.5983C54.9957 95.5983 57.2555 97.8581 57.2555 100.646Z" fill="url(#paint1_linear_52_715)"/>
<path d="M62.094 68.9915L70.2127 59.3055" stroke="url(#paint2_linear_52_715)" stroke-miterlimit="10"/>
<path d="M64.5818 71.0872L77.3476 55.8703" stroke="url(#paint3_linear_52_715)" stroke-miterlimit="10"/>
<path d="M62.094 79.1239L75.197 63.4879" stroke="url(#paint4_linear_52_715)" stroke-miterlimit="10"/>
<path d="M333.047 123.198L343.416 110.824" stroke="url(#paint5_linear_52_715)" stroke-miterlimit="10"/>
<path d="M336.227 125.868L352.528 106.432" stroke="url(#paint6_linear_52_715)" stroke-miterlimit="10"/>
<path d="M333.047 136.137L349.794 116.173" stroke="url(#paint7_linear_52_715)" stroke-miterlimit="10"/>
<path d="M57.2559 117.312L72.7006 98.8969" stroke="url(#paint8_linear_52_715)" stroke-miterlimit="10"/>
<path d="M61.9937 121.285L86.2588 92.3636" stroke="url(#paint9_linear_52_715)" stroke-miterlimit="10"/>
<path d="M57.2559 136.575L82.177 106.852" stroke="url(#paint10_linear_52_715)" stroke-miterlimit="10"/>
<path d="M86.2591 77.3746C87.9349 77.3746 89.2934 76.0161 89.2934 74.3403C89.2934 72.6645 87.9349 71.306 86.2591 71.306C84.5833 71.306 83.2249 72.6645 83.2249 74.3403C83.2249 76.0161 84.5833 77.3746 86.2591 77.3746Z" fill="white"/>
<path d="M88.2543 138.051C88.2543 139.727 86.8967 141.085 85.2201 141.085C83.5435 141.085 82.1858 139.727 82.1858 138.051C82.1858 136.374 83.5435 135.017 85.2201 135.017C86.8967 135.017 88.2543 136.374 88.2543 138.051Z" fill="white"/>
<path d="M341.421 31.4502C342.196 31.4502 342.824 30.8219 342.824 30.047C342.824 29.272 342.196 28.6437 341.421 28.6437C340.646 28.6437 340.018 29.272 340.018 30.047C340.018 30.8219 340.646 31.4502 341.421 31.4502Z" fill="white"/>
<path d="M355.334 156.348C355.334 157.122 354.706 157.751 353.931 157.751C353.157 157.751 352.528 157.122 352.528 156.348C352.528 155.573 353.157 154.944 353.931 154.944C354.706 154.954 355.334 155.573 355.334 156.348Z" fill="white"/>
<path d="M139.873 170.553C139.873 172.23 138.516 173.588 136.839 173.588C135.163 173.588 133.805 172.23 133.805 170.553C133.805 168.877 135.163 167.519 136.839 167.519C138.516 167.519 139.873 168.877 139.873 170.553Z" fill="white"/>
<path d="M336.081 168.722C336.081 170.398 334.723 171.756 333.046 171.756C331.37 171.756 330.012 170.398 330.012 168.722C330.012 167.045 331.37 165.687 333.046 165.687C334.723 165.687 336.081 167.045 336.081 168.722Z" fill="white"/>
<path d="M388.028 79.1239C388.028 80.8005 386.671 82.1582 384.994 82.1582C383.317 82.1582 381.96 80.8005 381.96 79.1239C381.96 77.4473 383.317 76.0897 384.994 76.0897C386.671 76.0806 388.028 77.4473 388.028 79.1239Z" fill="white"/>
<path d="M23.3136 37.5188C24.9894 37.5188 26.3478 36.1603 26.3478 34.4845C26.3478 32.8087 24.9894 31.4503 23.3136 31.4503C21.6378 31.4503 20.2793 32.8087 20.2793 34.4845C20.2793 36.1603 21.6378 37.5188 23.3136 37.5188Z" fill="white"/>
<path d="M109.129 173.651L117.512 177.059L121.285 164.029L109.129 173.651Z" fill="#FF7E3D"/>
<path d="M86.259 162.772L93.0748 180.175L119.235 157.268L86.259 162.772Z" fill="url(#paint11_linear_52_715)"/>
<path d="M381.55 19.4863L377.896 37.8196L348.118 19.8599L381.55 19.4863Z" fill="#FF7E3D"/>
<path d="M352.601 50.2665L339.999 45.3187L341.621 60.2441L352.601 50.2665Z" fill="url(#paint12_linear_52_715)"/>
<path d="M237.126 -82.5493C224.87 -89.365 209.69 -93.8481 195.767 -89.857C184.96 -86.759 176.805 -78.6858 170.645 -69.5921C163.711 -59.3594 158.827 -47.8874 153.651 -36.7071C150.48 -29.864 147.027 -23.2852 142.398 -17.2895C137.423 -10.8383 131.5 -5.11597 124.894 -0.359535C118.06 4.5518 110.534 8.38794 102.552 11.0395C93.4487 14.0647 83.9905 15.7413 74.6508 17.8552C59.2972 21.3451 43.0141 26.7667 32.9636 39.6875C28.517 45.4007 25.8745 52.3257 25.7561 59.5879C25.6285 67.0415 28.0159 74.3858 31.7791 80.7641C40.317 95.2612 55.1603 103.553 70.6506 108.865C87.2344 114.551 104.738 117.257 120.976 124C129.086 127.372 136.849 131.791 143.282 137.832C149.66 143.828 154.59 151.127 158.973 158.653C167.237 172.868 173.889 188.367 185.798 200.058C191.293 205.452 197.862 209.817 205.28 212.04C212.733 214.263 220.697 214.263 228.269 212.65C263.851 205.06 279.688 169.205 294.03 139.764C302.048 123.308 310.942 107.289 324.455 94.6689C337.503 82.4862 353.075 73.1921 365.24 60.0344C376.046 48.3529 384.174 33.3911 382.27 17.0169C380.457 1.45375 370.771 -12.3144 358.889 -22.0551C345.203 -33.2719 328.273 -39.8325 311.835 -45.8646C303.014 -49.0993 294.085 -52.1154 285.519 -55.9971C277.063 -59.8332 268.936 -64.3254 260.908 -68.9725C257.072 -71.1958 253.263 -73.4555 249.436 -75.6971C245.372 -78.0753 241.153 -80.1346 237.044 -82.4217C236.725 -82.6039 236.433 -82.1119 236.752 -81.9296C240.853 -79.6517 244.753 -77.0001 248.798 -74.6219C252.625 -72.3803 256.434 -70.1206 260.27 -67.8972C268.116 -63.3504 276.061 -58.9584 284.307 -55.1861C300.663 -47.6961 318.14 -43.0034 334.45 -35.3858C349.658 -28.2876 363.964 -18.7565 373.094 -4.34145C377.286 2.27383 380.274 9.74562 381.095 17.5637C381.951 25.7189 380.311 33.874 376.83 41.2638C369.541 56.745 355.955 67.7887 342.733 78.0578C335.717 83.5068 328.628 88.9102 322.222 95.0789C316.026 101.038 310.696 107.772 306.067 115.007C296.627 129.759 290.021 146.051 281.92 161.532C274.011 176.64 264.334 191.766 250.101 201.661C236.953 210.801 219.631 215.703 204.04 210.345C188.696 205.069 178.554 191.101 170.827 177.579C162.627 163.218 155.811 147.463 143.3 136.183C130.944 125.048 114.698 119.781 98.9341 115.572C82.2775 111.125 64.8828 107.48 50.1943 97.9857C37.2371 89.6118 26.4668 75.1238 26.9771 59.0959C27.4874 42.8584 40.6086 31.4411 54.4952 25.3179C71.1609 17.9646 89.8586 17.3176 106.807 10.7935C121.003 5.32631 133.587 -4.09542 142.945 -16.0685C151.255 -26.693 155.938 -39.3495 161.779 -51.3773C166.818 -61.7558 172.531 -72.3985 181.178 -80.253C190.108 -88.3718 201.571 -91.4334 213.453 -89.775C221.645 -88.636 229.435 -85.7202 236.679 -81.7747C237.171 -81.5287 237.609 -82.2759 237.126 -82.5493Z" fill="url(#paint13_linear_52_715)"/>
<g opacity="0.4248">
<path opacity="0.4248" d="M241.864 -108.937C227.85 -116.728 210.482 -121.849 194.564 -117.275C182.217 -113.73 172.896 -104.5 165.861 -94.1122C157.925 -82.3943 152.339 -69.264 146.407 -56.4708C142.771 -48.6254 138.817 -41.099 133.523 -34.2286C127.828 -26.8388 121.039 -20.2691 113.458 -14.8293C105.631 -9.19807 97.0022 -4.80611 87.8629 -1.77183C77.448 1.69071 66.6139 3.6042 55.9256 6.03709C38.3668 10.0281 19.7329 16.2243 8.23364 31.0038C3.15829 37.528 0.151349 45.4371 0.00555799 53.729C-0.140233 62.2487 2.59335 70.6316 6.88508 77.9212C16.644 94.4958 33.6195 103.981 51.3331 110.05C70.3224 116.556 90.3596 119.654 108.948 127.372C118.251 131.235 127.154 136.301 134.525 143.227C141.833 150.088 147.482 158.453 152.503 167.082C161.952 183.346 169.57 201.087 183.201 214.464C189.479 220.632 196.978 225.617 205.462 228.159C213.981 230.701 223.075 230.701 231.731 228.861C272.434 220.177 290.549 179.146 306.96 145.459C316.144 126.615 326.322 108.264 341.813 93.8124C356.756 79.8711 374.579 69.2284 388.502 54.1664C400.858 40.8083 410.152 23.7052 407.965 4.98013C405.888 -12.8064 394.808 -28.5518 381.222 -39.6866C365.568 -52.5162 346.196 -60.0245 327.398 -66.9222C317.293 -70.6308 307.06 -74.0842 297.246 -78.5308C287.569 -82.9228 278.257 -88.0619 269.072 -93.3924C264.68 -95.9347 260.316 -98.5224 255.942 -101.092C251.295 -103.816 246.484 -106.213 241.782 -108.828C241.463 -109.01 241.171 -108.518 241.49 -108.336C246.183 -105.73 250.675 -102.732 255.313 -100.017C259.687 -97.4472 264.061 -94.8685 268.443 -92.3172C277.419 -87.1143 286.512 -82.0845 295.952 -77.7654C314.677 -69.1911 334.687 -63.8242 353.358 -55.104C370.78 -46.9671 387.163 -36.0509 397.633 -19.5401C402.435 -11.959 405.861 -3.38466 406.799 5.58149C407.783 14.9395 405.897 24.2792 401.897 32.7624C393.541 50.4943 377.987 63.1416 362.852 74.9051C354.815 81.1468 346.706 87.3247 339.371 94.3865C332.282 101.202 326.186 108.911 320.892 117.185C310.085 134.078 302.522 152.73 293.246 170.453C284.18 187.766 273.1 205.087 256.789 216.423C241.718 226.892 221.854 232.514 203.986 226.364C186.399 220.314 174.764 204.313 165.907 188.804C156.521 172.376 148.722 154.343 134.407 141.431C120.274 128.693 101.686 122.67 83.6532 117.859C64.5819 112.765 44.6541 108.583 27.8425 97.7215C12.9901 88.1266 0.643396 71.5064 1.21745 53.1276C1.80061 34.5119 16.8444 21.4089 32.763 14.3836C51.8434 5.9642 73.2656 5.22614 92.674 -2.25476C108.902 -8.50555 123.299 -19.2941 134.006 -32.9802C143.519 -45.1447 148.876 -59.6235 155.556 -73.3826C161.333 -85.2737 167.875 -97.4563 177.78 -106.459C188.03 -115.771 201.17 -119.279 214.811 -117.366C224.196 -116.054 233.116 -112.719 241.408 -108.19C241.919 -107.926 242.356 -108.673 241.864 -108.937Z" fill="url(#paint14_linear_52_715)"/>
</g>
<path d="M307.816 97.1109C318.55 85.5114 332.127 77.1831 343.845 66.6861C354.059 57.5377 363.444 45.9109 365.741 32.0152C367.946 18.6024 362.734 5.4083 354.323 -4.89731C344.956 -16.3784 331.917 -23.8319 318.486 -29.6271C303.807 -35.9599 288.307 -40.2699 273.91 -47.2678C259.568 -54.2476 246.392 -63.2866 232.26 -70.6217C221.553 -76.18 208.405 -79.5788 196.495 -76.1436C187.329 -73.5011 180.221 -66.9041 174.773 -59.3047C168.549 -50.6301 164.166 -40.771 159.729 -31.1215C157.186 -25.5814 154.699 -20.0231 151.355 -14.9022C147.61 -9.1799 143.081 -3.977 137.951 0.542526C132.694 5.1805 126.789 9.08044 120.465 12.0965C113.185 15.5681 105.358 17.6001 97.5123 19.3405C83.243 22.5023 68.3723 25.0537 56.3901 34.038C51.3512 37.8195 46.9957 42.6306 44.4535 48.4531C41.9113 54.2665 41.401 60.7087 42.6858 66.9048C45.4467 80.19 55.1965 90.8874 66.7049 97.4845C92.7104 112.401 127.245 109.84 149.587 131.618C160.43 142.188 166.307 156.421 173.87 169.259C180.586 180.667 189.233 192.012 201.871 197.142C214.765 202.381 229.453 199.648 241.326 193.069C254.165 185.961 263.568 174.225 270.949 161.797C272.808 158.662 274.557 155.473 276.234 152.238C277.965 148.912 279.296 145.432 280.927 142.06C281.082 141.732 280.599 141.44 280.435 141.768C278.822 145.113 276.872 148.311 275.159 151.6C273.437 154.908 271.651 158.188 269.737 161.396C265.974 167.71 261.755 173.77 256.762 179.173C247.13 189.597 234.146 197.433 219.758 198.545C212.842 199.083 205.862 197.907 199.639 194.791C193.561 191.747 188.44 187.146 184.103 181.961C174.964 171.036 169.497 157.751 162.061 145.714C158.362 139.727 154.134 134.005 148.895 129.276C143.628 124.52 137.459 120.875 130.99 118.023C117.695 112.155 103.344 109.512 89.4756 105.385C75.6619 101.275 61.6204 95.3978 52.3536 83.8804C43.9615 73.4472 39.9795 58.9045 46.7588 46.5943C53.3376 34.6485 66.7049 28.2884 79.3158 24.8167C94.068 20.7528 109.531 19.2129 123.29 12.0782C134.899 6.06436 144.931 -2.96557 152.148 -13.8635C158.307 -23.1576 162.107 -33.8915 167.1 -43.8235C171.51 -52.5801 176.604 -61.4551 184.112 -67.9428C191.894 -74.6674 201.726 -77.2097 211.867 -75.934C227.002 -74.0387 239.795 -65.0088 252.652 -57.5005C259.422 -53.5459 266.247 -49.6643 273.309 -46.2382C280.116 -42.9305 287.132 -40.2425 294.239 -37.6638C320.682 -28.0325 352.938 -16.9068 362.889 12.5247C365.085 19.0125 365.731 25.9557 364.447 32.6986C363.135 39.569 360.009 45.9473 355.991 51.6332C347.407 63.8067 335.161 72.4266 323.643 81.575C317.839 86.1857 312.19 90.9967 307.205 96.4913C306.832 96.9104 307.442 97.521 307.816 97.1109Z" fill="url(#paint15_linear_52_715)"/>
</g>
<defs>
<linearGradient id="paint0_linear_52_715" x1="232.074" y1="193.758" x2="244.046" y2="193.758" gradientUnits="userSpaceOnUse">
<stop offset="0.0277" stop-color="#FFD24D"/>
<stop offset="0.7154" stop-color="#F6BE56"/>
<stop offset="1" stop-color="#F2B45A"/>
</linearGradient>
<linearGradient id="paint1_linear_52_715" x1="47.1663" y1="100.644" x2="57.255" y2="100.644" gradientUnits="userSpaceOnUse">
<stop offset="0.0277" stop-color="#FFD24D"/>
<stop offset="0.7154" stop-color="#F6BE56"/>
<stop offset="1" stop-color="#F2B45A"/>
</linearGradient>
<linearGradient id="paint2_linear_52_715" x1="61.7408" y1="64.1488" x2="70.5619" y2="64.1488" gradientUnits="userSpaceOnUse">
<stop offset="0.0277" stop-color="#FFD24D"/>
<stop offset="0.1674" stop-color="#EBC34D"/>
<stop offset="0.4544" stop-color="#B69D4D"/>
<stop offset="0.8604" stop-color="#625F4E"/>
<stop offset="1" stop-color="#44494E"/>
</linearGradient>
<linearGradient id="paint3_linear_52_715" x1="64.2354" y1="63.4758" x2="77.6951" y2="63.4758" gradientUnits="userSpaceOnUse">
<stop offset="0.0277" stop-color="#FFD24D"/>
<stop offset="0.1674" stop-color="#EBC34D"/>
<stop offset="0.4544" stop-color="#B69D4D"/>
<stop offset="0.8604" stop-color="#625F4E"/>
<stop offset="1" stop-color="#44494E"/>
</linearGradient>
<linearGradient id="paint4_linear_52_715" x1="61.7408" y1="71.3067" x2="75.5504" y2="71.3067" gradientUnits="userSpaceOnUse">
<stop offset="0.0277" stop-color="#FFD24D"/>
<stop offset="0.1674" stop-color="#EBC34D"/>
<stop offset="0.4544" stop-color="#B69D4D"/>
<stop offset="0.8604" stop-color="#625F4E"/>
<stop offset="1" stop-color="#44494E"/>
</linearGradient>
<linearGradient id="paint5_linear_52_715" x1="332.223" y1="117.538" x2="344.238" y2="116.485" gradientUnits="userSpaceOnUse">
<stop offset="0.0277" stop-color="#FFD24D"/>
<stop offset="0.7154" stop-color="#F6BE56"/>
<stop offset="1" stop-color="#F2B45A"/>
</linearGradient>
<linearGradient id="paint6_linear_52_715" x1="335.125" y1="116.963" x2="353.634" y2="115.341" gradientUnits="userSpaceOnUse">
<stop offset="0.0277" stop-color="#FFD24D"/>
<stop offset="0.7154" stop-color="#F6BE56"/>
<stop offset="1" stop-color="#F2B45A"/>
</linearGradient>
<linearGradient id="paint7_linear_52_715" x1="331.917" y1="126.988" x2="350.917" y2="125.323" gradientUnits="userSpaceOnUse">
<stop offset="0.0277" stop-color="#FFD24D"/>
<stop offset="0.7154" stop-color="#F6BE56"/>
<stop offset="1" stop-color="#F2B45A"/>
</linearGradient>
<linearGradient id="paint8_linear_52_715" x1="56.1927" y1="108.875" x2="73.7601" y2="107.335" gradientUnits="userSpaceOnUse">
<stop offset="0.0277" stop-color="#FFD24D"/>
<stop offset="0.1674" stop-color="#EBC34D"/>
<stop offset="0.4544" stop-color="#B69D4D"/>
<stop offset="0.8604" stop-color="#625F4E"/>
<stop offset="1" stop-color="#44494E"/>
</linearGradient>
<linearGradient id="paint9_linear_52_715" x1="60.5105" y1="108.019" x2="87.7436" y2="105.632" gradientUnits="userSpaceOnUse">
<stop offset="0.0277" stop-color="#FFD24D"/>
<stop offset="0.1674" stop-color="#EBC34D"/>
<stop offset="0.4544" stop-color="#B69D4D"/>
<stop offset="0.8604" stop-color="#625F4E"/>
<stop offset="1" stop-color="#44494E"/>
</linearGradient>
<linearGradient id="paint10_linear_52_715" x1="55.7373" y1="122.938" x2="83.6991" y2="120.487" gradientUnits="userSpaceOnUse">
<stop offset="0.0277" stop-color="#FFD24D"/>
<stop offset="0.1674" stop-color="#EBC34D"/>
<stop offset="0.4544" stop-color="#B69D4D"/>
<stop offset="0.8604" stop-color="#625F4E"/>
<stop offset="1" stop-color="#44494E"/>
</linearGradient>
<linearGradient id="paint11_linear_52_715" x1="86.2578" y1="168.723" x2="119.235" y2="168.723" gradientUnits="userSpaceOnUse">
<stop offset="0.0277" stop-color="#FFD24D"/>
<stop offset="0.7154" stop-color="#FFBE56"/>
<stop offset="1" stop-color="#FFB45A"/>
</linearGradient>
<linearGradient id="paint12_linear_52_715" x1="338.463" y1="46.9118" x2="347.464" y2="55.5928" gradientUnits="userSpaceOnUse">
<stop offset="0.0277" stop-color="#FFD24D"/>
<stop offset="0.7154" stop-color="#F6BE56"/>
<stop offset="1" stop-color="#F2B45A"/>
</linearGradient>
<linearGradient id="paint13_linear_52_715" x1="45.9737" y1="122.108" x2="377.909" y2="1.29375" gradientUnits="userSpaceOnUse">
<stop offset="0.0277" stop-color="#FFD24D"/>
<stop offset="0.0356" stop-color="#F7CC4C"/>
<stop offset="0.0797" stop-color="#CEAE4A"/>
<stop offset="0.1292" stop-color="#A89348"/>
<stop offset="0.1831" stop-color="#887B45"/>
<stop offset="0.2427" stop-color="#6C6744"/>
<stop offset="0.3099" stop-color="#565742"/>
<stop offset="0.3884" stop-color="#454B41"/>
<stop offset="0.4856" stop-color="#3A4241"/>
<stop offset="0.6218" stop-color="#333D40"/>
<stop offset="1" stop-color="#313C40"/>
</linearGradient>
<linearGradient id="paint14_linear_52_715" x1="0.00446456" y1="55.5855" x2="408.291" y2="55.5855" gradientUnits="userSpaceOnUse">
<stop stop-color="#5C5A44"/>
<stop offset="0.6103" stop-color="#3F4541"/>
<stop offset="1" stop-color="#313C40"/>
</linearGradient>
<linearGradient id="paint15_linear_52_715" x1="126.397" y1="-36.6276" x2="300.159" y2="137.134" gradientUnits="userSpaceOnUse">
<stop stop-color="#313C40"/>
<stop offset="0.251" stop-color="#333E40"/>
<stop offset="0.397" stop-color="#3C4441"/>
<stop offset="0.5161" stop-color="#4A4E42"/>
<stop offset="0.6208" stop-color="#5E5D43"/>
<stop offset="0.716" stop-color="#786F44"/>
<stop offset="0.8042" stop-color="#988746"/>
<stop offset="0.8873" stop-color="#BDA249"/>
<stop offset="0.964" stop-color="#E8C14C"/>
<stop offset="1" stop-color="#FFD24D"/>
</linearGradient>
</defs>
</svg>
