<svg width="138" height="134" viewBox="0 0 138 134" fill="none" xmlns="http://www.w3.org/2000/svg">
<path d="M81.2128 17.5919C80.6533 19.6449 79.9275 21.6571 79.0506 23.5844C78.9355 23.8234 78.8351 24.0675 78.7104 24.2868C78.6553 24.399 78.6003 24.5112 78.5453 24.6234C78.4701 24.7942 78.6852 24.3601 78.5504 24.6087C78.5105 24.6769 78.4802 24.7648 78.4403 24.8331C78.1954 25.3061 77.936 25.774 77.6764 26.242C77.1428 27.1728 76.5505 28.0835 75.9243 28.9497C75.6213 29.3535 75.3183 29.7573 75.0007 30.1561C74.8371 30.3456 74.6881 30.5401 74.5098 30.7246C74.48 30.7635 74.3961 30.8166 74.3759 30.8753C74.4264 30.7287 74.5295 30.715 74.4356 30.7974C74.3366 30.8945 74.2522 30.9966 74.1532 31.0936C73.5341 31.7491 72.8517 32.3501 72.1406 32.892C71.9825 33.0179 71.8098 33.1387 71.637 33.2595C71.5481 33.3273 71.4445 33.3899 71.3556 33.4577C71.3162 33.4769 71.2718 33.5108 71.247 33.535C71.4844 33.3217 71.3309 33.4819 71.2667 33.5254C70.8869 33.7716 70.4778 34.0077 70.0737 34.2292C69.6746 34.436 69.2806 34.6281 68.8573 34.8102C68.6653 34.8916 68.4587 34.968 68.2521 35.0443C68.1587 35.0777 68.0652 35.1111 67.9718 35.1445C67.8242 35.192 68.2521 35.0443 68.0258 35.1303C67.952 35.1541 67.898 35.1682 67.8242 35.192C67.3473 35.3392 66.8608 35.4667 66.3697 35.5599C65.8787 35.653 65.3932 35.6825 64.8926 35.756C64.9123 35.7464 65.1769 35.7392 64.9956 35.7423C64.9269 35.7514 64.8632 35.7459 64.7945 35.755C64.6622 35.7586 64.5298 35.7622 64.3828 35.7607C64.1377 35.7583 63.8927 35.7559 63.638 35.7337C63.1383 35.7092 62.6391 35.6356 62.15 35.5327C61.8908 35.4762 61.5069 35.6391 61.319 35.8039C61.1261 35.9833 61.0014 36.2026 60.9449 36.4618C60.8365 37.0146 61.1444 37.596 61.7012 37.7878C62.776 38.1415 63.8457 38.5099 64.8902 38.9516C65.1343 39.0521 65.3587 39.1621 65.5977 39.2772C65.6123 39.2823 65.861 39.4171 65.6952 39.3272C65.5148 39.2323 65.7634 39.3671 65.7927 39.3772C65.9196 39.4373 66.0414 39.512 66.1632 39.5867C66.6554 39.871 67.1229 40.1795 67.5656 40.5123C67.6434 40.5719 67.7308 40.6511 67.8087 40.7107C67.8476 40.7405 67.8961 40.79 67.935 40.8198C68.0128 40.8794 68.0705 40.9976 67.8865 40.7703C68.022 40.9481 68.2216 41.0824 68.3768 41.2506C68.6775 41.5673 68.9586 41.8936 69.2002 42.239C69.2679 42.3279 69.3356 42.4168 69.3983 42.5204C69.4175 42.5598 69.4514 42.6042 69.4757 42.629C69.5869 42.782 69.4322 42.5648 69.4226 42.5451C69.5187 42.7421 69.6637 42.9396 69.7795 43.127C70.001 43.5311 70.2077 43.9302 70.3898 44.3535C70.4712 44.5455 70.5526 44.7374 70.6194 44.9243C70.6528 45.0178 70.6862 45.1113 70.7292 45.2244C70.7768 45.3719 70.6437 44.9491 70.715 45.1704C70.7388 45.2441 70.7529 45.2982 70.7767 45.3719C70.9097 45.7947 71.0084 46.2221 71.1071 46.6495C71.2008 47.0916 71.2747 47.5432 71.334 47.9898C71.3563 48.2106 71.3786 48.4314 71.401 48.6522C71.4005 48.7012 71.4 48.7502 71.4192 48.7896C71.3978 48.4708 71.4156 48.6572 71.4196 48.7406C71.4232 48.8729 71.4319 48.9907 71.4355 49.1231C71.4698 50.1184 71.411 51.098 71.2886 52.0722C71.2564 52.3561 71.2145 52.6204 71.1677 52.8993C71.147 53.0069 71.1213 53.1292 71.1152 53.2419C71.0996 53.3348 71.0891 53.4132 71.0588 53.5011C71.0739 53.4571 71.0744 53.4081 71.0895 53.3641C71.0693 53.4228 71.0689 53.4718 71.0487 53.5304C70.9256 54.0781 70.8076 54.6112 70.6552 55.1488C69.9837 57.6222 68.9994 60.0043 68.0106 62.352C67.7945 62.8841 68.102 63.5145 68.5896 63.7644C69.1066 64.0244 69.7208 63.859 70.0637 63.3869C72.4881 60.1075 73.972 56.2747 76.1235 52.8357C76.6017 52.0661 77.1091 51.3065 77.6848 50.5868C77.804 50.4312 77.9379 50.2806 78.052 50.1396C78.1116 50.0617 78.2004 49.994 78.2651 49.9015C78.26 49.9162 78.0767 50.1153 78.2055 49.9793C78.2353 49.9404 78.2848 49.8919 78.3146 49.853C78.5969 49.5568 78.8742 49.2753 79.1661 48.9988C79.7499 48.4459 80.3823 47.9424 81.0435 47.498C81.0829 47.4788 81.1273 47.4449 81.152 47.4207C80.9298 47.59 81.0041 47.5172 81.0682 47.4738C81.1521 47.4207 81.2359 47.3676 81.3198 47.3145C81.4875 47.2084 81.6698 47.1072 81.8521 47.0061C82.1971 46.8135 82.5518 46.6406 82.8963 46.4969C83.108 46.4059 83.2999 46.3245 83.5212 46.2532C83.5606 46.2339 83.5949 46.2294 83.649 46.2152C83.3146 46.3295 83.5555 46.2486 83.6146 46.2198C83.7227 46.1914 83.8162 46.1581 83.9243 46.1297C84.3224 46.021 84.7301 45.9319 85.1423 45.8772C85.2454 45.8635 85.3631 45.8548 85.4662 45.8411C85.5152 45.8416 85.5496 45.8371 85.5986 45.8376C85.834 45.8203 85.3485 45.8498 85.5642 45.8421C85.7799 45.8345 85.9957 45.8268 86.221 45.8388C86.4463 45.8509 86.657 45.8579 86.8773 45.8846C86.9703 45.9002 87.083 45.9062 87.1759 45.9218C87.2689 45.9375 87.6994 46.0201 87.3032 45.9329C87.6114 45.9899 87.9051 46.0418 88.191 45.878C88.4127 45.7577 88.586 45.5878 88.7157 45.3539C88.9606 44.8809 88.845 44.169 88.3382 43.8797C87.9435 43.6454 87.5539 43.3965 87.1744 43.1183C87.004 42.994 86.8534 42.8602 86.6831 42.736C86.5956 42.6567 86.5083 42.5774 86.4158 42.5128C86.7074 42.7607 86.3819 42.4683 86.304 42.4087C85.6535 41.7749 85.0576 41.0779 84.5456 40.3279C84.5263 40.2885 84.4924 40.244 84.4682 40.2192C84.362 40.0515 84.5117 40.2834 84.5213 40.3031C84.4732 40.2046 84.3909 40.1107 84.3282 40.0071C84.2028 39.8 84.087 39.6126 83.9762 39.4106C83.7548 39.0065 83.5384 38.5877 83.3614 38.1497C83.1793 37.7264 83.012 37.3081 82.8496 36.8752C82.8355 36.8212 82.8213 36.7671 82.7924 36.708C82.8021 36.7277 82.883 36.9687 82.8163 36.7818C82.7733 36.6686 82.7449 36.5605 82.7019 36.4473C82.6306 36.2261 82.5644 35.9901 82.5077 35.7739C82.2714 34.8893 82.1088 33.981 81.9953 33.0731C81.973 32.8523 81.9456 32.6462 81.9233 32.4254C81.9092 32.3714 81.9147 32.3077 81.9152 32.2587C81.8974 32.0723 81.9243 32.3274 81.9192 32.3421C81.9207 32.195 81.9024 32.0576 81.8989 31.9253C81.8739 31.4741 81.8687 31.0133 81.8634 30.5525C81.8687 28.5381 82.0554 26.5207 82.335 24.5188C82.4882 23.4077 82.6611 22.2871 82.8633 21.1765C82.9616 20.653 83.0549 20.1442 83.1532 19.6207C83.2097 19.3615 83.2464 19.1119 83.3029 18.8527C83.3185 18.7597 83.4012 18.3292 83.3337 18.7158C83.3644 18.5788 83.3902 18.4566 83.4209 18.3196C83.483 17.9968 83.5101 17.7275 83.366 17.4319C83.2411 17.1758 82.9839 16.9233 82.7004 16.8421C82.4169 16.7609 82.0789 16.7428 81.8127 16.897C81.5414 17.0658 81.2647 17.2984 81.2128 17.5919C80.3984 21.6225 79.6421 25.7223 79.5523 29.8385C79.479 33.7637 80.1793 37.7751 82.2829 41.1386C83.4795 43.0424 85.0313 44.7242 86.9905 45.8416C87.3404 45.1589 87.6756 44.4711 88.0255 43.7884C87.0765 43.5927 86.1605 43.5395 85.1844 43.6132C84.326 43.6782 83.4859 43.8806 82.6645 44.1714C81.0661 44.7192 79.5866 45.6358 78.2967 46.716C76.9426 47.8396 75.7725 49.1906 74.7924 50.6561C73.6234 52.3845 72.6541 54.2472 71.6898 56.0952C70.6104 58.1823 69.5163 60.2643 68.1105 62.1569C68.7932 62.5068 69.481 62.842 70.1637 63.1919C71.9359 58.9502 73.7495 54.4933 73.7225 49.8123C73.7073 45.9058 72.4441 41.8154 69.4758 39.1539C67.484 37.3697 64.9443 36.4623 62.4431 35.6337C62.2984 36.387 62.139 37.1353 61.9943 37.8887C65.8637 38.6476 69.8369 37.3441 73.0003 35.1552C76.5093 32.7246 78.9578 28.9945 80.8186 25.2096C81.904 23.0099 82.76 20.7147 83.3911 18.3585C83.544 17.7719 83.2962 17.0637 82.6706 16.881C82.1087 16.7039 81.3808 16.9613 81.2128 17.5919Z" fill="#231F20"/>
<path d="M30.2591 33.3685C30.1297 34.5533 29.9659 35.7427 29.7729 36.922C29.6887 37.4995 29.59 38.072 29.4765 38.6394C29.4246 38.933 29.3777 39.2119 29.3111 39.5004C29.2854 39.6227 29.2546 39.7596 29.2289 39.8819C29.1875 40.0971 29.2238 39.8965 29.2339 39.8672C29.2183 39.9602 29.2027 40.0532 29.1674 40.1557C28.6984 42.4694 28.1121 44.7427 27.433 47.0003C27.1489 47.968 26.826 48.9059 26.4393 49.8382C26.349 50.0529 26.2586 50.2677 26.1535 50.4774C26.0985 50.5896 26.0435 50.7017 25.9885 50.8139C25.9335 50.9261 25.9471 51.0292 25.9986 50.7846C25.988 50.8629 25.9137 50.9357 25.8885 51.009C25.6588 51.438 25.4195 51.8474 25.1362 52.2415C25.0019 52.4412 24.858 52.6211 24.709 52.8157C24.6494 52.8935 24.5555 52.9759 24.5106 53.0588C24.6449 52.8592 24.6095 52.9617 24.56 53.0102C24.5055 53.0734 24.456 53.1219 24.4014 53.1851C24.0499 53.5394 23.6792 53.8543 23.2696 54.1394C23.166 54.2021 23.0721 54.2845 22.9685 54.3472C22.9933 54.323 23.1807 54.2072 23.013 54.3134C22.9686 54.3472 22.9241 54.3811 22.87 54.3953C22.6579 54.5353 22.4311 54.6703 22.2043 54.8053C21.7754 55.051 21.3173 55.2866 20.8642 55.5076C20.3717 55.7477 19.8746 55.9535 19.3628 56.1543C19.0971 56.2595 18.8314 56.3647 18.5561 56.4502C18.497 56.479 18.4232 56.5028 18.3692 56.517C18.3348 56.5215 18.1085 56.6075 18.2757 56.5504C18.4576 56.4983 18.202 56.5741 18.1823 56.5837C18.1085 56.6075 18.0201 56.6263 17.9413 56.6647C16.8401 57.0067 15.7246 57.2946 14.6046 57.5481C14.1231 57.661 13.6776 58.0976 13.6773 58.6221C13.6725 59.1122 13.9612 59.6542 14.4549 59.7914C15.3983 60.0507 16.3366 60.3247 17.2593 60.6917C17.8647 60.933 18.4599 61.2035 19.0355 61.4837C19.3624 61.6291 19.6747 61.7694 20.0017 61.9148C20.1042 61.9501 20.2018 62.0001 20.2993 62.0501C20.3286 62.0602 20.3433 62.0652 20.3675 62.09C20.4797 62.145 20.4504 62.1349 20.2846 62.045C20.3089 62.0698 20.3822 62.095 20.4115 62.1051C20.6309 62.2298 20.8501 62.3545 21.0594 62.5086C21.2443 62.6378 21.4243 62.7818 21.5895 62.9206C21.6431 62.9555 21.677 62.9999 21.7306 63.0348C21.8569 63.1438 21.5071 62.8267 21.6916 63.005C21.7887 63.1039 21.8761 63.1832 21.9732 63.2822C22.3128 63.6287 22.6131 63.9944 22.8886 64.3843C22.9224 64.4288 22.9513 64.4878 22.9851 64.5323C23.1059 64.705 22.9513 64.4879 22.9417 64.4682C22.9604 64.5566 23.0913 64.7 23.1297 64.7788C23.2647 65.0056 23.385 65.2273 23.5054 65.4491C23.7314 65.8876 23.9473 66.3553 24.1193 66.808C24.2053 67.0343 24.2912 67.2606 24.3625 67.4819C24.2867 67.2262 24.4531 67.7425 24.3625 67.4819C24.3767 67.5359 24.3959 67.5753 24.4101 67.6294C24.4577 67.7769 24.5052 67.9244 24.5381 68.0668C24.6802 68.5584 24.8077 69.0449 24.9155 69.541C25.1499 70.6216 25.3251 71.731 25.4564 72.8253C25.5289 73.424 25.5963 74.0373 25.6542 74.631C25.6724 74.7684 25.676 74.9008 25.6942 75.0382C25.7034 75.1069 25.7074 75.1903 25.7166 75.259C25.7242 75.4747 25.7115 75.2736 25.712 75.2246C25.7429 75.5631 25.7446 75.8915 25.7609 76.2249C25.8857 78.9562 25.7655 81.6851 25.4053 84.3968C25.3212 84.9743 25.816 85.489 26.3344 85.6019C26.9458 85.7305 27.41 85.3823 27.6604 84.8456C29.6923 80.6114 30.0876 75.8464 31.8754 71.5117C32.0112 71.1651 32.1763 70.8285 32.3217 70.5016C32.3666 70.4187 32.4116 70.3358 32.4419 70.2479C32.507 70.1064 32.2919 70.5405 32.3969 70.3308C32.4121 70.2869 32.4368 70.2626 32.452 70.2186C32.5469 70.0382 32.6417 69.8578 32.7366 69.6774C33.1259 68.9755 33.5591 68.2887 34.0116 67.6413C34.26 67.3007 34.5085 66.96 34.7716 66.6245C34.8908 66.4688 35.0049 66.3278 35.1337 66.1919C35.1933 66.114 35.2675 66.0412 35.3271 65.9634C35.4559 65.8274 35.2726 66.0266 35.2529 66.0362C35.3024 65.9877 35.3372 65.9341 35.3867 65.8856C35.9316 65.3028 36.5154 64.7499 37.1574 64.2661C37.3155 64.1402 37.4883 64.0194 37.661 63.8986C37.6858 63.8744 37.8731 63.7586 37.6857 63.8743C37.513 63.9952 37.7055 63.8647 37.7449 63.8455C37.8287 63.7924 37.9125 63.7394 38.011 63.6913C38.3611 63.484 38.7354 63.3015 39.1143 63.1533C39.2128 63.1053 39.3209 63.077 39.4144 63.0436C39.5472 62.991 39.1587 63.1194 39.3012 63.0866C39.3553 63.0724 39.4093 63.0582 39.4684 63.0294C39.6649 62.9823 39.8468 62.9302 40.058 62.8882C40.2495 62.8558 40.4409 62.8234 40.6273 62.8056C40.6617 62.8011 40.8628 62.7884 40.6471 62.796C40.446 62.8087 40.6127 62.8006 40.6617 62.8011C40.7794 62.7925 40.8921 62.7985 41.0047 62.8045C41.4948 62.8093 42.0368 62.5206 42.174 62.027C42.3163 61.5186 42.1595 61.0221 41.7314 60.6943C40.0728 59.4182 38.2 58.4782 36.5166 57.2264C36.322 57.0774 36.1275 56.9284 35.9379 56.7648C35.899 56.735 35.8601 56.7052 35.8211 56.6754C35.7969 56.6507 35.6417 56.4825 35.7726 56.6259C35.9035 56.7694 35.7484 56.6012 35.7241 56.5764C35.6756 56.527 35.6125 56.4724 35.5639 56.4229C35.2046 56.0861 34.8896 55.7153 34.5995 55.3203C34.556 55.2562 34.5125 55.1921 34.464 55.1426C34.3624 55.0092 34.4782 55.1966 34.5075 55.2067C34.4585 55.2062 34.3386 54.9355 34.3098 54.8764C34.1798 54.6349 34.0499 54.3935 33.9397 54.1424C33.8487 53.9307 33.7627 53.7044 33.6767 53.4781C33.6337 53.365 33.5907 53.2518 33.5477 53.1386C33.6625 53.4241 33.5908 53.2518 33.567 53.178C33.5432 53.1043 33.5245 53.0159 33.4861 52.9371C33.2058 52.0374 33.0286 51.124 32.9054 50.1964C32.8735 49.9559 32.8512 49.7351 32.8339 49.4997C32.8203 49.3966 32.8066 49.2936 32.8126 49.1809C32.7985 49.1269 32.804 49.0632 32.7898 49.0091C32.7726 48.7737 32.8071 49.2446 32.7848 49.0238C32.7553 48.5383 32.7454 48.0431 32.7306 47.5626C32.697 45.5185 32.8301 43.4661 32.8945 41.4229C32.9611 38.6593 32.8807 35.8941 32.4765 33.165C32.3893 32.5613 31.693 32.1083 31.1034 32.2495C30.4598 32.4049 30.1013 32.9699 30.1879 33.6226C30.2892 34.2804 30.3709 34.9478 30.4378 35.6101C30.4642 35.9143 30.5052 36.2235 30.517 36.5226C30.5124 36.4882 30.5047 36.2725 30.5124 36.4882C30.5215 36.5569 30.5256 36.6403 30.5347 36.709C30.5429 36.8757 30.551 37.0424 30.5642 37.1945C30.6212 38.3616 30.6293 39.5282 30.6029 40.6993C30.5674 42.8016 30.4338 44.903 30.4326 47.0007C30.4324 49.0004 30.5691 51.0309 31.0988 52.9673C31.3827 53.9994 31.7347 55.0714 32.3039 55.9887C32.9066 56.9994 33.6678 57.8353 34.572 58.5893C36.3753 60.1118 38.5512 61.1235 40.4191 62.5536C40.6614 61.8502 40.9036 61.1468 41.1509 60.4288C37.6031 60.3544 34.6762 62.9034 32.6355 65.5446C31.5781 66.9016 30.7006 68.4025 29.9843 69.9589C29.0625 71.9691 28.4823 74.1297 27.9415 76.2711C27.2635 78.9062 26.6294 81.5564 25.4532 84.0199C26.2065 84.1646 26.9549 84.324 27.7082 84.4687C28.0317 82.0065 28.1544 79.5081 28.0908 77.0274C28.0176 74.527 27.7878 72.0054 27.3073 69.5451C26.8917 67.4677 26.2559 65.3637 25.1416 63.5538C24.5289 62.5724 23.8414 61.7127 22.9519 60.9638C22.1695 60.2846 21.2524 59.854 20.3155 59.433C19.6323 59.1321 18.9739 58.807 18.2856 58.5208C17.2654 58.1039 16.2245 57.7945 15.1638 57.4948C15.1171 58.2492 15.0608 58.9838 15.0141 59.7381C17.1117 59.2639 19.2006 58.672 21.1894 57.7997C23.1635 56.9223 25.1058 55.8045 26.5142 54.1423C27.8682 52.5432 28.697 50.5173 29.3343 48.5239C30.0625 46.2667 30.6588 43.9641 31.157 41.6606C31.7476 38.9462 32.2063 36.1864 32.518 33.4252C32.5779 32.8229 32.0351 32.2098 31.4323 32.1989C30.8336 32.2714 30.3194 32.7172 30.2591 33.3685Z" fill="#231F20"/>
<path d="M77.7433 82.735C77.6709 83.6116 77.5546 84.4731 77.3842 85.3487C77.4048 85.2411 77.4204 85.1481 77.4411 85.0405C77.1007 86.7428 76.5547 88.4234 75.7747 89.9743C75.8247 89.8768 75.8696 89.7939 75.9196 89.6963C75.2895 90.9546 74.5084 92.1281 73.5766 93.1677C73.6509 93.0949 73.7105 93.0171 73.7847 92.9444C73.3338 93.4447 72.8585 93.9203 72.3348 94.3464C72.0777 94.5694 71.7913 94.7822 71.5099 94.9803C71.3816 95.0673 71.2534 95.1542 71.1251 95.2412C71.4655 95.0142 71.1892 95.1977 71.1054 95.2508C71.0215 95.3039 70.9376 95.3569 70.8588 95.3954C70.2769 95.7523 69.6516 96.0451 69.0217 96.3035C68.8691 96.3657 68.7019 96.4229 68.5493 96.4851C68.4559 96.5184 68.1411 96.6231 68.5296 96.4947C68.4412 96.5134 68.3624 96.5518 68.269 96.5852C67.9199 96.6945 67.5612 96.784 67.2025 96.8736C66.5296 97.0189 65.8718 97.1202 65.1852 97.1624C65.2883 97.1487 65.3863 97.1497 65.4893 97.136C65.0038 97.1655 64.5183 97.195 64.0278 97.2391C63.6893 97.2701 63.3705 97.2914 63.075 97.4355C62.4152 97.7328 62.2256 98.5691 62.6022 99.1414C62.7953 99.4374 63.1268 99.6171 63.4043 99.811C63.8763 100.154 64.3382 100.526 64.7754 100.922C64.7026 100.848 64.6248 100.789 64.552 100.714C65.7372 101.795 66.828 103.006 67.7167 104.329C67.7359 104.368 67.7602 104.393 67.7794 104.432C67.5959 104.156 67.6682 104.279 67.7167 104.329C67.7698 104.413 67.8132 104.477 67.8663 104.561C67.9629 104.709 68.0544 104.871 68.1363 105.014C68.2855 105.295 68.4346 105.576 68.559 105.881C68.6263 106.019 68.6738 106.166 68.736 106.319C68.7598 106.393 68.7835 106.466 68.8073 106.54C68.8311 106.614 68.8691 106.742 68.7548 106.407C68.769 106.461 68.7881 106.501 68.8023 106.555C68.8974 106.85 68.9875 107.16 69.0432 107.474C69.2173 108.206 69.3029 108.957 69.3689 109.717C69.3552 109.614 69.3562 109.516 69.3425 109.413C69.5296 112.297 69.0795 115.174 68.6248 118.017C68.4948 118.776 68.3794 119.539 68.264 120.303C68.2221 120.567 68.3703 120.946 68.5351 121.134C68.7145 121.327 68.9339 121.451 69.1931 121.508C69.7605 121.621 70.3126 121.303 70.5191 120.751C70.9819 119.55 71.4447 118.349 71.9126 117.133C72.3603 115.976 72.7691 114.789 73.334 113.672C73.284 113.77 73.2391 113.853 73.1891 113.95C73.6839 112.99 74.2519 112.054 74.8538 111.163C75.1522 110.725 75.4653 110.292 75.7784 109.859C76.0465 109.509 76.3051 109.139 76.6025 108.799C76.5283 108.871 76.4687 108.949 76.3944 109.022C76.7611 108.624 77.1763 108.275 77.6253 107.971C77.6895 107.927 77.7536 107.884 77.8228 107.826C77.9708 107.729 77.5515 107.994 77.7834 107.845C77.9314 107.748 78.0743 107.666 78.2223 107.57C78.4936 107.401 78.7744 107.252 79.0553 107.103C79.6514 106.8 80.2717 106.522 80.9016 106.263C81.0542 106.201 81.2017 106.153 81.3542 106.091C81.428 106.067 81.5018 106.044 81.5806 106.005C81.62 105.986 81.6593 105.967 81.7083 105.967C81.6543 105.981 81.428 106.067 81.6003 105.996C81.8953 105.901 82.205 105.81 82.5 105.715C83.0946 105.56 83.6988 105.423 84.3167 105.39C84.2136 105.404 84.1156 105.403 84.0126 105.417C84.0616 105.417 84.1106 105.418 84.1646 105.404C84.4637 105.392 84.7633 105.331 84.9956 105.132C85.1886 104.953 85.3133 104.734 85.3697 104.474C85.4832 103.907 85.1703 103.34 84.6134 103.148C84.3643 103.063 84.1202 102.962 83.8959 102.852C83.9934 102.902 84.0763 102.947 84.1738 102.997C83.7155 102.757 83.2773 102.459 82.8886 102.112C82.9614 102.186 83.0393 102.246 83.112 102.32C82.874 102.107 82.6556 101.884 82.462 101.637C82.3553 101.518 82.2684 101.39 82.1618 101.271C82.1183 101.207 82.0602 101.138 82.0167 101.074C81.9924 101.049 81.9732 101.01 81.9489 100.985C81.9393 100.965 81.9297 100.946 81.9151 100.941C81.8428 100.817 82.0212 101.108 82.0116 101.089C81.6547 100.507 81.3372 99.9056 81.0641 99.2706C81.0069 99.1034 80.9301 98.9458 80.873 98.7786C80.8492 98.7049 80.8158 98.6114 80.792 98.5376C80.7253 98.3507 80.8588 98.7246 80.835 98.6508C80.8209 98.5968 80.8016 98.5573 80.7875 98.5033C80.6635 98.1492 80.5739 97.7905 80.4697 97.4267C80.2714 96.67 80.1271 95.8991 80.0172 95.1236C79.884 94.2253 79.7902 93.3078 79.7256 92.4004C79.7393 92.5035 79.7383 92.6015 79.752 92.7046C79.5726 90.0365 79.6483 87.3415 79.8661 84.6626C79.9164 84.0407 79.9763 83.4384 80.0412 82.8215C80.1011 82.2192 79.5582 81.6061 78.9555 81.5952C78.3179 81.6379 77.8037 82.0837 77.7433 82.735C77.5918 84.1745 77.4696 85.624 77.4111 87.0791C77.3354 88.7743 77.3331 90.4946 77.4192 92.1962C77.5239 93.9862 77.707 95.7868 78.121 97.5358C78.4828 99.1029 79.0159 100.696 79.8748 102.057C80.2899 102.709 80.7444 103.34 81.3175 103.866C81.9538 104.445 82.6159 104.903 83.4113 105.259C83.5674 105.329 83.7286 105.384 83.8751 105.435C84.0198 104.682 84.1792 103.933 84.3239 103.18C82.9608 103.235 81.668 103.609 80.394 104.072C79.12 104.535 77.8693 105.121 76.7297 105.859C76.1625 106.221 75.6245 106.593 75.1346 107.064C74.5655 107.622 74.0933 108.279 73.6262 108.921C72.4982 110.483 71.4625 112.11 70.7048 113.882C70.2783 114.882 69.9053 115.917 69.5228 116.933C69.1301 117.978 68.7278 119.003 68.3351 120.048C69.0885 120.193 69.8368 120.352 70.5902 120.497C71.0669 117.399 71.6907 114.303 71.7218 111.167C71.7278 109.579 71.6165 107.95 71.1612 106.416C70.9386 105.635 70.6423 104.877 70.2671 104.158C69.8242 103.35 69.2878 102.575 68.7166 101.854C68.0923 101.049 67.4039 100.287 66.6609 99.5885C66.2435 99.1824 65.8012 98.8006 65.3393 98.4284C64.9648 98.1355 64.5802 97.872 64.2006 97.5937C64.2734 97.668 64.3513 97.7275 64.4241 97.8018C64.5106 97.9791 64.5874 98.1367 64.6738 98.314C64.6875 98.417 64.6866 98.5151 64.7003 98.6181C64.6796 98.7258 64.6639 98.8187 64.6433 98.9264C64.5933 99.0239 64.5484 99.1068 64.4984 99.2043C64.4241 99.2771 64.3645 99.3549 64.2903 99.4277C64.1569 99.5293 63.9842 99.6501 63.8321 99.6633C63.8665 99.6587 63.8862 99.6491 63.9205 99.6446C64.009 99.6259 64.0923 99.6218 64.1807 99.603C64.4212 99.5711 64.6713 99.5589 64.9214 99.5467C64.8183 99.5603 64.7203 99.5594 64.6173 99.5731C65.3039 99.5309 66.0051 99.4937 66.6972 99.3878C67.4924 99.2683 68.2638 99.075 69.0211 98.8276C70.6341 98.2849 72.1318 97.5058 73.4607 96.4554C76.0144 94.4663 77.817 91.612 78.8763 88.5837C79.5021 86.7666 79.8838 84.8491 80.0498 82.9392C80.0951 82.3319 79.5866 81.7142 78.9641 81.7129C78.3326 81.643 77.7891 82.0787 77.7433 82.735Z" fill="#231F20"/>
<path d="M105.977 48.9707C105.907 49.5533 105.823 50.1308 105.724 50.7033C105.677 50.9822 105.625 51.2757 105.574 51.5693C105.558 51.6623 105.49 52.0978 105.542 51.7552C105.516 51.9265 105.475 52.0928 105.439 52.2444C105.188 53.4035 104.902 54.5671 104.572 55.7157C103.907 58.0274 103.105 60.3083 102.166 62.5095C101.931 63.0512 101.695 63.5929 101.454 64.1493C101.339 64.3883 101.234 64.647 101.118 64.886C101.063 64.9982 101.008 65.1104 100.948 65.2373C100.928 65.2959 100.893 65.3494 100.878 65.3934C100.833 65.4763 100.863 65.4374 100.938 65.2666C100.923 65.3105 100.893 65.3494 100.878 65.3934C100.423 66.2858 99.9002 67.1384 99.3382 67.9611C99.0498 68.37 98.7469 68.7738 98.4343 69.1579C98.2706 69.3474 98.1216 69.542 97.958 69.7315C97.9232 69.7851 97.8787 69.8189 97.8439 69.8725C98.0277 69.6243 97.9283 69.7704 97.8737 69.8336C97.7747 69.9306 97.6853 70.0474 97.5863 70.1444C96.8929 70.8727 96.156 71.5369 95.3413 72.1415C95.1191 72.3108 94.8822 72.4751 94.6504 72.6248C94.5863 72.6682 94.4731 72.7112 94.7145 72.5813C94.6504 72.6247 94.5716 72.6632 94.5074 72.7067C94.3842 72.779 94.2755 72.8563 94.1523 72.9286C93.679 73.2082 93.2012 73.4534 92.694 73.6885C92.4429 73.7988 92.1919 73.909 91.9262 74.0142C91.7933 74.0668 91.6508 74.0997 91.5326 74.1573C91.7887 74.0324 91.6802 74.1098 91.5867 74.1432C91.513 74.1669 91.4392 74.1907 91.3508 74.2094C90.8198 74.3708 90.2647 74.5075 89.7099 74.5951C89.2239 74.6736 88.7926 75.1643 88.7827 75.6691C88.7807 75.8651 88.8082 76.0712 88.8946 76.2485C88.9953 76.4799 89.301 76.7819 89.5602 76.8384C90.5824 77.0593 91.5844 77.3388 92.5561 77.7062C93.0347 77.8874 93.4935 78.0782 93.9619 78.2887C94.0741 78.3438 94.2009 78.4038 94.3131 78.4589C94.396 78.5038 94.8154 78.7138 94.4546 78.524C94.6886 78.6537 94.9276 78.7688 95.1616 78.8986C96.0586 79.3878 96.9303 79.9503 97.7525 80.5613C98.171 80.8694 98.5844 81.1921 98.9731 81.539C99.0605 81.6183 99.1383 81.6779 99.2258 81.7572C99.2743 81.8067 99.3279 81.8415 99.3764 81.891C99.1091 81.6678 99.2889 81.8117 99.3521 81.8662C99.5513 82.0496 99.7358 82.2278 99.9349 82.4112C100.682 83.144 101.386 83.9107 102.024 84.7208C102.344 85.1259 102.649 85.5259 102.929 85.9502C103.006 86.0588 103.083 86.1674 103.161 86.276C103.19 86.3351 103.238 86.3846 103.267 86.4437C103.093 86.1871 103.17 86.2957 103.214 86.3599C103.373 86.6114 103.523 86.8433 103.667 87.0898C104.188 87.9576 104.659 88.8739 105.062 89.7993C105.273 90.2817 105.464 90.7737 105.65 91.2804C105.678 91.3885 105.726 91.487 105.755 91.5951C105.616 91.236 105.779 91.6689 105.797 91.7573C105.873 92.0129 105.949 92.2685 106.025 92.5242C106.333 93.63 106.566 94.7596 106.702 95.8883C106.734 96.1778 106.765 96.4673 106.787 96.737C106.804 96.9725 106.77 96.4526 106.782 96.7027C106.786 96.7861 106.785 96.8841 106.79 96.9674C106.793 97.0998 106.797 97.2322 106.8 97.3646C106.824 97.9627 106.813 98.5655 106.773 99.1582C106.742 99.7705 107.236 100.383 107.858 100.384C108.152 100.387 108.472 100.317 108.689 100.113C108.932 99.8854 109.037 99.6266 109.099 99.3038C109.104 99.2891 109.156 98.9955 109.125 99.1815C109.094 99.3674 109.141 99.0885 109.146 99.0739C109.166 98.9663 109.187 98.8586 109.208 98.751C109.259 98.5065 109.311 98.2619 109.377 98.0224C109.474 97.6459 109.57 97.2695 109.682 96.8981C109.864 96.3216 110.081 95.7404 110.263 95.1639C110.51 94.4459 110.708 93.7273 110.882 92.9841C111.011 92.4217 111.124 91.8543 111.237 91.2869C111.305 90.9493 111.372 90.6118 111.444 90.2596C111.449 90.196 111.469 90.1373 111.475 90.0737C111.527 89.7801 111.444 90.2596 111.475 90.0737C111.516 89.9074 111.537 89.7508 111.578 89.5846C111.804 88.4987 112.05 87.4033 112.384 86.3381C112.557 85.7909 112.738 85.2633 112.969 84.7363C113.069 84.4922 113.175 84.2335 113.305 83.9995C113.14 84.287 113.384 83.8631 113.405 83.8045C113.484 83.668 113.544 83.5412 113.624 83.4047C113.869 82.9807 114.152 82.5866 114.445 82.2121C114.569 82.0417 114.708 81.8765 114.847 81.7112C114.906 81.6334 114.966 81.5556 115.035 81.4974C115.07 81.4439 115.114 81.41 115.149 81.3564C115.333 81.1573 115.065 81.4585 115.144 81.3711C115.763 80.7155 116.416 80.1044 117.128 79.5625C117.325 79.4175 117.586 79.2779 117.774 79.1131C117.754 79.1228 117.542 79.2628 117.71 79.1566C117.774 79.1132 117.833 79.0843 117.897 79.0409C118.001 78.9782 118.104 78.9155 118.208 78.8528C118.637 78.6071 119.075 78.3811 119.538 78.1798C119.769 78.0792 120.015 77.9836 120.261 77.888C120.448 77.8212 120.202 77.9168 120.188 77.9118C120.256 77.9027 120.321 77.8592 120.389 77.8501C120.517 77.8121 120.645 77.7742 120.758 77.7312C121.25 77.589 121.741 77.4959 122.256 77.4275C122.737 77.3636 123.178 76.8436 123.183 76.3535C123.188 75.8144 122.894 75.385 122.406 75.1841C121.903 74.9782 121.405 74.7576 120.912 74.5224C120.8 74.4673 120.688 74.4123 120.576 74.3573C120.517 74.3371 120.469 74.2876 120.41 74.2674C120.708 74.3537 120.508 74.3174 120.425 74.2725C120.176 74.1376 119.922 74.0175 119.688 73.8877C118.753 73.3687 117.846 72.8108 116.99 72.2043C116.557 71.8913 116.138 71.5832 115.73 71.2459C115.54 71.0823 115.346 70.9333 115.142 70.7646C115.117 70.7399 114.85 70.5166 114.85 70.5166C114.889 70.5464 114.923 70.5909 114.962 70.6207C114.923 70.5909 114.889 70.5464 114.85 70.5166C114.801 70.4672 114.738 70.4126 114.69 70.3631C113.908 69.6349 113.19 68.8632 112.527 68.0283C112.198 67.6035 111.869 67.1787 111.579 66.7347C111.545 66.6903 111.526 66.6508 111.492 66.6064C111.521 66.6655 111.681 66.868 111.492 66.6064C111.429 66.5029 111.352 66.3943 111.289 66.2907C111.14 66.0589 111.01 65.8174 110.88 65.576C110.63 65.1128 110.384 64.6349 110.174 64.1525C109.953 63.6504 109.787 63.134 109.581 62.637C109.705 62.9421 109.557 62.5633 109.538 62.4748C109.5 62.347 109.457 62.2339 109.419 62.1061C109.334 61.8307 109.263 61.5605 109.192 61.2902C109.051 60.7496 108.943 60.2045 108.836 59.6594C108.636 58.5742 108.505 57.4799 108.413 56.3664C108.413 56.3174 108.399 56.2634 108.4 56.2144C108.4 56.1654 108.386 56.1113 108.386 56.0623C108.395 56.229 108.404 56.2487 108.396 56.131C108.382 55.9789 108.374 55.8122 108.361 55.6601C108.349 55.361 108.338 55.062 108.326 54.7629C108.307 54.15 108.294 53.5225 108.29 52.9147C108.283 51.6501 108.305 50.3956 108.328 49.1411C108.339 48.5383 107.879 47.9211 107.242 47.9148C106.6 47.8741 105.988 48.3189 105.977 48.9707C105.877 53.5426 105.791 58.2666 107.14 62.6814C107.823 64.933 108.856 67.0263 110.263 68.937C111.593 70.7392 113.229 72.319 115.01 73.6698C117.038 75.2044 119.286 76.4373 121.644 77.3969C121.69 76.6425 121.747 75.9079 121.793 75.1536C117.897 75.6639 114.446 78.1636 112.218 81.347C110.861 83.2891 110.118 85.5412 109.61 87.8251C109.472 88.4658 109.338 89.0918 109.214 89.7376C109.178 89.8892 109.162 90.0311 109.126 90.1827C109.121 90.2464 109.1 90.305 109.095 90.3687C109.043 90.6622 109.126 90.1827 109.09 90.3833C109.038 90.6769 108.966 90.98 108.914 91.2736C108.719 92.1735 108.524 93.0734 108.241 93.943C108.028 94.6075 107.787 95.2619 107.574 95.9264C107.245 96.9769 107.004 98.0577 106.792 99.1486C107.561 99.2003 108.335 99.2374 109.119 99.2942C109.363 94.9197 108.26 90.5074 106.127 86.7073C103.998 82.8926 100.88 79.5729 97.1228 77.3447C95.0276 76.0986 92.7335 75.1446 90.3466 74.6504C90.2999 75.4048 90.2435 76.1394 90.1968 76.8937C94.483 76.1569 98.1419 73.4338 100.739 70.0336C102.085 68.2677 103.089 66.3025 103.972 64.2625C104.96 62.0128 105.816 59.7177 106.526 57.3721C107.337 54.6844 107.972 51.9362 108.323 49.1557C108.397 48.5585 107.84 47.9403 107.237 47.9294C106.551 47.8736 106.066 48.3295 105.977 48.9707Z" fill="#231F20"/>
</svg>
