<svg width="110" height="104" viewBox="0 0 110 104" fill="none" xmlns="http://www.w3.org/2000/svg">
<path d="M50.5452 1.19445C50.6846 3.31775 50.6536 5.45654 50.4521 7.56434C50.4211 7.82781 50.4056 8.09129 50.3591 8.33926C50.3436 8.46325 50.3282 8.58724 50.3127 8.71123C50.2972 8.89721 50.3592 8.41676 50.3127 8.69574C50.2972 8.77323 50.2971 8.86622 50.2816 8.94371C50.2042 9.47066 50.1112 9.9976 50.0182 10.5246C49.8167 11.5785 49.5533 12.6324 49.2433 13.6553C49.0883 14.1357 48.9333 14.6162 48.7628 15.0966C48.6698 15.3291 48.5923 15.5616 48.4838 15.7941C48.4683 15.8405 48.4063 15.918 48.4063 15.98C48.4063 15.8251 48.4993 15.7786 48.4373 15.8871C48.3753 16.011 48.3288 16.135 48.2668 16.259C47.8949 17.0804 47.4454 17.8709 46.9495 18.6148C46.841 18.7853 46.717 18.9557 46.593 19.1262C46.531 19.2192 46.4535 19.3122 46.3915 19.4052C46.3605 19.4362 46.3295 19.4827 46.314 19.5137C46.469 19.2347 46.376 19.4362 46.3295 19.4982C46.0505 19.8547 45.7406 20.2111 45.4306 20.5521C45.1207 20.8776 44.8107 21.1875 44.4697 21.4975C44.3147 21.637 44.1443 21.7765 43.9738 21.916C43.8963 21.978 43.8188 22.04 43.7413 22.102C43.6173 22.195 43.9738 21.916 43.7878 22.071C43.7258 22.1174 43.6793 22.1485 43.6173 22.1949C43.2143 22.4894 42.7958 22.7684 42.3619 23.0164C41.9279 23.2644 41.4785 23.4503 41.0291 23.6828C41.0446 23.6673 41.2925 23.5743 41.122 23.6363C41.06 23.6673 40.9981 23.6828 40.9361 23.7138C40.8121 23.7603 40.6881 23.8068 40.5486 23.8533C40.3161 23.9308 40.0836 24.0083 39.8357 24.0703C39.3552 24.2098 38.8592 24.3027 38.3633 24.3647C38.0998 24.3957 37.7899 24.6747 37.6659 24.8917C37.5419 25.1242 37.4954 25.3721 37.5264 25.6356C37.6039 26.1936 38.0843 26.643 38.6733 26.643C39.8047 26.6275 40.936 26.6275 42.0674 26.705C42.3309 26.7205 42.5789 26.7515 42.8424 26.7825C42.8579 26.7825 43.1369 26.829 42.9509 26.798C42.7494 26.767 43.0283 26.8135 43.0593 26.8135C43.1988 26.829 43.3383 26.86 43.4778 26.891C44.0358 26.9995 44.5782 27.139 45.1052 27.3095C45.1981 27.3405 45.3066 27.3869 45.3996 27.4179C45.4461 27.4334 45.5081 27.4644 45.5546 27.4799C45.6476 27.5109 45.7406 27.6039 45.4926 27.449C45.6786 27.5729 45.9111 27.6349 46.1126 27.7434C46.5 27.9449 46.872 28.1619 47.213 28.4099C47.306 28.4718 47.3989 28.5338 47.4919 28.6113C47.5229 28.6423 47.5694 28.6733 47.6004 28.6888C47.7554 28.7973 47.5384 28.6423 47.5229 28.6268C47.6779 28.7818 47.8794 28.9213 48.0499 29.0608C48.3908 29.3708 48.7163 29.6807 49.0263 30.0217C49.1657 30.1767 49.3052 30.3317 49.4292 30.4867C49.4912 30.5642 49.5533 30.6416 49.6308 30.7346C49.7237 30.8586 49.4602 30.5022 49.5997 30.6881C49.6462 30.7501 49.6772 30.7966 49.7237 30.8586C49.9872 31.2151 50.2197 31.5871 50.4521 31.959C50.6846 32.3465 50.9016 32.7494 51.1031 33.1524C51.1961 33.3539 51.2891 33.5554 51.3821 33.7568C51.3976 33.8033 51.413 33.8498 51.444 33.8808C51.32 33.5864 51.3975 33.7568 51.4285 33.8343C51.475 33.9583 51.5216 34.0668 51.5681 34.1908C51.9245 35.1207 52.188 36.0661 52.3895 37.027C52.4515 37.306 52.498 37.5695 52.5444 37.8485C52.5599 37.9569 52.5754 38.0809 52.6064 38.1894C52.6219 38.2824 52.6375 38.3599 52.6375 38.4529C52.6375 38.4064 52.6219 38.3599 52.6219 38.3134C52.6219 38.3754 52.6375 38.4219 52.6375 38.4839C52.6994 39.0418 52.7614 39.5843 52.7924 40.1423C52.9629 42.6995 52.8079 45.2723 52.6375 47.814C52.6065 48.3875 53.1024 48.8834 53.6449 48.9609C54.2183 49.0384 54.7452 48.6819 54.9157 48.124C56.1401 44.2339 56.2951 40.1267 57.2095 36.1746C57.411 35.2912 57.6434 34.4078 57.9534 33.5399C58.0154 33.3539 58.0929 33.1679 58.1549 32.9974C58.1859 32.9044 58.2479 32.8114 58.2789 32.703C58.2789 32.7185 58.1704 32.9664 58.2479 32.7959C58.2634 32.7494 58.2944 32.6875 58.3099 32.641C58.4804 32.269 58.6509 31.9125 58.8369 31.5561C59.2088 30.8431 59.6428 30.1612 60.1232 29.5258C60.1542 29.4948 60.1852 29.4483 60.2007 29.4173C60.0457 29.6497 60.0922 29.5567 60.1387 29.4948C60.2007 29.4173 60.2627 29.3398 60.3247 29.2623C60.4487 29.1073 60.5882 28.9523 60.7276 28.7973C60.9911 28.5028 61.2701 28.2239 61.5491 27.9759C61.7196 27.8209 61.8745 27.6814 62.0605 27.5419C62.0915 27.5109 62.1225 27.4954 62.169 27.4644C61.8901 27.6814 62.0915 27.5264 62.138 27.4799C62.231 27.4179 62.3085 27.356 62.4015 27.294C62.7425 27.0615 63.0989 26.8445 63.4709 26.6585C63.5639 26.612 63.6724 26.5655 63.7654 26.519C63.8119 26.5035 63.8429 26.488 63.8894 26.4725C64.1064 26.3795 63.6569 26.5655 63.8584 26.488C64.0599 26.4105 64.2613 26.3331 64.4783 26.2711C64.6953 26.2091 64.8968 26.1471 65.1138 26.1006C65.2068 26.0851 65.3152 26.0541 65.4082 26.0386C65.5012 26.0231 65.9351 25.9611 65.5322 26.0076C65.8421 25.9611 66.1367 25.9146 66.3536 25.6666C66.5241 25.4806 66.6326 25.2637 66.6791 25.0002C66.7566 24.4732 66.4156 23.8378 65.8421 23.7293C65.3927 23.6363 64.9433 23.5278 64.4938 23.3883C64.2923 23.3263 64.1063 23.2489 63.9048 23.1869C63.7963 23.1404 63.6879 23.0939 63.5794 23.0629C63.9359 23.2023 63.5329 23.0319 63.4399 23.0009C62.6185 22.6134 61.8281 22.1484 61.0997 21.606C61.0687 21.575 61.0221 21.544 60.9911 21.5285C60.8362 21.4045 61.0531 21.575 61.0686 21.5905C60.9911 21.513 60.8827 21.451 60.7897 21.3735C60.6037 21.2185 60.4332 21.0791 60.2627 20.9241C59.9217 20.6141 59.5808 20.2886 59.2708 19.9322C58.9608 19.5912 58.6664 19.2502 58.3719 18.8938C58.3409 18.8473 58.3099 18.8008 58.2634 18.7543C58.2789 18.7698 58.4339 18.9712 58.3099 18.8163C58.2324 18.7233 58.1704 18.6303 58.0929 18.5373C57.9534 18.3513 57.814 18.1498 57.69 17.9638C57.1785 17.2044 56.729 16.3985 56.3261 15.5771C56.2331 15.3756 56.1401 15.1896 56.0471 14.9881C56.0161 14.9416 56.0006 14.8796 55.9851 14.8331C55.9077 14.6627 56.0161 14.8951 56.0161 14.9106C55.9696 14.7712 55.9076 14.6472 55.8611 14.5232C55.6906 14.1047 55.5356 13.6708 55.3806 13.2368C54.7297 11.3305 54.2493 9.36217 53.8618 7.37836C53.6448 6.27797 53.4434 5.16207 53.2729 4.04618C53.1954 3.51923 53.1179 3.00778 53.0404 2.48083C53.0094 2.21736 52.9629 1.96938 52.9319 1.70591C52.9164 1.61292 52.8544 1.17895 52.9164 1.56642C52.9009 1.42693 52.8854 1.30294 52.8699 1.16346C52.8234 0.837989 52.7614 0.574507 52.5289 0.342029C52.3275 0.140548 52.002 -0.0144298 51.7075 0.00106871C51.4131 0.0165672 51.0876 0.109551 50.8861 0.342029C50.6846 0.590005 50.4987 0.899976 50.5452 1.19445C51.0876 5.27056 51.7076 9.39316 52.9629 13.3143C54.1718 17.0494 56.1401 20.6141 59.2243 23.1094C60.9757 24.5197 62.9905 25.6046 65.2068 26.0231C65.3153 25.2636 65.4083 24.5042 65.5167 23.7448C64.5558 23.8688 63.6724 24.1168 62.7735 24.5042C61.983 24.8452 61.2546 25.3101 60.5727 25.8526C59.2398 26.891 58.1394 28.2394 57.2715 29.6807C56.3571 31.1841 55.6906 32.8424 55.2412 34.5473C54.6987 36.5621 54.3888 38.6389 54.0788 40.7002C53.7378 43.025 53.3813 45.3498 52.6684 47.597C53.4278 47.7055 54.1873 47.7985 54.9467 47.907C55.2412 43.3194 55.5047 38.5149 53.9548 34.0978C52.6684 30.4092 50.1421 26.953 46.469 25.4031C44.0047 24.3647 41.308 24.3337 38.6733 24.3647C38.7818 25.1242 38.8747 25.8836 38.9832 26.643C42.8889 26.1006 46.221 23.5743 48.4993 20.4746C51.0256 17.0339 52.126 12.7099 52.653 8.52526C52.9629 6.09199 53.0249 3.64321 52.8544 1.20994C52.8079 0.6055 52.343 0.0165559 51.692 0.0475529C51.1031 0.0630515 50.4987 0.54351 50.5452 1.19445Z" fill="#231F20"/>
<path d="M7.50565 32.703C7.76913 33.8654 8.00161 35.0432 8.20309 36.2211C8.31158 36.7946 8.40461 37.368 8.4821 37.9415C8.5286 38.2359 8.57507 38.5149 8.60606 38.8094C8.62156 38.9334 8.63703 39.0728 8.65253 39.1968C8.68353 39.4138 8.65253 39.2123 8.65253 39.1813C8.66803 39.2743 8.68356 39.3673 8.68356 39.4758C8.99353 41.8161 9.17948 44.1564 9.27247 46.5121C9.31896 47.5196 9.31903 48.5115 9.25703 49.5189C9.24153 49.7513 9.22597 49.9838 9.19498 50.2163C9.17948 50.3403 9.16401 50.4643 9.14851 50.5882C9.13301 50.7122 9.17951 50.8052 9.14851 50.5573C9.16401 50.6347 9.11748 50.7277 9.11748 50.8052C9.03999 51.2857 8.947 51.7506 8.80751 52.2156C8.74552 52.4481 8.66804 52.6651 8.59055 52.8975C8.55955 52.9905 8.4976 53.099 8.4821 53.192C8.5441 52.9595 8.54405 53.068 8.51306 53.13C8.48206 53.2075 8.45105 53.2695 8.42005 53.347C8.20307 53.7964 7.95511 54.2149 7.66064 54.6179C7.58315 54.7109 7.52117 54.8193 7.44367 54.9123C7.45917 54.8813 7.59869 54.7109 7.4747 54.8659C7.4437 54.9123 7.41268 54.9588 7.36618 54.9898C7.2112 55.1913 7.04068 55.3928 6.8702 55.5943C6.54473 55.9662 6.18831 56.3382 5.83184 56.6947C5.44438 57.0821 5.04137 57.4386 4.62291 57.7951C4.40593 57.981 4.18898 58.167 3.95651 58.3375C3.91001 58.384 3.84802 58.4305 3.80152 58.4615C3.77052 58.477 3.58454 58.632 3.72403 58.5235C3.87901 58.415 3.66203 58.57 3.64653 58.5855C3.58454 58.632 3.50708 58.6785 3.44508 58.7405C2.51517 59.4224 1.55426 60.0578 0.577858 60.6623C0.159397 60.9258 -0.119637 61.4837 0.0508472 61.9797C0.205832 62.4446 0.65532 62.8631 1.16677 62.8321C2.14318 62.7701 3.11959 62.7236 4.11149 62.7701C4.76243 62.8011 5.41337 62.8631 6.04881 62.9406C6.40527 62.9716 6.74621 63.0026 7.10268 63.0336C7.21117 63.0336 7.31967 63.0491 7.42816 63.0646C7.45916 63.0646 7.47466 63.0646 7.50565 63.0801C7.62964 63.0956 7.59863 63.0956 7.41265 63.0646C7.44364 63.0801 7.5212 63.0801 7.55219 63.0801C7.80017 63.1266 8.04812 63.1731 8.29609 63.2505C8.51307 63.3125 8.73007 63.39 8.93155 63.4675C8.99354 63.483 9.04005 63.514 9.10205 63.5295C9.25703 63.5915 8.82303 63.4055 9.0555 63.514C9.17949 63.576 9.28803 63.6225 9.41202 63.6845C9.84597 63.9015 10.2489 64.1495 10.6364 64.4284C10.6829 64.4594 10.7294 64.5059 10.7759 64.5369C10.9463 64.6609 10.7294 64.5059 10.7139 64.4904C10.7604 64.5679 10.9308 64.6609 10.9928 64.7229C11.1943 64.8934 11.3803 65.0639 11.5663 65.2344C11.9228 65.5753 12.2792 65.9473 12.5892 66.3192C12.7442 66.5052 12.8992 66.6912 13.0387 66.8772C12.8837 66.6602 13.2091 67.0942 13.0387 66.8772C13.0697 66.9237 13.1007 66.9547 13.1317 67.0012C13.2247 67.1252 13.3176 67.2492 13.3951 67.3732C13.6896 67.7916 13.9685 68.2101 14.232 68.644C14.8054 69.5894 15.3324 70.5813 15.8129 71.5733C16.0764 72.1157 16.3398 72.6736 16.5878 73.2161C16.6498 73.3401 16.6963 73.4641 16.7583 73.5881C16.7893 73.6501 16.8203 73.7276 16.8513 73.7896C16.9288 73.991 16.8513 73.805 16.8358 73.7585C16.9753 74.0685 17.0838 74.3785 17.2077 74.6885C18.2151 77.2302 18.9901 79.8495 19.5325 82.5307C19.641 83.1042 20.2765 83.4296 20.8034 83.3676C21.4234 83.2901 21.7488 82.8097 21.8108 82.2208C22.3533 77.5557 21.1754 72.9216 21.4543 68.2411C21.4698 67.8691 21.5163 67.4971 21.5473 67.1407C21.5628 67.0477 21.5784 66.9547 21.5784 66.8617C21.5939 66.7067 21.5318 67.1872 21.5628 66.9547C21.5628 66.9082 21.5784 66.8772 21.5784 66.8307C21.6094 66.6292 21.6403 66.4277 21.6713 66.2263C21.8108 65.4358 21.9968 64.6454 22.2137 63.886C22.3377 63.483 22.4617 63.0801 22.6012 62.6771C22.6632 62.4911 22.7252 62.3206 22.8027 62.1502C22.8337 62.0572 22.8802 61.9642 22.9112 61.8712C22.9887 61.7007 22.8802 61.9487 22.8647 61.9642C22.8957 61.9022 22.9112 61.8402 22.9422 61.7782C23.2677 61.0498 23.6396 60.3368 24.0891 59.6704C24.1976 59.4999 24.3216 59.3294 24.4456 59.1589C24.4611 59.1279 24.6005 58.9575 24.461 59.1279C24.337 59.2984 24.4766 59.1124 24.5076 59.0814C24.5696 59.004 24.6315 58.9265 24.709 58.849C24.9725 58.539 25.267 58.2445 25.5769 57.9811C25.6544 57.9036 25.7474 57.8416 25.8249 57.7796C25.9334 57.6866 25.6079 57.9345 25.7319 57.8571C25.7784 57.8261 25.8249 57.7951 25.8714 57.7486C26.0419 57.6401 26.1969 57.5316 26.3829 57.4231C26.5534 57.3301 26.7238 57.2371 26.8943 57.1596C26.9253 57.1441 27.1113 57.0666 26.9098 57.1441C26.7239 57.2216 26.8789 57.1596 26.9253 57.1441C27.0338 57.0976 27.1423 57.0666 27.2508 57.0356C27.7157 56.8807 28.1342 56.4312 28.1032 55.9197C28.0722 55.3928 27.7622 54.9743 27.2508 54.8039C25.2669 54.1374 23.1902 53.8584 21.1909 53.223C20.9584 53.1455 20.7259 53.068 20.4935 52.975C20.447 52.9595 20.4004 52.944 20.3539 52.9285C20.3229 52.913 20.1215 52.8045 20.2919 52.8975C20.4624 52.9905 20.261 52.882 20.23 52.8665C20.168 52.8355 20.0905 52.8045 20.0285 52.7736C19.579 52.5721 19.1606 52.3241 18.7576 52.0451C18.6956 51.9986 18.6336 51.9521 18.5716 51.9211C18.4321 51.8281 18.6026 51.9676 18.6336 51.9676C18.5871 51.9831 18.3856 51.7661 18.3391 51.7196C18.1376 51.5337 17.9362 51.3477 17.7502 51.1462C17.5952 50.9757 17.4402 50.7897 17.2852 50.6038C17.2077 50.5108 17.1303 50.4178 17.0528 50.3248C17.2542 50.5573 17.1303 50.4178 17.0838 50.3558C17.0373 50.2938 16.9908 50.2163 16.9288 50.1543C16.3709 49.3949 15.9059 48.5889 15.4874 47.752C15.3789 47.535 15.2859 47.3336 15.1929 47.1166C15.1464 47.0236 15.1 46.9306 15.069 46.8221C15.038 46.7756 15.0225 46.7136 14.9915 46.6671C14.8985 46.4502 15.0845 46.8841 14.9915 46.6826C14.8055 46.2332 14.635 45.7682 14.4645 45.3187C13.767 43.3969 13.2246 41.4131 12.6202 39.4603C11.7832 36.8256 10.8069 34.2373 9.53597 31.7885C9.257 31.2461 8.45111 31.0446 7.93966 31.3701C7.38171 31.7265 7.22669 32.3775 7.52117 32.9664C7.83114 33.5554 8.12564 34.1598 8.40461 34.7643C8.5286 35.0432 8.66807 35.3222 8.77656 35.6012C8.76106 35.5702 8.68356 35.3687 8.76105 35.5702C8.79204 35.6322 8.82306 35.7097 8.85405 35.7717C8.91605 35.9266 8.978 36.0816 9.03999 36.2211C9.47395 37.306 9.86143 38.4064 10.2179 39.5223C10.8688 41.5216 11.4268 43.5519 12.1087 45.5357C12.7597 47.4265 13.5501 49.3019 14.6815 50.9602C15.286 51.8436 15.9678 52.7425 16.8048 53.4245C17.7037 54.1839 18.6956 54.7264 19.796 55.1448C21.9968 55.9972 24.3836 56.2452 26.6154 56.9891C26.6154 56.2452 26.6154 55.5013 26.6154 54.7419C23.2367 55.8268 21.2994 59.1899 20.23 62.3516C19.672 63.979 19.3311 65.6838 19.1606 67.3886C18.9436 69.5894 19.0985 71.8212 19.2845 74.022C19.5015 76.7343 19.765 79.4465 19.455 82.1588C20.2145 82.0503 20.9739 81.9573 21.7333 81.8488C21.2374 79.4155 20.5399 77.0132 19.672 74.6885C18.7886 72.3482 17.7502 70.0389 16.4948 67.8691C15.4254 66.0403 14.1391 64.2579 12.4962 62.9096C11.5973 62.1811 10.6673 61.5922 9.58244 61.1737C8.62153 60.7863 7.61416 60.6778 6.59125 60.5848C5.84733 60.5228 5.11893 60.4298 4.375 60.3833C3.2746 60.3213 2.18967 60.3678 1.08928 60.4298C1.29076 61.1582 1.47671 61.8712 1.67819 62.5996C3.50702 61.4682 5.28936 60.2283 6.88571 58.756C8.46656 57.2836 9.93897 55.5943 10.7294 53.564C11.4888 51.6112 11.6128 49.4259 11.5663 47.3336C11.5198 44.9623 11.3338 42.591 11.0548 40.2507C10.7293 37.492 10.2644 34.7333 9.65993 32.021C9.52044 31.4321 8.80756 31.0291 8.23411 31.2151C7.69166 31.4786 7.35067 32.0675 7.50565 32.703Z" fill="#231F20"/>
<path d="M68.4768 63.9169C68.6938 64.7694 68.8644 65.6218 68.9883 66.5052C68.9728 66.3967 68.9573 66.3037 68.9418 66.1952C69.1743 67.9156 69.2053 69.6824 68.9728 71.4027C68.9883 71.2942 69.0038 71.2013 69.0193 71.0928C68.8333 72.4876 68.4768 73.8515 67.9344 75.1379C67.9809 75.0449 68.0119 74.9519 68.0584 74.8589C67.795 75.4789 67.5005 76.0833 67.144 76.6567C66.9736 76.9512 66.772 77.2457 66.5706 77.5247C66.4776 77.6486 66.3846 77.7726 66.2916 77.8966C66.5396 77.5712 66.3381 77.8346 66.2761 77.9121C66.2141 77.9896 66.1521 78.0671 66.0901 78.1291C65.6561 78.656 65.1602 79.1365 64.6488 79.586C64.5248 79.6945 64.3853 79.8029 64.2613 79.9114C64.1838 79.9734 63.9203 80.1749 64.2458 79.9269C64.1683 79.9734 64.1063 80.0354 64.0288 80.0974C63.7343 80.3144 63.4244 80.5159 63.1144 80.7173C62.5255 81.0738 61.9365 81.3838 61.3011 81.6473C61.3941 81.6008 61.487 81.5698 61.58 81.5233C61.1305 81.7093 60.6811 81.8952 60.2317 82.0967C59.9217 82.2362 59.6273 82.3602 59.3948 82.5927C58.8678 83.0886 58.9608 83.941 59.5032 84.3595C59.7822 84.5765 60.1542 84.6385 60.4797 84.7315C61.0376 84.902 61.5955 85.1034 62.138 85.3359C62.045 85.2894 61.952 85.2584 61.859 85.2119C63.3314 85.8474 64.7572 86.6378 66.0281 87.5987C66.0591 87.6297 66.0901 87.6452 66.1211 87.6762C65.8576 87.4747 65.9661 87.5677 66.0281 87.5987C66.1056 87.6607 66.1676 87.7072 66.2451 87.7692C66.3846 87.8777 66.5241 88.0017 66.6481 88.1102C66.8805 88.3271 67.113 88.5441 67.33 88.7921C67.4385 88.9006 67.5315 89.0246 67.6399 89.1485C67.6864 89.2105 67.7329 89.2725 67.7794 89.3345C67.8259 89.3965 67.9035 89.505 67.6865 89.226C67.7175 89.2725 67.7484 89.3035 67.7794 89.35C67.9654 89.598 68.1514 89.8615 68.3064 90.1405C68.7094 90.7759 69.0348 91.4578 69.3448 92.1553C69.2983 92.0623 69.2673 91.9693 69.2208 91.8763C70.3367 94.542 70.8481 97.4093 71.3441 100.245C71.4681 101.005 71.6076 101.764 71.7471 102.524C71.7935 102.787 72.057 103.097 72.274 103.221C72.5065 103.345 72.7545 103.392 73.018 103.361C73.5914 103.283 74.0099 102.803 74.0254 102.214C74.0719 100.927 74.1183 99.6411 74.1648 98.3392C74.2113 97.0993 74.2113 95.8439 74.3818 94.604C74.3663 94.7125 74.3508 94.8055 74.3353 94.914C74.4903 93.8446 74.7228 92.7752 75.0017 91.7368C75.1412 91.2253 75.2962 90.7139 75.4512 90.2025C75.5907 89.784 75.7147 89.35 75.8852 88.9316C75.8387 89.0246 75.8077 89.1176 75.7612 89.2105C75.9781 88.7146 76.2572 88.2496 76.5826 87.8157C76.6291 87.7537 76.6756 87.6917 76.7221 87.6142C76.8306 87.4747 76.5206 87.8622 76.6911 87.6452C76.7996 87.5057 76.9081 87.3817 77.0166 87.2422C77.218 86.9942 77.435 86.7618 77.652 86.5293C78.117 86.0488 78.6129 85.5839 79.1244 85.1344C79.2484 85.0259 79.3723 84.9329 79.4963 84.8245C79.5583 84.778 79.6203 84.7315 79.6823 84.6695C79.7133 84.6385 79.7443 84.6075 79.7908 84.592C79.7443 84.623 79.5584 84.778 79.6978 84.654C79.9458 84.468 80.2093 84.282 80.4573 84.096C80.9687 83.7551 81.4956 83.4296 82.0691 83.1971C81.9761 83.2436 81.8831 83.2746 81.7901 83.3211C81.8366 83.3056 81.8831 83.2901 81.9296 83.2591C82.2086 83.1506 82.4721 82.9956 82.627 82.7322C82.751 82.4997 82.7975 82.2517 82.7665 81.9882C82.689 81.4148 82.2086 80.9808 81.6196 80.9808C81.3562 80.9808 81.0927 80.9653 80.8447 80.9343C80.9532 80.9498 81.0462 80.9653 81.1547 80.9808C80.6432 80.9033 80.1318 80.7638 79.6513 80.5624C79.7443 80.6089 79.8373 80.6399 79.9303 80.6864C79.6358 80.5624 79.3568 80.4229 79.0933 80.2524C78.9538 80.1749 78.8299 80.0819 78.6904 80.0044C78.6284 79.9579 78.5509 79.9114 78.4889 79.8649C78.4579 79.8494 78.4269 79.8184 78.3959 79.8029C78.3804 79.7874 78.3649 79.7719 78.3494 79.7719C78.2409 79.6789 78.5044 79.8959 78.4889 79.8804C77.962 79.4465 77.466 78.9815 77.001 78.4701C76.8925 78.3306 76.7686 78.2066 76.6601 78.0671C76.6136 78.0051 76.5516 77.9276 76.5051 77.8656C76.3811 77.7106 76.6291 78.0206 76.5826 77.9586C76.5516 77.9121 76.5206 77.8811 76.4896 77.8346C76.2571 77.5402 76.0556 77.2302 75.8386 76.9202C75.4047 76.2693 75.0173 75.5873 74.6608 74.8899C74.2424 74.084 73.8549 73.2471 73.4984 72.4101C73.5449 72.5031 73.5759 72.5961 73.6224 72.6891C72.584 70.2249 71.778 67.6521 71.1116 65.0483C70.9566 64.4439 70.8172 63.855 70.6777 63.2505C70.5382 62.6616 69.8252 62.2586 69.2518 62.4446C68.6628 62.6926 68.3219 63.2815 68.4768 63.9169C68.8023 65.3273 69.1588 66.7377 69.5773 68.1326C70.0577 69.7599 70.6157 71.3872 71.2511 72.9681C71.9331 74.6264 72.6925 76.2693 73.6534 77.7881C74.5058 79.152 75.5287 80.4849 76.7841 81.4923C77.3885 81.9727 78.024 82.4222 78.7369 82.7322C79.5273 83.0731 80.3023 83.2901 81.1702 83.3676C81.3407 83.3831 81.5111 83.3831 81.6661 83.3831C81.5576 82.6237 81.4646 81.8642 81.3561 81.1048C80.0853 81.6008 78.9848 82.3757 77.9309 83.2281C76.877 84.0805 75.8852 85.0414 75.0483 86.1108C74.6298 86.6378 74.2423 87.1647 73.9324 87.7692C73.5759 88.4821 73.3434 89.257 73.111 90.0165C72.553 91.8608 72.1035 93.7361 71.964 95.6579C71.8865 96.7428 71.8711 97.8432 71.8401 98.9281C71.8091 100.044 71.7625 101.144 71.7315 102.26C72.491 102.152 73.2504 102.059 74.0099 101.95C73.4519 98.8661 73.0334 95.7354 72.0415 92.7597C71.5301 91.2564 70.8946 89.753 69.9647 88.4511C69.4998 87.7847 68.9729 87.1647 68.3839 86.6068C67.702 85.9868 66.9425 85.4289 66.1676 84.933C65.3152 84.375 64.4163 83.8791 63.4864 83.4606C62.9594 83.2126 62.417 82.9956 61.859 82.7942C61.4096 82.6392 60.9601 82.5152 60.5106 82.3757C60.6036 82.4222 60.6966 82.4532 60.7896 82.4997C60.9291 82.6392 61.0531 82.7631 61.1925 82.9026C61.239 82.9956 61.2701 83.0886 61.3166 83.1816C61.3321 83.2901 61.3475 83.3831 61.363 83.4916C61.3475 83.6001 61.3321 83.6931 61.3166 83.8016C61.2701 83.8945 61.239 83.9875 61.1925 84.0805C61.0996 84.22 60.9756 84.3905 60.8361 84.4525C60.8671 84.437 60.8826 84.4215 60.9136 84.406C60.9911 84.3595 61.0686 84.3285 61.1461 84.282C61.3631 84.1735 61.5955 84.0805 61.828 83.9875C61.735 84.034 61.642 84.065 61.5491 84.1115C62.1845 83.8481 62.8354 83.5846 63.4553 83.2591C64.1683 82.8871 64.8347 82.4532 65.4702 81.9727C66.8185 80.9343 67.9809 79.7099 68.8953 78.2841C70.6622 75.5718 71.4371 72.2862 71.4526 69.078C71.4526 67.1561 71.1891 65.2188 70.7241 63.359C70.5691 62.7701 69.8873 62.3516 69.2983 62.5531C68.6784 62.6926 68.3064 63.2815 68.4768 63.9169Z" fill="#231F20"/>
<path d="M84.1773 22.7993C84.3013 23.3728 84.4098 23.9462 84.5028 24.5197C84.5493 24.7986 84.5958 25.0931 84.6423 25.3876C84.6578 25.4806 84.7352 25.9145 84.6732 25.5736C84.7042 25.7441 84.7198 25.9145 84.7353 26.0695C84.8748 27.2474 84.9833 28.4408 85.0453 29.6342C85.1693 32.0364 85.1537 34.4542 84.9832 36.841C84.9367 37.4299 84.8902 38.0189 84.8437 38.6233C84.8127 38.8868 84.7972 39.1658 84.7662 39.4292C84.7507 39.5532 84.7353 39.6772 84.7198 39.8167C84.7198 39.8787 84.7043 39.9407 84.7043 39.9872C84.6888 40.0802 84.7043 40.0337 84.7198 39.8477C84.7198 39.8942 84.7043 39.9407 84.7043 39.9872C84.5648 40.9791 84.3478 41.9555 84.0843 42.9164C83.9448 43.3969 83.7899 43.8773 83.6194 44.3423C83.5264 44.5748 83.4489 44.8072 83.3559 45.0397C83.3404 45.1017 83.3094 45.1482 83.2939 45.2102C83.3869 44.9157 83.3404 45.0862 83.3094 45.1637C83.2474 45.2877 83.2009 45.4272 83.1389 45.5512C82.7204 46.4656 82.24 47.3335 81.6665 48.1704C81.5116 48.4029 81.3411 48.6354 81.1706 48.8523C81.1241 48.9143 81.0311 48.9918 81.2171 48.7903C81.1706 48.8523 81.1086 48.9143 81.0621 48.9763C80.9691 49.0848 80.8916 49.1933 80.7986 49.3018C80.4421 49.7203 80.0702 50.1077 79.6672 50.4952C79.4658 50.6812 79.2643 50.8671 79.0473 51.0531C78.9388 51.1461 78.8148 51.2236 78.7218 51.3166C78.9233 51.1151 78.8459 51.2236 78.7684 51.2856C78.7064 51.3321 78.6443 51.3786 78.5668 51.4251C78.1174 51.7506 77.637 52.0605 77.141 52.324C76.7071 52.5565 76.459 53.1609 76.614 53.6414C76.676 53.8274 76.7691 54.0133 76.9085 54.1528C77.079 54.3388 77.4665 54.5248 77.7299 54.4938C78.7683 54.3698 79.8067 54.3078 80.8451 54.3388C81.3566 54.3543 81.8525 54.3853 82.364 54.4318C82.488 54.4473 82.6274 54.4628 82.7514 54.4783C82.8444 54.4938 83.3094 54.5558 82.9064 54.4938C83.1699 54.5403 83.4334 54.5713 83.6969 54.6178C84.7043 54.7883 85.7116 55.0363 86.688 55.3462C87.184 55.5012 87.68 55.6717 88.1604 55.8732C88.2689 55.9197 88.3619 55.9507 88.4704 55.9972C88.5324 56.0282 88.5944 56.0437 88.6564 56.0747C88.3309 55.9507 88.5479 56.0282 88.6254 56.0592C88.8733 56.1676 89.1058 56.2761 89.3538 56.3846C90.2992 56.8341 91.2137 57.33 92.0816 57.888C92.5155 58.167 92.934 58.4459 93.337 58.7559C93.4455 58.8334 93.5539 58.9109 93.6624 58.9884C93.7089 59.0349 93.7709 59.0659 93.8174 59.1124C93.5694 58.9264 93.6779 59.0039 93.7399 59.0504C93.9724 59.2364 94.1894 59.4068 94.4064 59.5928C95.1813 60.2438 95.9252 60.9567 96.6071 61.7006C96.9636 62.0881 97.3046 62.491 97.6455 62.9095C97.7075 63.0025 97.785 63.08 97.847 63.173C97.599 62.8785 97.8935 63.235 97.94 63.3125C98.095 63.5295 98.25 63.7464 98.4049 63.9634C99.0559 64.9088 99.6449 65.9007 100.141 66.9236C100.265 67.1871 100.389 67.4506 100.497 67.6985C100.59 67.9155 100.389 67.4351 100.482 67.6676C100.513 67.745 100.544 67.838 100.575 67.9155C100.621 68.0395 100.668 68.1635 100.714 68.2875C100.931 68.8454 101.117 69.4189 101.272 69.9923C101.443 70.5813 102.109 70.9997 102.698 70.7983C102.977 70.7053 103.256 70.5348 103.396 70.2713C103.55 69.9768 103.566 69.6979 103.519 69.3724C103.519 69.3569 103.473 69.0624 103.504 69.2484C103.535 69.4344 103.489 69.1554 103.489 69.1399C103.473 69.0314 103.457 68.9229 103.442 68.8144C103.411 68.5665 103.38 68.3185 103.364 68.0705C103.333 67.6831 103.302 67.2956 103.287 66.9081C103.271 66.3037 103.287 65.6837 103.271 65.0793C103.271 64.3199 103.225 63.5759 103.148 62.8165C103.086 62.2431 103.008 61.6696 102.931 61.0962C102.884 60.7552 102.838 60.4143 102.791 60.0578C102.776 59.9958 102.776 59.9338 102.76 59.8718C102.714 59.5773 102.791 60.0578 102.76 59.8718C102.745 59.7013 102.714 59.5463 102.698 59.3758C102.559 58.2755 102.435 57.1596 102.404 56.0437C102.388 55.4702 102.388 54.9123 102.435 54.3388C102.45 54.0754 102.466 53.7964 102.512 53.5329C102.45 53.8584 102.543 53.3779 102.543 53.3159C102.574 53.1609 102.59 53.0215 102.621 52.8665C102.714 52.386 102.853 51.9211 103.008 51.4716C103.07 51.2701 103.148 51.0686 103.225 50.8672C103.256 50.7742 103.287 50.6812 103.334 50.6037C103.349 50.5417 103.38 50.4952 103.396 50.4332C103.504 50.1852 103.349 50.5572 103.396 50.4487C103.767 49.6273 104.186 48.8368 104.682 48.0929C104.821 47.8914 105.023 47.6745 105.147 47.4575C105.131 47.473 104.976 47.6745 105.1 47.5195C105.147 47.4575 105.193 47.411 105.24 47.349C105.317 47.256 105.395 47.163 105.472 47.07C105.798 46.6981 106.139 46.3416 106.511 46.0006C106.697 45.8301 106.898 45.6597 107.1 45.4892C107.255 45.3652 107.053 45.5357 107.038 45.5357C107.1 45.5047 107.146 45.4427 107.208 45.4117C107.317 45.3342 107.425 45.2567 107.518 45.1792C107.937 44.8847 108.371 44.6368 108.835 44.4043C109.269 44.1873 109.517 43.5519 109.362 43.0869C109.192 42.5755 108.773 42.2655 108.247 42.2345C107.704 42.2035 107.162 42.157 106.619 42.095C106.495 42.0795 106.371 42.064 106.247 42.0485C106.185 42.0485 106.123 42.0175 106.061 42.0175C106.371 42.002 106.17 42.033 106.077 42.0175C105.798 41.971 105.519 41.94 105.255 41.8935C104.201 41.7075 103.163 41.475 102.156 41.1806C101.644 41.0256 101.148 40.8706 100.652 40.6846C100.42 40.5916 100.187 40.5141 99.9393 40.4211C99.9083 40.4056 99.5828 40.2817 99.5828 40.2817C99.6293 40.2972 99.6758 40.3282 99.7223 40.3437C99.6758 40.3282 99.6293 40.2972 99.5828 40.2817C99.5209 40.2507 99.4434 40.2197 99.3814 40.1887C98.405 39.7547 97.4751 39.2588 96.5762 38.6853C96.1267 38.3908 95.6772 38.0964 95.2588 37.7709C95.2123 37.7399 95.1812 37.7089 95.1347 37.6779C95.1812 37.7244 95.3982 37.8639 95.1347 37.6779C95.0417 37.6004 94.9333 37.5229 94.8403 37.4454C94.6233 37.275 94.4218 37.089 94.2203 36.903C93.8329 36.5465 93.4454 36.1745 93.089 35.7871C92.717 35.3841 92.3915 34.9502 92.035 34.5472C92.252 34.7952 91.9886 34.4852 91.9421 34.4077C91.8646 34.2992 91.7871 34.2062 91.7096 34.0978C91.5391 33.8653 91.3841 33.6328 91.2292 33.4003C90.9192 32.9354 90.6402 32.4549 90.3612 31.9744C89.8188 31.0135 89.3383 30.0216 88.8889 28.9987C88.8734 28.9522 88.8424 28.9057 88.8269 28.8592C88.8114 28.8128 88.7804 28.7663 88.7649 28.7198C88.8269 28.8747 88.8424 28.8902 88.7959 28.7818C88.7339 28.6423 88.6719 28.4873 88.6099 28.3478C88.5014 28.0688 88.3929 27.7899 88.2844 27.5109C88.0675 26.9374 87.8505 26.3485 87.649 25.775C87.2305 24.5817 86.843 23.3883 86.4556 22.1949C86.2696 21.6214 85.6342 21.1875 85.0297 21.389C84.4098 21.5595 83.9758 22.1794 84.1773 22.7993C85.5722 27.1544 87.029 31.649 89.7413 35.3841C91.1207 37.2904 92.779 38.9333 94.7318 40.2817C96.5762 41.5525 98.6375 42.5134 100.761 43.2109C103.179 44.0013 105.705 44.4353 108.247 44.5748C108.045 43.8463 107.859 43.1334 107.658 42.405C104.139 44.1563 101.691 47.6435 100.621 51.3786C99.9703 53.6569 100.001 56.0282 100.265 58.353C100.342 59.0039 100.42 59.6393 100.513 60.2903C100.528 60.4453 100.559 60.5847 100.575 60.7397C100.59 60.8017 100.59 60.8637 100.606 60.9257C100.652 61.2202 100.575 60.7397 100.606 60.9412C100.652 61.2357 100.683 61.5456 100.73 61.8401C100.838 62.7545 100.947 63.6689 100.962 64.5833C100.978 65.2808 100.962 65.9782 100.978 66.6756C101.009 67.776 101.133 68.8764 101.288 69.9768C102.032 69.7754 102.776 69.5584 103.535 69.3569C102.342 65.1413 99.8618 61.3287 96.6071 58.4304C93.3524 55.5167 89.3229 53.3934 85.0453 52.51C82.6585 52.014 80.1787 51.8591 77.761 52.169C77.9624 52.8975 78.1484 53.6104 78.3499 54.3388C82.1625 52.2465 84.7352 48.4804 86.0836 44.4198C86.7811 42.312 87.091 40.1267 87.2615 37.9104C87.463 35.4616 87.525 33.0129 87.432 30.5641C87.3235 27.7589 87.029 24.9536 86.4556 22.2104C86.3316 21.6214 85.6032 21.2185 85.0297 21.4045C84.3633 21.5749 84.0533 22.1639 84.1773 22.7993Z" fill="#231F20"/>
</svg>
