<svg width="160" height="51" viewBox="0 0 160 51" fill="none" xmlns="http://www.w3.org/2000/svg">
<g clip-path="url(#clip0_20_64)">
<path d="M84.3237 12.5952C84.3237 14.4017 82.8741 15.8569 81.0747 15.8569C79.2752 15.8569 77.8257 14.4017 77.8257 12.5952C77.8257 10.7887 79.2253 9.33351 81.0747 9.33351C82.9241 9.38369 84.3237 10.8389 84.3237 12.5952ZM70.9278 19.1688C70.9278 19.4699 70.9278 19.9717 70.9278 19.9717C70.9278 19.9717 69.3783 17.9645 66.0794 17.9645C60.6311 17.9645 56.3824 22.1295 56.3824 27.9002C56.3824 33.6207 60.5811 37.8359 66.0794 37.8359C69.4283 37.8359 70.9278 35.7785 70.9278 35.7785V36.6315C70.9278 37.033 71.2278 37.3341 71.6276 37.3341H75.6764V18.4663C75.6764 18.4663 71.9775 18.4663 71.6276 18.4663C71.2278 18.4663 70.9278 18.8176 70.9278 19.1688ZM70.9278 31.2623C70.1781 32.3662 68.6786 33.3196 66.8791 33.3196C63.6801 33.3196 61.2309 31.3124 61.2309 27.9002C61.2309 24.4879 63.6801 22.4807 66.8791 22.4807C68.6286 22.4807 70.2281 23.4843 70.9278 24.5381V31.2623ZM78.6754 18.4663H83.4739V37.3341H78.6754V18.4663ZM150.353 17.9645C147.054 17.9645 145.505 19.9717 145.505 19.9717V9.38369H140.706V37.3341C140.706 37.3341 144.405 37.3341 144.755 37.3341C145.155 37.3341 145.455 36.9828 145.455 36.6315V35.7785C145.455 35.7785 147.004 37.8359 150.303 37.8359C155.751 37.8359 160 33.6207 160 27.9002C160 22.1796 155.751 17.9645 150.353 17.9645ZM149.553 33.2695C147.704 33.2695 146.254 32.316 145.505 31.2121V24.4879C146.254 23.4843 147.854 22.4305 149.553 22.4305C152.752 22.4305 155.202 24.4377 155.202 27.85C155.202 31.2623 152.752 33.2695 149.553 33.2695ZM138.207 26.1439V37.3842H133.408V26.6959C133.408 23.5847 132.409 22.3302 129.709 22.3302C128.26 22.3302 126.76 23.0829 125.811 24.1868V37.3341H121.012V18.4663H124.811C125.211 18.4663 125.511 18.8176 125.511 19.1688V19.9717C126.91 18.5165 128.76 17.9645 130.609 17.9645C132.709 17.9645 134.458 18.5667 135.858 19.771C137.557 21.176 138.207 22.9825 138.207 26.1439ZM109.366 17.9645C106.067 17.9645 104.517 19.9717 104.517 19.9717V9.38369H99.7189V37.3341C99.7189 37.3341 103.418 37.3341 103.768 37.3341C104.167 37.3341 104.467 36.9828 104.467 36.6315V35.7785C104.467 35.7785 106.017 37.8359 109.316 37.8359C114.764 37.8359 119.013 33.6207 119.013 27.9002C119.063 22.1796 114.814 17.9645 109.366 17.9645ZM108.566 33.2695C106.717 33.2695 105.267 32.316 104.517 31.2121V24.4879C105.267 23.4843 106.867 22.4305 108.566 22.4305C111.765 22.4305 114.214 24.4377 114.214 27.85C114.214 31.2623 111.765 33.2695 108.566 33.2695ZM95.5701 17.9645C97.0197 17.9645 97.7695 18.2154 97.7695 18.2154V22.6814C97.7695 22.6814 93.7707 21.3266 91.2715 24.1868V37.3842H86.473V18.4663C86.473 18.4663 90.1718 18.4663 90.5217 18.4663C90.9216 18.4663 91.2215 18.8176 91.2215 19.1688V19.9717C92.1212 18.9179 94.0706 17.9645 95.5701 17.9645ZM45.7357 35.6279C45.4858 35.0258 45.2359 34.3734 44.986 33.8214C44.5861 32.9182 44.1862 32.0651 43.8363 31.2623L43.7863 31.2121C40.3374 23.685 36.6386 16.0577 32.7398 8.53063L32.5898 8.22955C32.19 7.47685 31.7901 6.67396 31.3902 5.87108C30.8904 4.96784 30.3905 4.01441 29.5908 3.11117C27.9913 1.10396 25.692 0 23.2428 0C20.7435 0 18.4942 1.10396 16.8448 3.01081C16.095 3.91405 15.5452 4.86748 15.0453 5.77072C14.6454 6.5736 14.2456 7.37649 13.8457 8.12919L13.6957 8.43027C9.84694 15.9573 6.09811 23.5847 2.64919 31.1117L2.5992 31.2121C2.24931 32.015 1.84944 32.868 1.44956 33.7713C1.19964 34.3232 0.949718 34.9254 0.699796 35.5777C0.0499994 37.4344 -0.149938 39.1907 0.0999837 40.9972C0.649812 44.7607 3.14903 47.9221 6.59795 49.3271C7.89755 49.8791 9.24712 50.13 10.6467 50.13C11.0466 50.13 11.5464 50.0798 11.9463 50.0296C13.5958 49.8289 15.2952 49.2769 16.9447 48.3235C18.9941 47.1694 20.9435 45.5134 23.1428 43.1048C25.3421 45.5134 27.3415 47.1694 29.3408 48.3235C30.9903 49.2769 32.6898 49.8289 34.3393 50.0296C34.7392 50.0798 35.239 50.13 35.6389 50.13C37.0384 50.13 38.438 49.8791 39.6876 49.3271C43.1865 47.9221 45.6358 44.7105 46.1856 40.9972C46.5855 39.2409 46.3855 37.4846 45.7357 35.6279ZM23.1928 38.2373C20.4936 34.825 18.7442 31.6135 18.1443 28.9038C17.8944 27.7496 17.8444 26.746 17.9944 25.8428C18.0944 25.0399 18.3943 24.3374 18.7941 23.7352C19.7438 22.3804 21.3433 21.5273 23.1928 21.5273C25.0422 21.5273 26.6917 22.3302 27.5914 23.7352C27.9913 24.3374 28.2912 25.0399 28.3911 25.8428C28.5411 26.746 28.4911 27.7998 28.2412 28.9038C27.6414 31.5633 25.8919 34.7749 23.1928 38.2373ZM43.1365 40.5958C42.7866 43.2051 41.0372 45.4632 38.588 46.4668C37.3883 46.9686 36.0887 47.1192 34.7891 46.9686C33.5395 46.8181 32.2899 46.4167 30.9903 45.664C29.1909 44.6604 27.3915 43.1048 25.2921 40.7965C28.5911 36.7319 30.5905 33.0186 31.3402 29.7067C31.6901 28.1511 31.7401 26.746 31.5901 25.4414C31.3902 24.1868 30.9403 23.0327 30.2406 22.0291C28.691 19.771 26.0919 18.4663 23.1928 18.4663C20.2937 18.4663 17.6945 19.8212 16.145 22.0291C15.4452 23.0327 14.9953 24.1868 14.7954 25.4414C14.5955 26.746 14.6454 28.2013 15.0453 29.7067C15.7951 33.0186 17.8444 36.7821 21.0934 40.8467C19.0441 43.155 17.1946 44.7105 15.3952 45.7141C14.0956 46.4668 12.846 46.8683 11.5964 47.0188C10.2468 47.1694 8.94722 46.9686 7.79758 46.517C5.34834 45.5134 3.59889 43.2553 3.249 40.6459C3.09905 39.3914 3.19902 38.1369 3.69886 36.7319C3.84881 36.2301 4.09873 35.7283 4.34866 35.1261C4.69855 34.3232 5.09842 33.4702 5.4983 32.6171L5.54828 32.5168C8.9972 25.0399 12.696 17.4125 16.5448 9.98586L16.6948 9.68477C17.0947 8.93207 17.4945 8.12919 17.8944 7.37649C18.2943 6.5736 18.7442 5.8209 19.294 5.16856C20.3437 3.96423 21.7432 3.31189 23.2927 3.31189C24.8423 3.31189 26.2418 3.96423 27.2915 5.16856C27.8413 5.8209 28.2912 6.5736 28.6911 7.37649C29.0909 8.12919 29.4908 8.93207 29.8907 9.68477L30.0406 9.98586C33.8394 17.4627 37.5383 25.0901 40.9872 32.5669V32.6171C41.3871 33.42 41.737 34.3232 42.1368 35.1261C42.3868 35.7283 42.6367 36.2301 42.7866 36.7319C43.1865 38.0366 43.3365 39.2911 43.1365 40.5958Z" fill="white"/>
</g>
<defs>
<clipPath id="clip0_20_64">
<rect width="160" height="50.13" fill="white"/>
</clipPath>
</defs>
</svg>
