<svg width="33" height="33" viewBox="0 0 33 33" fill="none" xmlns="http://www.w3.org/2000/svg">
<g clip-path="url(#clip0_34_201)">
<path d="M32.9819 16.4939C32.9819 7.65731 25.8185 0.493872 16.9819 0.493872C8.14537 0.493872 0.981934 7.65731 0.981934 16.4939C0.981934 24.4799 6.8329 31.0992 14.4819 32.2995V21.1189H10.4194V16.4939H14.4819V12.9689C14.4819 8.95887 16.8706 6.74387 20.5254 6.74387C22.2759 6.74387 24.1069 7.05637 24.1069 7.05637V10.9939H22.0894C20.1018 10.9939 19.4819 12.2272 19.4819 13.4925V16.4939H23.9194L23.2101 21.1189H19.4819V32.2995C27.131 31.0992 32.9819 24.4799 32.9819 16.4939Z" fill="#1877F2"/>
<path d="M23.2101 21.1189L23.9194 16.4939H19.4819V13.4926C19.4819 12.2272 20.1018 10.9939 22.0894 10.9939H24.1069V7.0564C24.1069 7.0564 22.2759 6.7439 20.5254 6.7439C16.8706 6.7439 14.4819 8.9589 14.4819 12.9689V16.4939H10.4194V21.1189H14.4819V32.2995C15.2965 32.4273 16.1314 32.4939 16.9819 32.4939C17.8324 32.4939 18.6673 32.4273 19.4819 32.2995V21.1189H23.2101Z" fill="white"/>
</g>
<defs>
<clipPath id="clip0_34_201">
<rect width="32" height="32" fill="white" transform="translate(0.981934 0.493896)"/>
</clipPath>
</defs>
</svg>
