<svg width="160" height="51" viewBox="0 0 160 51" fill="none" xmlns="http://www.w3.org/2000/svg">
<g clip-path="url(#clip0_18_22)">
<path d="M20.0143 17.8885V23.2436H32.9378C32.5947 26.2061 31.5654 28.4848 29.9643 29.9661C28.1344 31.7891 25.1608 33.84 20.0143 33.84C12.1229 33.84 5.94711 27.4594 5.94711 19.5976C5.94711 11.7358 12.0086 5.35515 20.0143 5.35515C24.2459 5.35515 27.4482 7.06424 29.7355 9.22909L33.5097 5.46909C30.3074 2.39273 25.9614 0 20.0143 0C9.14939 0 0 8.77333 0 19.5976C0 30.4218 9.14939 39.1952 20.0143 39.1952C25.847 39.1952 30.3074 37.2582 33.7384 33.7261C37.2838 30.1939 38.4274 25.1806 38.4274 21.1927C38.4274 19.9394 38.3131 18.8 38.1987 17.8885H20.0143Z" fill="white"/>
<path d="M54.4388 13.4448C47.4624 13.4448 41.6296 18.8 41.6296 26.0921C41.6296 33.3842 47.348 38.7394 54.4388 38.7394C61.5296 38.7394 67.2479 33.4982 67.2479 26.206C67.2479 18.8 61.5296 13.4448 54.4388 13.4448ZM54.4388 33.84C50.5503 33.84 47.2336 30.6497 47.2336 26.206C47.2336 21.6485 50.5503 18.5721 54.4388 18.5721C58.3273 18.5721 61.6439 21.6485 61.6439 26.206C61.6439 30.6497 58.3273 33.84 54.4388 33.84Z" fill="white"/>
<path d="M116.998 16.2933H116.769C115.511 14.8121 113.11 13.4448 110.022 13.4448C103.617 13.4448 98.1274 18.9139 98.1274 26.0921C98.1274 33.1563 103.617 38.7394 110.022 38.7394C113.11 38.7394 115.511 37.3721 116.769 35.8909H116.998V37.7139C116.998 42.4994 114.368 45.12 110.25 45.12C106.819 45.12 104.761 42.7272 103.846 40.5624L99.0424 42.6133C100.415 45.9176 104.189 50.1333 110.365 50.1333C116.884 50.1333 122.488 46.2594 122.488 36.9163V14.1285H117.227V16.2933H116.998ZM110.593 33.84C106.705 33.84 103.846 30.5357 103.846 26.206C103.846 21.7624 106.819 18.5721 110.593 18.5721C114.368 18.5721 117.341 21.8763 117.341 26.32C117.456 30.6497 114.482 33.84 110.593 33.84Z" fill="white"/>
<path d="M82.9163 13.4448C75.9399 13.4448 70.1072 18.8 70.1072 26.0921C70.1072 33.3842 75.8255 38.7394 82.9163 38.7394C90.0071 38.7394 95.7255 33.4982 95.7255 26.206C95.7255 18.8 90.0071 13.4448 82.9163 13.4448ZM82.9163 33.84C79.0278 33.84 75.7112 30.6497 75.7112 26.206C75.7112 21.6485 79.0278 18.5721 82.9163 18.5721C86.8048 18.5721 90.1215 21.6485 90.1215 26.206C90.1215 30.6497 86.8048 33.84 82.9163 33.84Z" fill="white"/>
<path d="M126.719 0.569702H132.209V38.8533H126.719V0.569702Z" fill="white"/>
<path d="M149.135 33.84C146.276 33.84 144.332 32.5866 142.959 29.966L160 23.0157L159.428 21.5345C158.399 18.686 155.082 13.4448 148.563 13.4448C142.044 13.4448 136.555 18.5721 136.555 26.0921C136.555 33.1563 141.93 38.7394 149.135 38.7394C154.968 38.7394 158.284 35.2072 159.771 33.1563L155.425 30.3079C153.939 32.4727 151.994 33.84 149.135 33.84ZM148.792 18.2303C151.079 18.2303 153.024 19.3697 153.595 20.9648L142.159 25.7503C142.044 20.5091 145.933 18.2303 148.792 18.2303Z" fill="white"/>
</g>
<defs>
<clipPath id="clip0_18_22">
<rect width="160" height="50.1333" fill="white"/>
</clipPath>
</defs>
</svg>
