<svg width="160" height="51" viewBox="0 0 160 51" fill="none" xmlns="http://www.w3.org/2000/svg">
<path d="M38.8144 22.2633C31.1961 17.5372 18.6299 17.1027 11.3573 19.4084C10.1894 19.7784 8.95443 19.0897 8.60056 17.8698C8.24668 16.6493 8.90527 15.3601 10.074 14.9892C18.4224 12.3418 32.3004 12.8533 41.0707 18.2917C42.1214 18.9429 42.466 20.3601 41.8432 21.4559C41.22 22.553 39.8623 22.9147 38.8144 22.2633ZM38.5649 29.2633C38.0306 30.1694 36.8967 30.4533 36.0305 29.8973C29.6791 25.819 19.994 24.6376 12.4799 27.0201C11.5055 27.3277 10.4762 26.7539 10.1803 25.7378C9.88664 24.7199 10.4363 23.6467 11.409 23.3371C19.9929 20.6163 30.6638 21.9341 37.9587 26.6172C38.8248 27.1743 39.0974 28.3596 38.5649 29.2633ZM35.673 35.986C35.2485 36.7134 34.3414 36.9415 33.6477 36.4981C28.0977 32.9548 21.1121 32.1544 12.8854 34.1175C12.0925 34.3074 11.3025 33.7883 11.1216 32.9604C10.94 32.1323 11.4349 31.3071 12.2295 31.1181C21.2323 28.9682 28.955 29.8935 35.1844 33.8699C35.879 34.3129 36.0977 35.2608 35.673 35.986ZM24.8342 0.37648C11.7816 0.37648 1.19995 11.4296 1.19995 25.0646C1.19995 38.7007 11.7816 49.7535 24.8342 49.7535C37.8873 49.7535 48.4683 38.7007 48.4683 25.0646C48.4683 11.4296 37.8873 0.37648 24.8342 0.37648Z" fill="white"/>
<path d="M65.5003 23.1682C61.4197 22.1516 60.6929 21.4381 60.6929 19.9394C60.6929 18.5228 61.9697 17.57 63.8679 17.57C65.708 17.57 67.5323 18.2937 69.4455 19.7837C69.5033 19.8288 69.5759 19.8468 69.6473 19.835C69.7187 19.8238 69.7816 19.7831 69.8237 19.7212L71.8161 16.7872C71.898 16.6667 71.8757 16.4998 71.7653 16.4075C69.4887 14.4992 66.925 13.5714 63.9283 13.5714C59.5223 13.5714 56.4447 16.3332 56.4447 20.2855C56.4447 24.5235 59.0995 26.024 63.6873 27.1822C67.5921 28.1218 68.2511 28.9089 68.2511 30.3163C68.2511 31.8754 66.9185 32.8448 64.7739 32.8448C62.3922 32.8448 60.4491 32.0067 58.2757 30.0406C58.2218 29.9922 58.1479 29.9699 58.0796 29.9739C58.0079 29.9801 57.9421 30.0149 57.8964 30.0723L55.6623 32.8498C55.5686 32.9651 55.5805 33.1372 55.6886 33.2369C58.2176 35.5951 61.3274 36.8409 64.6836 36.8409C69.4314 36.8409 72.4994 34.1308 72.4994 29.9365C72.4994 26.3917 70.4719 24.4313 65.5003 23.1682Z" fill="white"/>
<path d="M86.6875 27.919C86.6875 30.9123 84.9225 33.001 82.3952 33.001C79.8967 33.001 78.012 30.8174 78.012 27.919C78.012 25.0211 79.8967 22.8372 82.3952 22.8372C84.8819 22.8372 86.6875 24.9739 86.6875 27.919ZM83.241 18.9641C81.1831 18.9641 79.4951 19.8108 78.1032 21.5458V19.593C78.1032 19.4388 77.9835 19.3132 77.8359 19.3132H74.1823C74.0347 19.3132 73.9153 19.4388 73.9153 19.593V41.2918C73.9153 41.446 74.0347 41.5715 74.1823 41.5715H77.8359C77.9835 41.5715 78.1032 41.446 78.1032 41.2918V34.4427C79.4954 36.0748 81.1836 36.8719 83.241 36.8719C87.0648 36.8719 90.9358 33.797 90.9358 27.919C90.9358 22.0398 87.0648 18.9641 83.241 18.9641Z" fill="white"/>
<path d="M100.858 33.0323C98.2388 33.0323 96.2641 30.8339 96.2641 27.9191C96.2641 24.992 98.1705 22.8678 100.798 22.8678C103.434 22.8678 105.422 25.0662 105.422 27.983C105.422 30.9097 103.503 33.0323 100.858 33.0323ZM100.858 18.9641C95.9337 18.9641 92.0757 22.9253 92.0757 27.983C92.0757 32.9857 95.9071 36.9053 100.798 36.9053C105.74 36.9053 109.61 32.9575 109.61 27.9191C109.61 22.8976 105.766 18.9641 100.858 18.9641Z" fill="white"/>
<path d="M120.126 19.3132H116.105V15.019C116.105 14.8648 115.986 14.7395 115.838 14.7395H112.185C112.037 14.7395 111.917 14.8648 111.917 15.019V19.3132H110.16C110.013 19.3132 109.894 19.4388 109.894 19.593V22.8733C109.894 23.0274 110.013 23.1529 110.16 23.1529H111.917V31.6411C111.917 35.0713 113.551 36.8104 116.775 36.8104C118.085 36.8104 119.173 36.5276 120.197 35.9206C120.281 35.872 120.333 35.7783 120.333 35.6786V32.5548C120.333 32.4583 120.284 32.3676 120.206 32.3169C120.126 32.2647 120.027 32.2621 119.945 32.3042C119.242 32.6741 118.561 32.8449 117.8 32.8449C116.628 32.8449 116.105 32.2891 116.105 31.043V23.1529H120.126C120.274 23.1529 120.392 23.0274 120.392 22.8733V19.593C120.392 19.4388 120.274 19.3132 120.126 19.3132Z" fill="white"/>
<path d="M134.135 19.3301V18.8027C134.135 17.251 134.704 16.5591 135.982 16.5591C136.743 16.5591 137.355 16.7171 138.04 16.9559C138.125 16.9837 138.213 16.9698 138.281 16.917C138.352 16.8643 138.392 16.7796 138.392 16.69V13.4736C138.392 13.3507 138.316 13.2419 138.203 13.2059C137.479 12.981 136.553 12.7498 135.166 12.7498C131.791 12.7498 130.007 14.7351 130.007 18.489V19.2968H128.252C128.104 19.2968 127.984 19.4221 127.984 19.5762V22.8733C127.984 23.0274 128.104 23.1529 128.252 23.1529H130.007V36.2455C130.007 36.3997 130.126 36.525 130.274 36.525H133.927C134.075 36.525 134.195 36.3997 134.195 36.2455V23.1529H137.607L142.832 36.2421C142.239 37.6173 141.656 37.891 140.859 37.891C140.216 37.891 139.538 37.6901 138.845 37.294C138.779 37.2564 138.702 37.2503 138.632 37.273C138.562 37.2989 138.503 37.3529 138.474 37.424L137.235 40.2621C137.176 40.3962 137.227 40.5537 137.35 40.6233C138.643 41.3547 139.81 41.6669 141.253 41.6669C143.951 41.6669 145.442 40.3538 146.757 36.8219L153.096 19.711C153.127 19.6249 153.118 19.5279 153.068 19.4512C153.017 19.3758 152.936 19.3301 152.848 19.3301H149.044C148.93 19.3301 148.828 19.4055 148.791 19.5173L144.894 31.1441L140.626 19.5096C140.587 19.4014 140.487 19.3301 140.377 19.3301H134.135Z" fill="white"/>
<path d="M126.014 19.3132H122.36C122.212 19.3132 122.092 19.4388 122.092 19.593V36.2455C122.092 36.3997 122.212 36.525 122.36 36.525H126.014C126.161 36.525 126.281 36.3997 126.281 36.2455V19.593C126.281 19.4388 126.161 19.3132 126.014 19.3132Z" fill="white"/>
<path d="M124.205 11.7309C122.758 11.7309 121.583 12.9552 121.583 14.467C121.583 15.98 122.758 17.2056 124.205 17.2056C125.652 17.2056 126.825 15.98 126.825 14.467C126.825 12.9552 125.652 11.7309 124.205 11.7309Z" fill="white"/>
<path d="M156.365 20.9697H155.695V21.8615H156.365C156.699 21.8615 156.898 21.6907 156.898 21.4154C156.898 21.1253 156.699 20.9697 156.365 20.9697ZM156.799 22.2419L157.526 23.3057H156.913L156.258 22.33H155.695V23.3057H155.182V20.486H156.386C157.012 20.486 157.425 20.8213 157.425 21.3854C157.425 21.8476 157.169 22.13 156.799 22.2419ZM156.229 19.5479C154.912 19.5479 153.915 20.6414 153.915 21.9809C153.915 23.3196 154.904 24.3986 156.215 24.3986C157.532 24.3986 158.53 23.3057 158.53 21.9656C158.53 20.6269 157.539 19.5479 156.229 19.5479ZM156.215 24.6673C154.769 24.6673 153.644 23.4541 153.644 21.9809C153.644 20.5075 154.784 19.2805 156.229 19.2805C157.674 19.2805 158.8 20.4937 158.8 21.9656C158.8 23.439 157.661 24.6673 156.215 24.6673Z" fill="white"/>
</svg>
