<svg width="32" height="32" viewBox="0 0 32 32" fill="none" xmlns="http://www.w3.org/2000/svg">
<mask id="mask0_74_226" style="mask-type:luminance" maskUnits="userSpaceOnUse" x="4" y="5" width="24" height="22">
<path d="M28 5H4V26.2466H28V5Z" fill="white"/>
</mask>
<g mask="url(#mask0_74_226)">
<path d="M24.809 8.00025L23.637 13.9364C23.6345 13.9482 23.6354 13.9605 23.6395 13.9719C23.6434 13.9834 23.6504 13.9935 23.6597 14.0013C23.669 14.0091 23.6801 14.0143 23.692 14.0163C23.704 14.0183 23.7163 14.0171 23.7275 14.0127L24.9806 13.5405C24.9836 13.5579 24.9866 13.5759 24.9894 13.5926C25.2903 15.4886 25.0698 17.4306 24.3516 19.2108C23.6333 20.991 22.4444 22.5423 20.9121 23.6987C19.3797 24.8549 17.5618 25.5726 15.6528 25.7748C13.7438 25.9771 11.8158 25.6563 10.0752 24.8467C11.9003 25.859 13.9731 26.3382 16.0573 26.2297C18.1415 26.1212 20.1534 25.4296 21.8636 24.2334C23.5739 23.0372 24.9137 21.3848 25.7305 19.4642C26.5473 17.5437 26.8084 15.4323 26.4836 13.3707L27.9268 13.4879C27.939 13.4888 27.9512 13.4864 27.9623 13.481C27.9733 13.4755 27.9825 13.4672 27.9892 13.4568C27.9958 13.4465 27.9994 13.4346 27.9998 13.4223C28.0001 13.4101 27.9972 13.3979 27.9912 13.3872L24.9343 7.97973C24.9274 7.96772 24.9171 7.9581 24.9046 7.95215C24.8921 7.94621 24.8781 7.94421 24.8645 7.94645C24.8508 7.94868 24.8383 7.95504 24.8283 7.96465C24.8183 7.97427 24.8116 7.9867 24.809 8.00025Z" fill="white"/>
<path d="M22.5705 20.3846C21.6238 21.5887 20.4079 22.5541 19.0206 23.2034C17.6332 23.8526 16.113 24.1677 14.582 24.1232C13.0509 24.0787 11.5515 23.676 10.2042 22.9474C8.85688 22.2186 7.69912 21.1843 6.82385 19.9272C5.94857 18.6702 5.38013 17.2255 5.16413 15.709C4.94814 14.1926 5.09061 12.6467 5.58012 11.1952C6.06961 9.74381 6.89252 8.42733 7.98279 7.35144C9.07307 6.27554 10.4004 5.47019 11.8582 5C9.97964 5.46169 8.26871 6.44207 6.92055 7.82931C5.57239 9.21655 4.64128 10.9548 4.23344 12.8457C3.82559 14.7367 3.95744 16.7042 4.61394 18.5237C5.27045 20.3434 6.42517 21.9418 7.94637 23.1368C9.46758 24.3317 11.294 25.0751 13.2173 25.282C15.1407 25.4889 17.0834 25.151 18.824 24.307C20.5646 23.4629 22.0328 22.1467 23.0614 20.5083C24.0898 18.87 24.6371 16.9755 24.6408 15.0412C24.5027 16.9897 23.7813 18.8516 22.5705 20.3846Z" fill="white"/>
<path d="M20.4164 10.0373C19.8128 10.8062 19.1263 11.5063 18.3693 12.1249C18.3617 12.1312 18.3555 12.1392 18.3512 12.1481C18.347 12.1571 18.3448 12.1669 18.3448 12.1769V21.782C18.3448 21.8593 18.3202 21.9345 18.2747 21.9969C18.2291 22.0594 18.1649 22.1057 18.0913 22.1293L18.0835 22.1318C18.0289 22.1493 17.9711 22.1536 17.9145 22.1444C17.8579 22.1354 17.8043 22.113 17.7581 22.0792C17.7118 22.0454 17.6742 22.0013 17.6482 21.9502C17.6223 21.8991 17.6088 21.8427 17.6088 21.7854V12.8304C17.6088 12.8181 17.6055 12.8061 17.5991 12.7955C17.5928 12.785 17.5836 12.7764 17.5727 12.7707C17.5618 12.765 17.5495 12.7624 17.5372 12.7632C17.525 12.764 17.5131 12.7681 17.503 12.7752C16.5008 13.4653 15.4081 14.0139 14.256 14.4054C14.2428 14.4099 14.2312 14.4184 14.2229 14.4298C14.2148 14.4412 14.2103 14.4549 14.2103 14.469V22.2264C14.2103 22.2802 14.1984 22.3334 14.1753 22.382C14.1523 22.4307 14.1188 22.4737 14.0772 22.5079C14.0356 22.5421 13.9869 22.5666 13.9347 22.5798C13.8825 22.5929 13.828 22.5943 13.7751 22.5838L13.7608 22.581C13.6784 22.5647 13.6043 22.5202 13.551 22.4552C13.4978 22.3902 13.4688 22.3088 13.469 22.2248C13.4709 21.3895 13.4728 20.265 13.4742 20.2658V14.7329C13.4742 14.7226 13.4719 14.7124 13.4673 14.7032C13.4627 14.6939 13.4561 14.6858 13.4479 14.6796C13.4397 14.6733 13.4302 14.669 13.4201 14.667C13.4099 14.665 13.3995 14.6653 13.3895 14.668L13.3562 14.6768C12.4163 14.9238 11.5847 15.4751 10.9912 16.2446C10.3977 17.0142 10.0758 17.9586 10.0757 18.9304V20.2044C10.0759 20.2756 10.0552 20.3453 10.0162 20.4048C9.97718 20.4643 9.92157 20.5111 9.85626 20.5394C9.79093 20.5676 9.71876 20.5761 9.64866 20.5638C9.57857 20.5515 9.51363 20.5189 9.46187 20.47C8.01829 19.0825 7.10041 17.2375 6.8646 15.2492C6.62878 13.2609 7.08963 11.2523 8.16862 9.56566C9.24761 7.87902 10.878 6.61865 12.782 5.99926C14.686 5.37988 16.7459 5.43979 18.6108 6.16881C17.1425 5.47082 15.5142 5.17841 13.8948 5.32193C12.2754 5.46544 10.7239 6.03965 9.40126 6.98498C8.07863 7.93032 7.03303 9.21233 6.37294 10.698C5.71285 12.1837 5.46231 13.819 5.64733 15.4342C5.83235 17.0493 6.44617 18.5856 7.42513 19.8835C8.40409 21.1815 9.71251 22.1939 11.2147 22.8156C12.7168 23.4373 14.358 23.6458 15.9678 23.4195C17.5778 23.1931 19.0977 22.54 20.3701 21.5281C20.814 21.2218 21.2281 20.8743 21.6067 20.4902L21.6464 20.4476C21.7091 20.3804 21.7439 20.2919 21.7437 20.1999V8.35246C21.7437 8.35246 21.7437 8.31019 21.7437 8.25414C21.7438 8.23916 21.7389 8.22457 21.7298 8.21266C21.7207 8.20077 21.7079 8.19224 21.6934 8.18842C21.6789 8.18461 21.6635 8.18572 21.6497 8.19159C21.636 8.19746 21.6246 8.20774 21.6172 8.22083C21.2672 8.85805 20.8655 9.46555 20.4164 10.0373Z" fill="white"/>
</g>
</svg>
