<svg width="130" height="32" viewBox="0 0 130 32" fill="none" xmlns="http://www.w3.org/2000/svg">
<mask id="mask0_12_6" style="mask-type:luminance" maskUnits="userSpaceOnUse" x="0" y="0" width="37" height="32">
<path d="M36.147 0H0V32H36.147V0Z" fill="white"/>
</mask>
<g mask="url(#mask0_12_6)">
<path d="M31.3411 4.51875L29.5758 13.4593C29.5722 13.4771 29.5736 13.4956 29.5796 13.5128C29.5855 13.53 29.5961 13.5453 29.6101 13.5571C29.624 13.5688 29.6409 13.5766 29.6587 13.5797C29.6768 13.5827 29.6953 13.5808 29.7122 13.5743L31.5995 12.863C31.604 12.8892 31.6086 12.9164 31.6128 12.9415C32.066 15.7971 31.7339 18.722 30.6522 21.4033C29.5704 24.0845 27.7797 26.4209 25.4719 28.1625C23.164 29.9039 20.4259 30.9849 17.5506 31.2895C14.6756 31.5941 11.7717 31.111 9.15015 29.8917C11.899 31.4162 15.0209 32.1379 18.1599 31.9745C21.299 31.8112 24.3291 30.7695 26.9049 28.9679C29.4808 27.1663 31.4988 24.6776 32.729 21.7849C33.9592 18.8924 34.3524 15.7123 33.8633 12.6073L36.0368 12.7838C36.0553 12.7852 36.0737 12.7816 36.0903 12.7734C36.1068 12.7652 36.1208 12.7526 36.1308 12.7371C36.1408 12.7215 36.1463 12.7035 36.1469 12.685C36.1473 12.6666 36.1429 12.6483 36.1338 12.6322L31.5297 4.48783C31.5194 4.46975 31.5038 4.45526 31.485 4.44631C31.4662 4.43735 31.4452 4.43435 31.4247 4.43771C31.4041 4.44108 31.3852 4.45066 31.3702 4.46513C31.3552 4.47962 31.345 4.49834 31.3411 4.51875Z" fill="black"/>
<path d="M27.9695 23.171C26.5436 24.9846 24.7123 26.4387 22.6229 27.4165C20.5333 28.3944 18.2437 28.8689 15.9378 28.8019C13.6317 28.735 11.3735 28.1284 9.34426 27.031C7.31505 25.9334 5.57132 24.3755 4.25306 22.4822C2.93478 20.5891 2.07863 18.4131 1.75331 16.1291C1.428 13.8452 1.64258 11.5168 2.37984 9.33079C3.11709 7.14476 4.35648 5.16199 5.99857 3.54155C7.64066 1.92112 9.63971 0.708161 11.8353 0C9.00607 0.695362 6.4292 2.17194 4.39871 4.2613C2.3682 6.35065 0.965833 8.96865 0.351574 11.8166C-0.262687 14.6646 -0.0641048 17.6279 0.924668 20.3684C1.91345 23.1091 3.65259 25.5164 5.94372 27.3162C8.23485 29.116 10.9857 30.2355 13.8824 30.5472C16.7792 30.8588 19.7052 30.35 22.3268 29.0787C24.9483 27.8074 27.1597 25.825 28.7088 23.3575C30.2577 20.8899 31.0821 18.0367 31.0877 15.1232C30.8796 18.058 29.793 20.8622 27.9695 23.171Z" fill="black"/>
<path d="M24.7251 7.58678C23.8159 8.74481 22.782 9.79924 21.6419 10.731C21.6304 10.7405 21.621 10.7525 21.6146 10.766C21.6083 10.7795 21.6049 10.7943 21.6049 10.8092V25.2757C21.6049 25.3921 21.568 25.5055 21.4993 25.5995C21.4307 25.6936 21.334 25.7633 21.2232 25.7988L21.2113 25.8026C21.1292 25.8289 21.0421 25.8355 20.9569 25.8217C20.8717 25.808 20.7909 25.7742 20.7214 25.7235C20.6516 25.6725 20.595 25.606 20.5559 25.5292C20.5168 25.4522 20.4964 25.3671 20.4964 25.2809V11.7936C20.4964 11.7751 20.4914 11.7569 20.4819 11.741C20.4723 11.7251 20.4586 11.7122 20.442 11.7036C20.4257 11.695 20.4072 11.6911 20.3887 11.6923C20.3702 11.6935 20.3523 11.6998 20.3372 11.7104C18.8276 12.7498 17.182 13.576 15.4468 14.1657C15.4268 14.1724 15.4093 14.1853 15.3969 14.2025C15.3846 14.2197 15.378 14.2403 15.378 14.2615V25.945C15.378 26.0261 15.3599 26.1063 15.3252 26.1795C15.2905 26.2529 15.2401 26.3176 15.1775 26.3691C15.1147 26.4206 15.0414 26.4575 14.9628 26.4773C14.8841 26.497 14.802 26.4991 14.7225 26.4834L14.701 26.4791C14.5769 26.4546 14.4652 26.3876 14.385 26.2897C14.3048 26.1918 14.2611 26.0692 14.2614 25.9426C14.2643 24.6847 14.2672 22.991 14.2693 22.9922V14.659C14.2693 14.6435 14.2657 14.6281 14.2589 14.6142C14.252 14.6003 14.242 14.5881 14.2296 14.5786C14.2173 14.5692 14.2029 14.5627 14.1877 14.5597C14.1724 14.5567 14.1567 14.5572 14.1417 14.5613L14.0915 14.5744C12.6759 14.9464 11.4234 15.7767 10.5295 16.9357C9.63566 18.0949 9.15081 19.5172 9.15069 20.9809V22.8997C9.15096 23.0069 9.11978 23.1119 9.06104 23.2015C9.00229 23.2912 8.91854 23.3617 8.82017 23.4043C8.72177 23.4467 8.61307 23.4596 8.5075 23.441C8.40194 23.4225 8.30412 23.3734 8.22617 23.2997C6.05196 21.21 4.66952 18.4312 4.31436 15.4365C3.95919 12.4419 4.65328 9.41675 6.27837 6.87645C7.90347 4.33616 10.359 2.43789 13.2267 1.50502C16.0944 0.572147 19.1968 0.662388 22.0055 1.76038C19.7941 0.709111 17.3417 0.268714 14.9027 0.484868C12.4637 0.701021 10.127 1.56585 8.13489 2.98963C6.14283 4.41343 4.56804 6.3443 3.57385 8.58195C2.57968 10.8196 2.20234 13.2825 2.481 15.7152C2.75966 18.1477 3.68416 20.4616 5.15859 22.4164C6.63302 24.3714 8.60366 25.8961 10.8661 26.8326C13.1285 27.7689 15.6003 28.0829 18.025 27.7421C20.4498 27.4011 22.7389 26.4174 24.6554 24.8934C25.3239 24.432 25.9476 23.9087 26.5178 23.3302L26.5776 23.2661C26.672 23.1648 26.7245 23.0315 26.7242 22.8929V5.04922C26.7242 5.04922 26.7242 4.98557 26.7242 4.90115C26.7243 4.87858 26.7169 4.8566 26.7033 4.83867C26.6895 4.82076 26.6702 4.80791 26.6484 4.80216C26.6266 4.79642 26.6034 4.7981 26.5826 4.80694C26.5619 4.81577 26.5447 4.83126 26.5337 4.85098C26.0064 5.8107 25.4015 6.72568 24.7251 7.58678Z" fill="black"/>
</g>
<path d="M37.4972 4.59304V2.81818H45.8594V4.59304H42.7422V13H40.6143V4.59304H37.4972ZM49.5694 13.1491C48.7839 13.1491 48.1078 12.9901 47.541 12.6719C46.9776 12.3504 46.5434 11.8963 46.2385 11.3097C45.9335 10.7197 45.7811 10.022 45.7811 9.21662C45.7811 8.43111 45.9335 7.74171 46.2385 7.14844C46.5434 6.55516 46.9726 6.0928 47.5261 5.76136C48.0829 5.42992 48.7359 5.2642 49.4849 5.2642C49.9887 5.2642 50.4577 5.34541 50.8919 5.50781C51.3294 5.6669 51.7105 5.9072 52.0353 6.22869C52.3635 6.55019 52.6187 6.95455 52.801 7.44176C52.9833 7.92566 53.0744 8.49242 53.0744 9.14205V9.72372H46.6262V8.41122H51.0808C51.0808 8.1063 51.0145 7.83617 50.8819 7.60085C50.7493 7.36553 50.5654 7.18158 50.3301 7.04901C50.0981 6.91312 49.8279 6.84517 49.5197 6.84517C49.1982 6.84517 48.9132 6.91974 48.6646 7.06889C48.4193 7.21473 48.2271 7.41193 48.0879 7.66051C47.9487 7.90578 47.8774 8.17921 47.8741 8.48082V9.72869C47.8741 10.1065 47.9437 10.433 48.0829 10.7081C48.2254 10.9832 48.426 11.1953 48.6845 11.3445C48.943 11.4936 49.2496 11.5682 49.6042 11.5682C49.8395 11.5682 50.055 11.535 50.2505 11.4688C50.4461 11.4025 50.6135 11.303 50.7527 11.1705C50.8919 11.0379 50.9979 10.8755 51.0708 10.6832L53.0297 10.8125C52.9302 11.2831 52.7264 11.6941 52.4181 12.0455C52.1132 12.3935 51.7188 12.6652 51.2349 12.8608C50.7543 13.053 50.1992 13.1491 49.5694 13.1491ZM57.9068 13.1491C57.1246 13.1491 56.4518 12.9834 55.8883 12.652C55.3282 12.3172 54.8973 11.8532 54.5957 11.2599C54.2974 10.6667 54.1483 9.9839 54.1483 9.21165C54.1483 8.42945 54.2991 7.74337 54.6007 7.15341C54.9056 6.56013 55.3381 6.09777 55.8983 5.76633C56.4584 5.43158 57.1246 5.2642 57.8968 5.2642C58.563 5.2642 59.1464 5.38518 59.6468 5.62713C60.1473 5.86908 60.5434 6.20881 60.835 6.64631C61.1267 7.08381 61.2875 7.59754 61.3173 8.1875H59.3187C59.2624 7.80634 59.1132 7.49976 58.8713 7.26776C58.6326 7.03243 58.3194 6.91477 57.9316 6.91477C57.6035 6.91477 57.3168 7.00426 57.0716 7.18324C56.8296 7.3589 56.6407 7.61577 56.5048 7.95384C56.3689 8.2919 56.301 8.70123 56.301 9.18182C56.301 9.66903 56.3672 10.0833 56.4998 10.4247C56.6357 10.7661 56.8263 11.0263 57.0716 11.2053C57.3168 11.3842 57.6035 11.4737 57.9316 11.4737C58.1736 11.4737 58.3907 11.424 58.5829 11.3246C58.7785 11.2251 58.9392 11.081 59.0652 10.892C59.1944 10.6998 59.2789 10.4695 59.3187 10.201H61.3173C61.2842 10.7843 61.1251 11.2981 60.84 11.7422C60.5583 12.183 60.1689 12.5277 59.6717 12.7763C59.1745 13.0249 58.5862 13.1491 57.9068 13.1491ZM64.7912 8.58523V13H62.6733V2.81818H64.7315V6.71094H64.821C64.9934 6.26018 65.2718 5.9072 65.6562 5.65199C66.0407 5.39347 66.523 5.2642 67.103 5.2642C67.6333 5.2642 68.0956 5.38021 68.4901 5.61222C68.8878 5.84091 69.196 6.17069 69.4148 6.60156C69.6368 7.02912 69.7462 7.54119 69.7429 8.13778V13H67.625V8.51562C67.6283 8.04498 67.509 7.67874 67.267 7.4169C67.0284 7.15507 66.6937 7.02415 66.2628 7.02415C65.9744 7.02415 65.7192 7.08546 65.4972 7.2081C65.2784 7.33073 65.1061 7.50971 64.9801 7.74503C64.8575 7.97704 64.7945 8.2571 64.7912 8.58523ZM80.4331 6.38281H78.2555C78.2157 6.10109 78.1345 5.85085 78.0119 5.6321C77.8893 5.41004 77.7318 5.22112 77.5396 5.06534C77.3474 4.90956 77.1253 4.79025 76.8734 4.70739C76.6248 4.62453 76.3547 4.5831 76.063 4.5831C75.536 4.5831 75.077 4.71402 74.6859 4.97585C74.2948 5.23437 73.9915 5.61222 73.7761 6.10938C73.5607 6.60322 73.4529 7.20312 73.4529 7.90909C73.4529 8.63494 73.5607 9.24479 73.7761 9.73864C73.9949 10.2325 74.2998 10.6054 74.6909 10.8572C75.082 11.1091 75.5344 11.2351 76.0481 11.2351C76.3365 11.2351 76.6033 11.197 76.8485 11.1207C77.0971 11.0445 77.3175 10.9335 77.5098 10.7876C77.702 10.6385 77.8611 10.4579 77.987 10.2457C78.1163 10.0336 78.2058 9.79167 78.2555 9.51989L80.4331 9.52983C80.3767 9.99716 80.2359 10.4479 80.0105 10.8821C79.7884 11.313 79.4885 11.6991 79.1106 12.0405C78.7361 12.3786 78.2886 12.647 77.7683 12.8459C77.2512 13.0414 76.6663 13.1392 76.0133 13.1392C75.1052 13.1392 74.2931 12.9337 73.5772 12.5227C72.8646 12.1117 72.3012 11.5168 71.8869 10.7379C71.4759 9.95904 71.2704 9.0161 71.2704 7.90909C71.2704 6.79877 71.4792 5.85417 71.8968 5.07528C72.3145 4.2964 72.8812 3.70312 73.5971 3.29545C74.313 2.88447 75.1184 2.67898 76.0133 2.67898C76.6033 2.67898 77.1502 2.76184 77.6539 2.92756C78.161 3.09328 78.6101 3.33523 79.0012 3.65341C79.3923 3.96828 79.7105 4.3544 79.9558 4.81179C80.2044 5.26918 80.3635 5.79285 80.4331 6.38281ZM85.3873 13.1491C84.615 13.1491 83.9471 12.9851 83.3837 12.657C82.8236 12.3255 82.391 11.8648 82.0861 11.2749C81.7812 10.6816 81.6287 9.99384 81.6287 9.21165C81.6287 8.42282 81.7812 7.73343 82.0861 7.14347C82.391 6.55019 82.8236 6.08949 83.3837 5.76136C83.9471 5.42992 84.615 5.2642 85.3873 5.2642C86.1595 5.2642 86.8257 5.42992 87.3858 5.76136C87.9493 6.08949 88.3835 6.55019 88.6884 7.14347C88.9933 7.73343 89.1458 8.42282 89.1458 9.21165C89.1458 9.99384 88.9933 10.6816 88.6884 11.2749C88.3835 11.8648 87.9493 12.3255 87.3858 12.657C86.8257 12.9851 86.1595 13.1491 85.3873 13.1491ZM85.3972 11.5085C85.7485 11.5085 86.0418 11.4091 86.2772 11.2102C86.5125 11.008 86.6898 10.733 86.8091 10.3849C86.9318 10.0369 86.9931 9.64086 86.9931 9.19673C86.9931 8.7526 86.9318 8.35653 86.8091 8.00852C86.6898 7.66051 86.5125 7.38542 86.2772 7.18324C86.0418 6.98106 85.7485 6.87997 85.3972 6.87997C85.0426 6.87997 84.7443 6.98106 84.5023 7.18324C84.2637 7.38542 84.083 7.66051 83.9604 8.00852C83.8411 8.35653 83.7814 8.7526 83.7814 9.19673C83.7814 9.64086 83.8411 10.0369 83.9604 10.3849C84.083 10.733 84.2637 11.008 84.5023 11.2102C84.7443 11.4091 85.0426 11.5085 85.3972 11.5085ZM92.6408 8.58523V13H90.5229V5.36364H92.5414V6.71094H92.6309C92.7999 6.26681 93.0833 5.91548 93.481 5.65696C93.8787 5.39512 94.361 5.2642 94.9277 5.2642C95.458 5.2642 95.9204 5.38021 96.3148 5.61222C96.7092 5.84422 97.0158 6.17566 97.2346 6.60653C97.4533 7.03409 97.5627 7.54451 97.5627 8.13778V13H95.4448V8.51562C95.4481 8.0483 95.3288 7.68371 95.0868 7.42188C94.8449 7.15672 94.5118 7.02415 94.0875 7.02415C93.8025 7.02415 93.5506 7.08546 93.3319 7.2081C93.1164 7.33073 92.9474 7.50971 92.8248 7.74503C92.7054 7.97704 92.6441 8.2571 92.6408 8.58523ZM101.35 8.58523V13H99.2319V5.36364H101.25V6.71094H101.34C101.509 6.26681 101.792 5.91548 102.19 5.65696C102.588 5.39512 103.07 5.2642 103.637 5.2642C104.167 5.2642 104.629 5.38021 105.024 5.61222C105.418 5.84422 105.725 6.17566 105.944 6.60653C106.162 7.03409 106.272 7.54451 106.272 8.13778V13H104.154V8.51562C104.157 8.0483 104.038 7.68371 103.796 7.42188C103.554 7.15672 103.221 7.02415 102.797 7.02415C102.511 7.02415 102.26 7.08546 102.041 7.2081C101.825 7.33073 101.656 7.50971 101.534 7.74503C101.414 7.97704 101.353 8.2571 101.35 8.58523ZM111.421 13.1491C110.635 13.1491 109.959 12.9901 109.393 12.6719C108.829 12.3504 108.395 11.8963 108.09 11.3097C107.785 10.7197 107.633 10.022 107.633 9.21662C107.633 8.43111 107.785 7.74171 108.09 7.14844C108.395 6.55516 108.824 6.0928 109.378 5.76136C109.934 5.42992 110.587 5.2642 111.336 5.2642C111.84 5.2642 112.309 5.34541 112.743 5.50781C113.181 5.6669 113.562 5.9072 113.887 6.22869C114.215 6.55019 114.47 6.95455 114.653 7.44176C114.835 7.92566 114.926 8.49242 114.926 9.14205V9.72372H108.478V8.41122H112.932C112.932 8.1063 112.866 7.83617 112.733 7.60085C112.601 7.36553 112.417 7.18158 112.182 7.04901C111.95 6.91312 111.68 6.84517 111.371 6.84517C111.05 6.84517 110.765 6.91974 110.516 7.06889C110.271 7.21473 110.079 7.41193 109.939 7.66051C109.8 7.90578 109.729 8.17921 109.726 8.48082V9.72869C109.726 10.1065 109.795 10.433 109.934 10.7081C110.077 10.9832 110.278 11.1953 110.536 11.3445C110.795 11.4936 111.101 11.5682 111.456 11.5682C111.691 11.5682 111.907 11.535 112.102 11.4688C112.298 11.4025 112.465 11.303 112.604 11.1705C112.743 11.0379 112.849 10.8755 112.922 10.6832L114.881 10.8125C114.782 11.2831 114.578 11.6941 114.27 12.0455C113.965 12.3935 113.57 12.6652 113.086 12.8608C112.606 13.053 112.051 13.1491 111.421 13.1491ZM119.758 13.1491C118.976 13.1491 118.303 12.9834 117.74 12.652C117.18 12.3172 116.749 11.8532 116.447 11.2599C116.149 10.6667 116 9.9839 116 9.21165C116 8.42945 116.151 7.74337 116.452 7.15341C116.757 6.56013 117.19 6.09777 117.75 5.76633C118.31 5.43158 118.976 5.2642 119.748 5.2642C120.415 5.2642 120.998 5.38518 121.498 5.62713C121.999 5.86908 122.395 6.20881 122.687 6.64631C122.978 7.08381 123.139 7.59754 123.169 8.1875H121.17C121.114 7.80634 120.965 7.49976 120.723 7.26776C120.484 7.03243 120.171 6.91477 119.783 6.91477C119.455 6.91477 119.168 7.00426 118.923 7.18324C118.681 7.3589 118.492 7.61577 118.356 7.95384C118.22 8.2919 118.153 8.70123 118.153 9.18182C118.153 9.66903 118.219 10.0833 118.351 10.4247C118.487 10.7661 118.678 11.0263 118.923 11.2053C119.168 11.3842 119.455 11.4737 119.783 11.4737C120.025 11.4737 120.242 11.424 120.434 11.3246C120.63 11.2251 120.791 11.081 120.917 10.892C121.046 10.6998 121.131 10.4695 121.17 10.201H123.169C123.136 10.7843 122.977 11.2981 122.692 11.7422C122.41 12.183 122.02 12.5277 121.523 12.7763C121.026 13.0249 120.438 13.1491 119.758 13.1491ZM128.587 5.36364V6.95455H123.988V5.36364H128.587ZM125.032 3.53409H127.15V10.6534C127.15 10.849 127.18 11.0014 127.239 11.1108C127.299 11.2169 127.382 11.2914 127.488 11.3345C127.597 11.3776 127.723 11.3991 127.866 11.3991C127.965 11.3991 128.065 11.3909 128.164 11.3743C128.263 11.3544 128.34 11.3395 128.393 11.3295L128.726 12.9055C128.62 12.9387 128.471 12.9768 128.278 13.0199C128.086 13.0663 127.853 13.0945 127.577 13.1044C127.067 13.1243 126.62 13.0563 126.235 12.9006C125.854 12.7448 125.557 12.5028 125.345 12.1747C125.133 11.8466 125.029 11.4323 125.032 10.9318V3.53409Z" fill="#18181B"/>
<path d="M42.4929 21.7827C42.4588 21.4389 42.3125 21.1719 42.054 20.9815C41.7955 20.7912 41.4446 20.696 41.0014 20.696C40.7003 20.696 40.446 20.7386 40.2386 20.8239C40.0313 20.9062 39.8722 21.0213 39.7614 21.169C39.6534 21.3168 39.5994 21.4844 39.5994 21.6719C39.5938 21.8281 39.6264 21.9645 39.6974 22.081C39.7713 22.1974 39.8722 22.2983 40 22.3835C40.1278 22.4659 40.2756 22.5384 40.4432 22.6009C40.6108 22.6605 40.7898 22.7116 40.9801 22.7543L41.7642 22.9418C42.1449 23.027 42.4943 23.1406 42.8125 23.2827C43.1307 23.4247 43.4063 23.5994 43.6392 23.8068C43.8722 24.0142 44.0526 24.2585 44.1804 24.5398C44.3111 24.821 44.3778 25.1435 44.3807 25.5071C44.3778 26.0412 44.2415 26.5043 43.9716 26.8963C43.7045 27.2855 43.3182 27.5881 42.8125 27.804C42.3097 28.017 41.7031 28.1236 40.9929 28.1236C40.2884 28.1236 39.6747 28.0156 39.152 27.7997C38.6321 27.5838 38.2259 27.2642 37.9332 26.8409C37.6435 26.4148 37.4915 25.8878 37.4773 25.2599H39.2628C39.2827 25.5526 39.3665 25.7969 39.5142 25.9929C39.6648 26.1861 39.8651 26.3324 40.1151 26.4318C40.3679 26.5284 40.6534 26.5767 40.9716 26.5767C41.2841 26.5767 41.5554 26.5312 41.7855 26.4403C42.0185 26.3494 42.1989 26.223 42.3267 26.0611C42.4545 25.8991 42.5185 25.7131 42.5185 25.5028C42.5185 25.3068 42.4602 25.142 42.3438 25.0085C42.2301 24.875 42.0625 24.7614 41.8409 24.6676C41.6222 24.5739 41.3537 24.4886 41.0355 24.4119L40.0852 24.1733C39.3494 23.9943 38.7685 23.7145 38.3423 23.3338C37.9162 22.9531 37.7045 22.4403 37.7074 21.7955C37.7045 21.267 37.8452 20.8054 38.1293 20.4105C38.4162 20.0156 38.8097 19.7074 39.3097 19.4858C39.8097 19.2642 40.3778 19.1534 41.0142 19.1534C41.6619 19.1534 42.2273 19.2642 42.7102 19.4858C43.196 19.7074 43.5739 20.0156 43.8438 20.4105C44.1136 20.8054 44.2528 21.2628 44.2614 21.7827H42.4929ZM48.5451 28.1278C47.8832 28.1278 47.3107 27.9872 46.8278 27.706C46.3477 27.4219 45.9769 27.027 45.7156 26.5213C45.4542 26.0128 45.3235 25.4233 45.3235 24.7528C45.3235 24.0767 45.4542 23.4858 45.7156 22.9801C45.9769 22.4716 46.3477 22.0767 46.8278 21.7955C47.3107 21.5114 47.8832 21.3693 48.5451 21.3693C49.207 21.3693 49.7781 21.5114 50.2582 21.7955C50.7411 22.0767 51.1133 22.4716 51.3746 22.9801C51.636 23.4858 51.7667 24.0767 51.7667 24.7528C51.7667 25.4233 51.636 26.0128 51.3746 26.5213C51.1133 27.027 50.7411 27.4219 50.2582 27.706C49.7781 27.9872 49.207 28.1278 48.5451 28.1278ZM48.5536 26.7216C48.8548 26.7216 49.1062 26.6364 49.3079 26.4659C49.5096 26.2926 49.6616 26.0568 49.7638 25.7585C49.869 25.4602 49.9215 25.1207 49.9215 24.7401C49.9215 24.3594 49.869 24.0199 49.7638 23.7216C49.6616 23.4233 49.5096 23.1875 49.3079 23.0142C49.1062 22.8409 48.8548 22.7543 48.5536 22.7543C48.2496 22.7543 47.994 22.8409 47.7866 23.0142C47.582 23.1875 47.4272 23.4233 47.3221 23.7216C47.2198 24.0199 47.1687 24.3594 47.1687 24.7401C47.1687 25.1207 47.2198 25.4602 47.3221 25.7585C47.4272 26.0568 47.582 26.2926 47.7866 26.4659C47.994 26.6364 48.2496 26.7216 48.5536 26.7216ZM54.7624 19.2727V28H52.9471V19.2727H54.7624ZM60.4141 25.2131V21.4545H62.2294V28H60.4865V26.8111H60.4183C60.2706 27.1946 60.0249 27.5028 59.6811 27.7358C59.3402 27.9687 58.924 28.0852 58.4325 28.0852C57.995 28.0852 57.6101 27.9858 57.2777 27.7869C56.9453 27.5881 56.6854 27.3054 56.4979 26.9389C56.3132 26.5724 56.2195 26.1335 56.2166 25.6222V21.4545H58.032V25.2983C58.0348 25.6847 58.1385 25.9901 58.343 26.2145C58.5476 26.4389 58.8217 26.5511 59.1655 26.5511C59.3842 26.5511 59.5888 26.5014 59.7791 26.402C59.9695 26.2997 60.1229 26.1491 60.2393 25.9503C60.3587 25.7514 60.4169 25.5057 60.4141 25.2131ZM67.163 21.4545V22.8182H63.2212V21.4545H67.163ZM64.1161 19.8864H65.9315V25.9886C65.9315 26.1562 65.957 26.2869 66.0082 26.3807C66.0593 26.4716 66.1303 26.5355 66.2212 26.5724C66.315 26.6094 66.4229 26.6278 66.5451 26.6278C66.6303 26.6278 66.7156 26.6207 66.8008 26.6065C66.886 26.5895 66.9513 26.5767 66.9968 26.5682L67.2823 27.919C67.1914 27.9474 67.0636 27.9801 66.8988 28.017C66.734 28.0568 66.5337 28.081 66.2979 28.0895C65.8604 28.1065 65.4769 28.0483 65.1474 27.9148C64.8207 27.7812 64.5664 27.5739 64.3846 27.2926C64.2028 27.0114 64.1133 26.6562 64.1161 26.2273V19.8864ZM68.3455 28V21.4545H70.1609V28H68.3455ZM69.2575 20.6108C68.9876 20.6108 68.756 20.5213 68.5629 20.3423C68.3725 20.1605 68.2773 19.9432 68.2773 19.6903C68.2773 19.4403 68.3725 19.2259 68.5629 19.0469C68.756 18.8651 68.9876 18.7741 69.2575 18.7741C69.5273 18.7741 69.7575 18.8651 69.9478 19.0469C70.141 19.2259 70.2376 19.4403 70.2376 19.6903C70.2376 19.9432 70.141 20.1605 69.9478 20.3423C69.7575 20.5213 69.5273 20.6108 69.2575 20.6108ZM74.5724 28.1278C73.9105 28.1278 73.3381 27.9872 72.8551 27.706C72.375 27.4219 72.0043 27.027 71.7429 26.5213C71.4815 26.0128 71.3509 25.4233 71.3509 24.7528C71.3509 24.0767 71.4815 23.4858 71.7429 22.9801C72.0043 22.4716 72.375 22.0767 72.8551 21.7955C73.3381 21.5114 73.9105 21.3693 74.5724 21.3693C75.2344 21.3693 75.8054 21.5114 76.2855 21.7955C76.7685 22.0767 77.1406 22.4716 77.402 22.9801C77.6634 23.4858 77.794 24.0767 77.794 24.7528C77.794 25.4233 77.6634 26.0128 77.402 26.5213C77.1406 27.027 76.7685 27.4219 76.2855 27.706C75.8054 27.9872 75.2344 28.1278 74.5724 28.1278ZM74.581 26.7216C74.8821 26.7216 75.1335 26.6364 75.3352 26.4659C75.5369 26.2926 75.6889 26.0568 75.7912 25.7585C75.8963 25.4602 75.9489 25.1207 75.9489 24.7401C75.9489 24.3594 75.8963 24.0199 75.7912 23.7216C75.6889 23.4233 75.5369 23.1875 75.3352 23.0142C75.1335 22.8409 74.8821 22.7543 74.581 22.7543C74.277 22.7543 74.0213 22.8409 73.8139 23.0142C73.6094 23.1875 73.4545 23.4233 73.3494 23.7216C73.2472 24.0199 73.196 24.3594 73.196 24.7401C73.196 25.1207 73.2472 25.4602 73.3494 25.7585C73.4545 26.0568 73.6094 26.2926 73.8139 26.4659C74.0213 26.6364 74.277 26.7216 74.581 26.7216ZM80.7898 24.2159V28H78.9744V21.4545H80.7045V22.6094H80.7812C80.9261 22.2287 81.169 21.9276 81.5099 21.706C81.8509 21.4815 82.2642 21.3693 82.75 21.3693C83.2045 21.3693 83.6009 21.4688 83.9389 21.6676C84.277 21.8665 84.5398 22.1506 84.7273 22.5199C84.9148 22.8864 85.0085 23.3239 85.0085 23.8324V28H83.1932V24.1562C83.196 23.7557 83.0938 23.4432 82.8864 23.2188C82.679 22.9915 82.3935 22.8778 82.0298 22.8778C81.7855 22.8778 81.5696 22.9304 81.3821 23.0355C81.1974 23.1406 81.0526 23.294 80.9474 23.4957C80.8452 23.6946 80.7926 23.9347 80.7898 24.2159ZM91.8853 23.321L90.2234 23.4233C90.195 23.2812 90.1339 23.1534 90.0401 23.0398C89.9464 22.9233 89.8228 22.831 89.6694 22.7628C89.5188 22.6918 89.3384 22.6562 89.1282 22.6562C88.8469 22.6562 88.6097 22.7159 88.4165 22.8352C88.2234 22.9517 88.1268 23.108 88.1268 23.304C88.1268 23.4602 88.1893 23.5923 88.3143 23.7003C88.4393 23.8082 88.6538 23.8949 88.9577 23.9602L90.1424 24.1989C90.7788 24.3295 91.2532 24.5398 91.5657 24.8295C91.8782 25.1193 92.0344 25.5 92.0344 25.9716C92.0344 26.4006 91.908 26.777 91.6552 27.1009C91.4052 27.4247 91.0614 27.6776 90.6239 27.8594C90.1893 28.0384 89.6879 28.1278 89.1197 28.1278C88.2532 28.1278 87.5629 27.9474 87.0487 27.5866C86.5373 27.223 86.2376 26.7287 86.1495 26.1037L87.935 26.0099C87.989 26.2741 88.1197 26.4759 88.3271 26.6151C88.5344 26.7514 88.8001 26.8196 89.1239 26.8196C89.4421 26.8196 89.6978 26.7585 89.891 26.6364C90.087 26.5114 90.1864 26.3509 90.1893 26.1548C90.1864 25.9901 90.1168 25.8551 89.9805 25.75C89.8441 25.642 89.6339 25.5597 89.3498 25.5028L88.2163 25.277C87.5771 25.1491 87.1012 24.9276 86.7887 24.6122C86.479 24.2969 86.3242 23.8949 86.3242 23.4062C86.3242 22.9858 86.4379 22.6236 86.6651 22.3196C86.8952 22.0156 87.2177 21.7812 87.6325 21.6165C88.0501 21.4517 88.5387 21.3693 89.0984 21.3693C89.9251 21.3693 90.5756 21.544 91.0501 21.8935C91.5273 22.2429 91.8058 22.7187 91.8853 23.321Z" fill="#71717A"/>
</svg>
